<svg width="292" height="146" fill="none" xmlns="http://www.w3.org/2000/svg"><g opacity=".5"><path d="m0 0 292 7.292c-29.2 36.46-29.2 36.46-58.4 58.336-67.501-11.773-131.546-31.295-197.1-51.044l160.6 72.92v14.584l-58.4 43.752c-28.99-21.06-51.01-45.119-74.112-72.15C44.164 50.44 22.188 28.848 0 7.291V0Z" fill="#F9F144"/><path d="M21.898 7.292c44.37 8.864 87.56 20.534 130.944 33.27l16.766 4.904c40.19 11.92 40.19 11.92 56.69 20.162v51.044l-20.559-12.192c-35.816-20.443-73.076-37.734-110.384-55.26L73.897 39.08a27662.548 27662.548 0 0 0-51.999-24.496V7.292Z" fill="#29A8D0"/></g></svg>