<svg width="183" height="146" fill="none" xmlns="http://www.w3.org/2000/svg"><g clip-path="url(#a)"><path d="M150.662 6.115c-11.219 3.754-23.336 5.687-33.527 11.686-5.852 3.417-11.151 7.857-16.414 12.161-5.915 4.835-10.803 10.917-16.819 15.58-1.933 1.5-3.996 2.843-6.124 4.072-2.13 1.23-4.324 2.343-6.59 3.268-7.062 2.85-14.757 4.07-21.901 6.776-6.405 2.394-12.883 4.791-18.768 8.15-10.274 5.856-18.023 15.354-26.883 23.193 1.993 3.452 3.963 8.26 6.87 9.841 3.015 1.635 6.945 2.396 9.583 5.437 6.278 7.154 13.118 13.752 20.437 19.653 3.535 2.868 7.705 3.912 11.71 3.94 9.65.105 18.53-4.178 25.677-10.069 10.151-8.392 10.504-21.866 8.587-35.948-.92-5.645-3.82-11.067-3.96-16.624-.05-2.08 1.404-3.15 3.065-3.993 1.56-1.017 3.242-1.758 4.99-.657 4.743 2.9 8.005 8.15 12.417 11.74 11.237 8.701 23.065 15.105 35.426 10.538 8.663-3.198 16.841-8.764 21.558-17.202 1.979-3.482 3.159-7.616 2.443-12.112a168.513 168.513 0 0 0-6.801-27.525c-1.315-3.805.019-7.605.082-11.017.113-3.326-3.049-7.407-5.058-10.888ZM80.98 89.573c2.308 16.886-6.087 25.531-13.51 29.815-2.876 1.661-6.145 2.974-9.722 3.888-6.374 1.647-13.117-.597-18.947-6.244-7.804-7.538-13.07-14.202-16.553-20.898-4.48-8.69 2.147-14.817 9.956-20.822 3.642-2.793 6.657-4.879 9.489-6.552l.028-.016c3.826-2.21 7.046-3.608 10.264-4.545 9.377-2.691 15.665-2.563 19.774.435 4.593 3.37 7.274 10.606 9.22 24.94Zm74.642-39.988c1.976 7.873.503 14.822-4.066 19.53-2.58 2.64-5.351 4.816-8.256 6.494-7.422 4.285-19.123 7.204-32.576-3.209-11.44-8.853-16.348-14.764-16.942-20.443-.541-5.057 2.491-10.566 9.51-17.342 2.392-2.302 5.242-4.407 9.068-6.616l.029-.017c2.864-1.615 6.178-3.183 10.418-4.94 9.105-3.762 17.708-6.466 23.011 1.788 4.041 6.335 7.162 14.199 9.804 24.755Z" fill="#B31937" fill-opacity=".3"/></g><defs><clipPath id="a"><path fill="#fff" transform="rotate(-30 158.678 42.518)" d="M0 0h170.07v70.302H0z"/></clipPath></defs></svg>