<svg width="538" height="538" fill="none" xmlns="http://www.w3.org/2000/svg"><path d="M147.278 82.171c7.944-16.728 5.926-36.988 6.767-39.3 1.05-2.9 3.236-5.59 4.791-8.28 5.38-9.078 8.154-21.393 3.657-31.397-9.835 5.086-14.459 5.969-22.108 8.449-27.825 9.036-56.322 1.639-76.75 28.035-6.388 8.28-12.189 23.663-11.642 34.297 2.185 39.467 52.707 47.579 80.321 27.572 6.641-4.833 11.307-11.6 14.964-19.376Z" fill="#B31937"/><path d="M61.408 98.437c-13.03 2.942-22.15 7.524-22.15 13.576v35.306c0 5.675 7.986 10.046 19.67 13.03-3.572 5.254-2.27 8.659-.756 12.147 1.05 2.396 2.101 4.918 1.807 8.575-.042 1.261-.714 2.353-1.429 3.656-1.093 1.934-2.354 4.119-1.765 7.188.336 2.017 1.303 3.362 2.228 4.497.84 1.093 1.597 2.06 1.765 3.615.21 1.345.042 2.816-.126 4.329-.294 2.48-.547 5.044.588 7.608.757 1.681 1.892 2.648 2.942 3.488.967.841 1.766 1.471 2.018 2.648.294 1.261.252 2.564.21 3.951-.042 2.06-.084 4.203.967 6.389 1.345 2.816 5.212 5.926 6.599 7.019.126 2.69.798 13.45.882 16.813.126 5.127 2.228 8.952 6.179 11.474 6.262 3.951 13.702 3.783 16.602 3.531 1.135 4.371 5.002 20.217 6.431 25.176 3.489 12.484 5.926 25.429 8.322 37.955l3.951 20.637c2.186 11.306 4.455 22.655 6.725 33.961-17.821 19.545-31.775 43.503-43.88 66.157-2.775 5.212-4.035 10.718-1.724 16.14 2.942 7.02 6.263 13.871 10.34 20.344 2.69 4.287 6.22 8.322 8.406 12.819 4.245 8.785-5.884 14.585-4.54 23.033.925 5.8 4.12 10.55 8.533 14.501h362.688c-2.984-5.8-7.23-10.844-11.391-15.72-1.597-1.891-3.194-3.741-4.707-5.674a289.557 289.557 0 0 0-3.657-4.497c-6.221-7.566-13.282-16.14-15.299-25.429-.883-4.119.714-7.986 2.396-12.105.966-2.312 1.933-4.666 2.437-7.103 2.354-10.803-1.135-18.704-4.833-27.069-1.597-3.656-3.279-7.439-4.498-11.558-1.933-6.809-.336-13.408 1.387-20.385 1.345-5.548 2.732-11.307 2.228-17.191-.378-4.329-1.219-8.659-2.312-12.904l72.672-30.094c1.093-.462 1.64-1.597 1.303-2.69a2.244 2.244 0 0 0-2.48-1.681l-80.573 9.919c-1.345-2.816-2.606-5.59-3.909-8.238-1.639-3.363-3.489-6.935-5.548-10.508l53.926-57.877a2.278 2.278 0 0 0-2.859-3.489l-66.157 40.603c-3.909-4.077-8.28-7.818-13.282-10.76-2.774-1.64-5.716-2.985-8.658-4.33l16.392-82.297a2.266 2.266 0 0 0-1.471-2.606 2.23 2.23 0 0 0-2.774 1.135l-38.458 76.371c-3.867-.462-7.734-.757-11.685-.757-3.699 0-7.23.295-10.76.715l-44.806-78.809a2.269 2.269 0 0 0-2.858-.966 2.266 2.266 0 0 0-1.345 2.69l21.436 84.987c-7.607 3.741-14.543 8.574-20.553 14.543-.252.252-.42.504-.63.714l-76.623-36.777a2.271 2.271 0 0 0-2.901.798c-.588.967-.42 2.228.421 2.985l63.215 55.145c-1.303 2.606-2.48 5.127-3.363 7.607-1.933 5.296-3.194 10.928-3.993 16.687l-50.185 15.131c-1.471-9.037-2.9-18.074-6.347-26.27-1.975-4.749-6.935-3.614-11.096-2.479-2.48.672-4.834 1.471-7.187 2.269-16.182-43.922-29.254-80.448-29.38-83.642 0-.841-.336-3.026-.883-6.052-1.471-8.785-4.245-25.219-2.816-36.652 1.051-8.532-1.513-28.371-2.648-36.525-1.303-9.331-2.858-18.157-6.179-24.42 17.948-2.69 31.734-7.902 31.734-15.383v-35.307c0-6.641-10.844-11.474-25.807-14.374-51.026-6.431-76.119.756-76.119.756ZM204.4 402.071c-1.766-4.287-2.943-8.785-3.909-13.282l47.999-1.093c.631 5.506 1.303 11.012 2.018 16.518l-31.566 17.065c-5.296-6.136-11.474-11.811-14.542-19.208Zm63.257 71.705c-5.086-7.986-10.172-16.098-18.2-21.394-3.11-2.017-8.154-3.53-11.727-4.329-1.513-.336-3.194.21-4.749.042-1.429-.168-2.228-1.009-3.783-.967-.63-5.548-1.219-9.751-2.69-13.786l26.438-6.052c.462 6.641 1.177 13.324 3.825 18.83 1.555 3.236 4.497 4.749 7.145 6.094 2.27 1.177 4.413 2.27 5.548 4.329 1.093 2.018.252 9.457-1.807 17.233Z" fill="#CCC"/><mask id="a" style="mask-type:luminance" maskUnits="userSpaceOnUse" x="39" y="95" width="460" height="443"><path d="M61.408 98.437c-13.03 2.942-22.15 7.524-22.15 13.576v35.306c0 5.675 7.986 10.046 19.67 13.03-3.572 5.254-2.27 8.659-.756 12.147 1.05 2.396 2.101 4.918 1.807 8.575-.042 1.261-.714 2.353-1.429 3.656-1.093 1.934-2.354 4.119-1.765 7.188.336 2.017 1.303 3.362 2.228 4.497.84 1.093 1.597 2.06 1.765 3.615.21 1.345.042 2.816-.126 4.329-.294 2.48-.547 5.044.588 7.608.757 1.681 1.892 2.648 2.942 3.488.967.841 1.766 1.471 2.018 2.648.294 1.261.252 2.564.21 3.951-.042 2.06-.084 4.203.967 6.389 1.345 2.816 5.212 5.926 6.599 7.019.126 2.69.798 13.45.882 16.813.126 5.127 2.228 8.952 6.179 11.474 6.262 3.951 13.702 3.783 16.602 3.531 1.135 4.371 5.002 20.217 6.431 25.176 3.489 12.484 5.926 25.429 8.322 37.955l3.951 20.637c2.186 11.306 4.455 22.655 6.725 33.961-17.821 19.545-31.775 43.503-43.88 66.157-2.775 5.212-4.035 10.718-1.724 16.14 2.942 7.02 6.263 13.871 10.34 20.344 2.69 4.287 6.22 8.322 8.406 12.819 4.245 8.785-5.884 14.585-4.54 23.033.925 5.8 4.12 10.55 8.533 14.501h362.688c-2.984-5.8-7.23-10.844-11.391-15.72-1.597-1.891-3.194-3.741-4.707-5.674a289.557 289.557 0 0 0-3.657-4.497c-6.221-7.566-13.282-16.14-15.299-25.429-.883-4.119.714-7.986 2.396-12.105.966-2.312 1.933-4.666 2.437-7.103 2.354-10.803-1.135-18.704-4.833-27.069-1.597-3.656-3.279-7.439-4.498-11.558-1.933-6.809-.336-13.408 1.387-20.385 1.345-5.548 2.732-11.307 2.228-17.191-.378-4.329-1.219-8.659-2.312-12.904l72.672-30.094c1.093-.462 1.64-1.597 1.303-2.69a2.244 2.244 0 0 0-2.48-1.681l-80.573 9.919c-1.345-2.816-2.606-5.59-3.909-8.238-1.639-3.363-3.489-6.935-5.548-10.508l53.926-57.877a2.278 2.278 0 0 0-2.859-3.489l-66.157 40.603c-3.909-4.077-8.28-7.818-13.282-10.76-2.774-1.64-5.716-2.985-8.658-4.33l16.392-82.297a2.266 2.266 0 0 0-1.471-2.606 2.23 2.23 0 0 0-2.774 1.135l-38.458 76.371c-3.867-.462-7.734-.757-11.685-.757-3.699 0-7.23.295-10.76.715l-44.806-78.809a2.269 2.269 0 0 0-2.858-.966 2.266 2.266 0 0 0-1.345 2.69l21.436 84.987c-7.607 3.741-14.543 8.574-20.553 14.543-.252.252-.42.504-.63.714l-76.623-36.777a2.271 2.271 0 0 0-2.901.798c-.588.967-.42 2.228.421 2.985l63.215 55.145c-1.303 2.606-2.48 5.127-3.363 7.607-1.933 5.296-3.194 10.928-3.993 16.687l-50.185 15.131c-1.471-9.037-2.9-18.074-6.347-26.27-1.975-4.749-6.935-3.614-11.096-2.479-2.48.672-4.834 1.471-7.187 2.269-16.182-43.922-29.254-80.448-29.38-83.642 0-.841-.336-3.026-.883-6.052-1.471-8.785-4.245-25.219-2.816-36.652 1.051-8.532-1.513-28.371-2.648-36.525-1.303-9.331-2.858-18.157-6.179-24.42 17.948-2.69 31.734-7.902 31.734-15.383v-35.307c0-6.641-10.844-11.474-25.807-14.374-51.026-6.431-76.119.756-76.119.756ZM204.4 402.071c-1.766-4.287-2.943-8.785-3.909-13.282l47.999-1.093c.631 5.506 1.303 11.012 2.018 16.518l-31.566 17.065c-5.296-6.136-11.474-11.811-14.542-19.208Zm63.257 71.705c-5.086-7.986-10.172-16.098-18.2-21.394-3.11-2.017-8.154-3.53-11.727-4.329-1.513-.336-3.194.21-4.749.042-1.429-.168-2.228-1.009-3.783-.967-.63-5.548-1.219-9.751-2.69-13.786l26.438-6.052c.462 6.641 1.177 13.324 3.825 18.83 1.555 3.236 4.497 4.749 7.145 6.094 2.27 1.177 4.413 2.27 5.548 4.329 1.093 2.018.252 9.457-1.807 17.233Z" fill="#fff"/></mask><g mask="url(#a)"><path d="M231.046 492.648c-1.765 3.068-3.11 5.758-3.698 7.019-5.338 11.391-15.93 31.44-13.45 44.47.252 1.218 10.339.336 11.054.336 5.548 0 10.886.588 16.308.798 8.953.295 17.905-.966 26.858-.126 3.699.336 6.641 1.766 10.424 1.219 3.825-.546 7.565-1.765 11.39-2.522 2.018-.378 3.489-.126 4.413-2.269-1.597 3.698-22.318-11.349-24.294-13.366-8.616-8.575-17.611-22.025-18.998-34.046-.378-3.278-.378-9.331-2.311-12.189-5.212-7.733-12.988 2.648-17.696 10.676Z" fill="#CCC"/></g><path d="M320.824 464.908c-6.935 0-13.282-2.144-17.821-6.095-.715-.63-1.555-1.177-2.396-1.681l-2.186-1.555c-2.942-2.522-5.548-5.843-7.733-9.836l-1.009-1.807c-3.783-6.851-8.196-14.963-9.541-22.865-.126-.756-.252-1.513-.294-2.27-.084-.798-.084-1.555-.084-2.353 0-.673-.043-1.387 0-2.06.126-1.093.336-2.143.714-3.11.42-1.051 1.051-2.06 1.639-3.068.547-.925 1.093-1.85 1.555-2.817.421-.336.883-.672 1.303-1.008.673-.505 1.303-.967 1.934-1.429.504-.337 1.009-.673 1.471-.925.168-.084.378-.084.546-.168 2.816-1.135 7.608-.505 9.247-2.606 3.405-4.413-1.555-16.056-2.606-20.469-7.271-.841-14.164 1.849-19.376 6.514-.589.547-1.261 1.093-1.807 1.682-.967 1.008-1.808 2.143-2.606 3.32-.042-.336-.127-.63-.169-1.009 0-.714.211-1.471.253-2.185.084-.757.084-1.513.252-2.27.336-1.639.925-3.194 1.597-4.791.546-1.303 1.177-2.522 1.891-3.783 1.219-2.186 2.522-4.329 3.783-6.347l1.513-2.396c3.153-5.043 6.851-9.457 10.718-14.122l2.858-3.405c2.48-3.11 5.927-7.355 10.13-7.986 1.513 0 3.194.799 4.834 1.555l1.555.715c4.455 1.849 9.121 3.32 13.702 4.707 6.935 2.186 14.122 4.414 20.469 8.07 1.219.715 2.48 1.556 3.741 2.396-10.97 1.808-32.238-.21-35.979 12.694-1.681 5.968-1.303 12.231-1.807 18.409-.252 3.069-.715 6.137-1.765 9.037-1.093 2.858-2.06 3.741-5.044 4.666-2.228.714-3.026 2.311-3.195 4.497-.168 2.017 0 4.077 0 6.094 0 5.843 4.372 7.398 8.869 7.23-2.858 1.429-5.212 3.446-6.137 5.968-.588 1.513-2.017 4.792-1.513 6.389 1.009 2.9 5.885 0 7.734-.462 1.976-.463 3.993-1.051 5.926-1.598 3.489-.924 6.894-2.143 10.508-2.269 1.555-.042 6.473.546 7.23-1.555 1.092-2.943-2.144-5.128-5.212-6.557-1.387-.715-2.816-1.177-3.699-1.555-1.807-.715-4.119-.841-6.515-.673 6.137-3.531 6.389-10.424 6.851-17.695.715-11.643 7.818-17.485 19.545-15.804 12.861 1.85 17.863 13.618 17.947 25.219-.252 2.27-.504 4.497-1.009 6.683-5.59 25.765-15.677 40.56-30.935 45.226-3.194 1.05-6.514 1.513-9.877 1.513Z" fill="#fff"/><path d="M328.263 437.041c-1.093-.589-2.816-.504-4.119-.378-2.438.252-4.791.63-7.061 1.429-1.387.504-7.019 3.026-5.842 5.422 1.345 2.606 9.12 1.261 11.222.63 2.228-.672 6.431-1.723 6.935-4.413.252-1.429-.252-2.27-1.135-2.69Z" fill="#CCC"/><path d="m323.093 307.585-.126-.547c-.21-1.261-.63-2.9-2.185-2.9-2.06 0-4.204.336-6.179.673-1.303.21-2.858.126-4.077.756-1.513.799-1.387 2.774-1.135 4.245.336 2.144.126 4.288.631 6.431.252 1.135.21 2.438.714 3.489 1.261 2.564 3.405 3.278 6.179 3.278 2.396 0 5.043-1.513 5.884-3.867 1.261-3.53.925-7.818.294-11.558Zm-48.378 21.646c-.672-.168-1.387 0-1.975.672a58.318 58.318 0 0 0-2.522 3.111c-.883 1.177-1.849 2.479-2.228 3.951-.672 2.437 1.471 11.642 5.296 10.423 4.287-1.345 4.666-9.667 4.077-13.071-.21-1.387-.462-2.859-1.261-4.035a2.252 2.252 0 0 0-1.387-1.051Zm-14.879 22.697a1.251 1.251 0 0 0-.966.294c-2.522 1.723-3.531 8.154-3.573 10.886 0 2.186 1.219 4.371 2.438 6.137 2.143 3.194 4.287-2.102 4.623-3.783.463-2.858.21-5.674-.378-8.491-.252-1.008-.589-4.875-2.144-5.043Zm36.441-34.886c-.294-1.766-.882-3.405-2.059-3.741-.757-.21-1.303.126-1.934.546a72.425 72.425 0 0 0-3.698 2.522c-.967.715-1.934 1.471-2.858 2.144-1.261.925-1.514 2.732-1.387 4.203.294 2.48 1.218 5.38 3.026 7.145 1.555 1.555 4.161.463 5.674-.546 2.816-1.807 3.573-5.002 3.489-8.154.042-.841 0-2.522-.253-4.119Zm106.886 31.229c-.715-.378-1.429-.336-2.228.462-1.219 1.219-1.681 3.069-2.227 4.624-.715 2.059-1.472 4.749-.841 6.935.588 2.228 2.648 6.179 5.59 5.296 2.816-.841 4.203-6.263 3.783-8.827-.42-2.227-1.135-4.497-2.27-6.473-.462-.756-1.093-1.597-1.807-2.017Zm-7.566-12.694c-.504-1.134-1.345-2.269-2.438-3.446-.924-.967-1.891-1.976-2.9-2.942-.588-.547-1.723-1.681-2.522-1.808-1.513-.294-2.395 2.985-2.774 3.909-.798 1.892-1.555 3.783-2.227 5.717-1.219 3.194-2.018 5.884.294 8.784 1.303 1.639 3.699 3.573 5.968 3.279 2.732-.379 4.96-3.993 6.011-6.263 1.387-2.816 1.555-5.044.588-7.23Zm-57.583-30.22c-1.639 1.219-1.555 6.095-1.765 7.944-.42 3.278-1.261 9.163 1.681 11.601 1.387 1.176 4.834 1.933 6.725 1.849 4.54-.252 4.792-10.676 5.17-14.291.21-1.975.673-4.791-1.261-6.178-1.471-1.093-3.572-1.051-5.296-1.261-1.387-.168-3.951-.673-5.254.336Zm26.354 6.599c-1.765.841-1.849 3.657-2.312 5.464-.63 2.48-1.219 4.96-1.429 7.524-.252 3.152-1.261 6.851 2.06 8.616 1.177.63 3.068 1.219 4.875 1.345 1.85.084 3.573-.336 4.414-1.807 1.891-3.363 4.581-9.205 4.203-13.198-.084-.967-.252-2.102-.883-2.858-1.555-1.934-7.776-5.843-10.34-5.296-.21.042-.378.126-.588.21Zm-187.88 63.635c-10.423-1.429-29.758 14.711-29.548 25.429.084 3.951 2.606 7.188 4.75 10.34 7.608 11.138 26.522 1.597 30.515 17.527 2.816 11.306-8.112 21.226-12.4 30.641-1.975 4.287-6.683 11.768 1.093 12.651 3.531.378 6.725-1.975 9.583-3.741 6.515-3.993 11.307-9.835 17.401-14.122 3.657-2.522 11.265-4.792 13.282-9.037 1.345-2.774-.42-7.229-1.513-9.751-2.102-4.792-5.212-8.364-8.448-12.189-8.659-10.214-15.804-19.419-17.822-33.163-1.302-8.742-2.774-14.038-6.893-14.585ZM116.594 159.13c-3.489-3.825-9.499-10.802-14.879-11.642-2.858-.463-4.666 1.975-5.002 4.539-.504 3.573 2.396 5.926 4.623 8.322 3.237 3.573 6.263 7.566 7.86 12.147 3.573 10.298-3.572 21.941.967 31.902 2.228 4.96 9.079 18.872 15.888 18.073 6.094-.714 4.371-9.919 4.077-13.87-.715-8.953-1.807-17.863-3.152-26.732-1.093-6.767-3.153-13.576-7.314-19.124a82.164 82.164 0 0 0-3.068-3.615Zm-34.298 2.985c-2.69-3.027-10.213 0-12.651 2.227-1.765 1.639-2.102 3.993-.757 6.011 1.471 2.227 3.825 2.48 6.179 1.681 2.144-.757 4.75-1.009 6.64-2.48 2.06-1.681 2.439-5.38.59-7.439Zm-2.227 29.59c4.077-.925 9.583-2.564 7.691-8.112-1.723-5.002-9.835-1.135-12.861-.127-2.858.925-5.422 2.018-5.632 5.338-.126 1.724 0 2.648 1.765 3.237 2.732.882 6.389.252 9.037-.336Zm-3.279 16.434c3.951-.042 8.533-.168 12.273-1.724 1.934-.798 4.582-1.639 4.162-4.161-.253-1.723-1.85-3.908-3.615-4.371-3.489-.925-7.608 1.85-10.928 2.648-3.069.757-6.894 1.135-5.927 5.296.463 1.933 2.312 2.312 4.035 2.312Zm9.541 17.905c2.942 0 6.977-.378 8.995-2.816 1.807-2.228 1.261-5.842-1.009-7.566-2.858-2.143-7.733.337-10.76 1.093-1.975.463-4.623.925-6.094 2.564-1.051 1.177-1.471 3.909-.252 5.002 2.101 1.765 6.514 1.681 9.12 1.723Zm220.58 260.131c-1.387-3.068-2.942-6.136-4.455-9.246 6.641 6.556 16.014 11.6 25.135 10.507 3.488-.42 6.935-1.218 10.381-1.975 28.035-6.263 20.68 20.091 14.501 38.837-19.797-5.674-34.129-12.736-45.562-38.123Zm-40.098 38.459c-7.523-8.49-14.626-19.923-15.803-30.431-.379-3.278-.379-9.331-2.312-12.189-5.17-7.733-12.904 2.648-17.611 10.676-1.807 3.069-3.152 5.759-3.699 7.02-3.026 6.472-7.607 15.761-10.634 24.966h50.059v-.042Z" fill="#fff"/></svg>