<svg width="79" height="79" fill="none" xmlns="http://www.w3.org/2000/svg"><g clip-path="url(#a)" fill="#B31937" fill-opacity=".2"><path d="M17.638 73.243a4.686 4.686 0 0 0 5.741 3.315l48.898-13.103a4.687 4.687 0 0 0 3.315-5.74l-7.722-28.82L9.916 44.424l7.722 28.82Zm21.507-20.062-1.752-6.54a.268.268 0 0 1 .07-.259.267.267 0 0 1 .26-.065l12.71 3.605a.265.265 0 0 1 .118.44l-9.206 9.476a.259.259 0 0 1-.257.073.268.268 0 0 1-.19-.19l-1.753-6.54ZM14.611 31.353l7.82 6.638L30.2 35.91l-7.82-6.638-7.768 2.081Zm13.909-3.726 7.822 6.637 7.769-2.082-7.822-6.637-7.77 2.081ZM9.148 41.55l7.142-1.913-7.82-6.638 1.643-10.13-2.445 1.167a4.685 4.685 0 0 0-2.217 6.246l1.55 3.256 2.147 8.013ZM42.43 23.9l7.82 6.637 7.77-2.082-7.821-6.637-7.77 2.081Zm13.912-3.728 7.818 6.638 2.941-.788-2.183-8.148-8.576 2.298Zm-33.228-3.49-7.26 3.456-1.643 10.125 7.261-3.456 1.642-10.125Zm13.003-6.192-7.261 3.458-1.644 10.126 7.26-3.458 1.645-10.126ZM49.12 4.3l-7.262 3.46-1.642 10.125 7.26-3.458L49.12 4.3Zm10.502.193c-.89-1.874-2.861-2.859-4.812-2.615l-1.593 9.817 8.018-3.814-1.613-3.388Z"/></g><defs><clipPath id="a"><path fill="#fff" transform="rotate(-15 62.91 8.282)" d="M0 0h64v64H0z"/></clipPath></defs></svg>