<svg width="63" height="63" fill="none" xmlns="http://www.w3.org/2000/svg"><path d="M50.818 2.435a5.906 5.906 0 0 0-8.353 0L3.133 41.767a1.969 1.969 0 0 0-.555 1.102L.146 59.225a1.969 1.969 0 0 0 2.237 2.236l16.354-2.433a1.969 1.969 0 0 0 1.103-.555l39.33-39.33a5.905 5.905 0 0 0 0-8.353l-8.352-8.354Zm-11.655 8.871 11.135 11.138-4.134 4.134-11.137-11.137 4.136-4.135Zm5.611 16.664L18.401 54.341 7.265 43.204l26.37-26.371L44.774 27.97ZM16.633 55.361l-8.578 1.276L4.97 53.55l1.277-8.58 10.386 10.391Z" fill="#B31937" fill-opacity=".2"/></svg>