<svg width="215" height="128" fill="none" xmlns="http://www.w3.org/2000/svg"><g clip-path="url(#a)" fill="#B31937" fill-opacity=".2"><path d="M136.617 31.666a2.694 2.694 0 0 0-1.906 3.3l12.557 46.863a2.696 2.696 0 0 0 3.301 1.906l36.448-9.766a2.694 2.694 0 0 0 1.906-3.301l-12.556-46.863a2.696 2.696 0 0 0-3.301-1.906l-36.449 9.767Z"/><path d="M128.62 22.647a5.393 5.393 0 0 0 3.811-6.602l5.207-1.395a5.392 5.392 0 0 0 10.414-2.79l5.207-1.396a5.388 5.388 0 0 0 6.602 3.812 5.39 5.39 0 0 0 3.812-6.602l5.207-1.395a5.39 5.39 0 1 0 10.414-2.79l7.81-2.093 1.395 5.206a5.39 5.39 0 1 0 2.791 10.414l1.395 5.207a5.393 5.393 0 0 0-3.812 6.602 5.388 5.388 0 0 0 6.602 3.812l1.395 5.207a5.39 5.39 0 1 0 2.791 10.414l1.395 5.207a5.388 5.388 0 0 0-3.812 6.602 5.391 5.391 0 0 0 6.602 3.812l1.395 5.206a5.39 5.39 0 0 0 2.791 10.414l1.395 5.207-7.81 2.093a5.391 5.391 0 0 0-10.414 2.79l-5.207 1.396a5.391 5.391 0 0 0-10.414 2.79l-5.207 1.395a5.388 5.388 0 0 0-6.602-3.811 5.39 5.39 0 0 0-3.812 6.602l-5.207 1.395a5.39 5.39 0 1 0-10.414 2.79l-7.81 2.093-1.395-5.207a5.39 5.39 0 0 0-2.79-10.414l-1.396-5.207a5.393 5.393 0 0 0 3.812-6.602 5.388 5.388 0 0 0-6.602-3.812l-1.395-5.207a5.39 5.39 0 1 0-2.791-10.413l-1.395-5.207a5.388 5.388 0 0 0 3.812-6.602 5.392 5.392 0 0 0-6.602-3.812l-1.395-5.207a5.39 5.39 0 1 0-2.791-10.414l-1.395-5.207 7.81-2.093a5.391 5.391 0 0 0 6.603 3.812Zm.186 11.112 13.952 52.069a5.391 5.391 0 0 0 6.602 3.812l41.656-11.162a5.39 5.39 0 0 0 3.812-6.602l-13.952-52.07a5.391 5.391 0 0 0-6.602-3.811l-41.656 11.162a5.39 5.39 0 0 0-3.812 6.602Z"/></g><g opacity=".5"><path d="M146.16 51.244 0 55.072c14.616 19.14 14.616 19.14 29.232 30.625 33.788-6.18 65.845-16.43 98.658-26.797L47.502 97.18v7.657l29.232 22.968c14.511-11.056 25.533-23.686 37.097-37.877 10.223-12.204 21.223-23.54 32.329-34.856v-3.828Z" fill="#F9F144"/><path d="M135.199 55.072c-22.209 4.653-43.828 10.78-65.543 17.465l-8.392 2.575C41.146 81.37 41.146 81.37 32.887 85.696v26.797l10.291-6.401C61.106 95.36 79.756 86.283 98.431 77.083l10.741-5.323a13421.42 13421.42 0 0 1 26.027-12.86v-3.828Z" fill="#29A8D0"/></g><defs><clipPath id="a"><path fill="#fff" transform="rotate(-15 139.28 -402.807)" d="M0 0h86.25v86.25H0z"/></clipPath></defs></svg>