<svg width="87" height="48" fill="none" xmlns="http://www.w3.org/2000/svg"><path d="M24.9 13.74V31.5c0 4.26-1.32 7.2-2.7 8.7-.06.06-.12.12-.12.24 0 .78 4.08 2.94 4.08 3.12 0 .54-2.16 2.94-5.1 3.96-.48.12-.9.24-1.32.24-1.56 0-3.06-1.02-4.08-2.76 0-.06-.12-.12-.18-.12-.9 0-2.22.42-3.06.42C5.82 45.3 0 40.8 0 31.5V13.74C0 4.44 5.76 0 12.42 0S24.9 4.44 24.9 13.74Zm-13.5.18v17.46c0 .9.24 1.56.96 1.56.66 0 .96-.66.96-1.62v-17.4c0-.78-.3-1.56-.96-1.56-.6 0-.96.72-.96 1.56Zm41.303 19.62 3.9 7.44c.06.18.12.36.12.48 0 .66-3.18 3.66-6.6 3.66-2.4 0-3.84-1.56-4.8-3.12-.18-.3-.48-.48-.66-.48-.18 0-.48.12-.84.54-1.86 2.16-4.5 3.06-7.02 3.06-5.76 0-10.26-4.62-10.26-12.06 0-6.36 2.58-10.02 5.7-12.12.42-.3.66-.6.66-.84 0-.18-.06-.6-.24-.96-.78-1.26-2.22-5.04-2.22-8.76 0-6.72 4.92-10.26 10.44-10.26 5.94 0 9.9 3.78 9.9 8.7 0 4.98-3.06 8.04-4.92 9.54-.3.24-.48.72-.48.96s.18.66.3.96l2.34 4.62c.12.3.36.48.54.48.12 0 .42-.3.54-.42l3.6-4.38c.12-.12.24-.18.36-.18.18 0 .36.12.54.3l3.24 4.68c.06.12.12.36.12.54 0 .24-.06.54-.24.72l-3.9 4.68c-.36.42-.54.78-.54 1.02s.18.72.42 1.2Zm-12.96-.18-2.82-5.82c-.06-.12-.12-.18-.24-.18-.3 0-.78.84-.78 1.68 0 1.26 1.32 5.04 2.94 5.04.18 0 1.2-.12.9-.72Zm2.04-21.3c.06.12.18.12.24.12.42 0 .96-1.08.96-2.16 0-.9-.42-1.44-1.02-1.44-.54 0-.9.6-.9 1.32 0 .66.36 1.62.72 2.16ZM65.928.12h11.7c.42 0 .72.36.78.78l8.22 42.9c.12.66-.18 1.32-.84 1.32h-9.72c-.36 0-.72-.24-.78-.6l-1.2-9c-.06-.3-.3-.48-.6-.48h-3.24c-.24 0-.48.24-.54.6l-1.14 8.82c-.06.42-.48.66-.78.66h-9.9c-.54 0-.84-.42-.72-1.02L65.208.84c.06-.3.36-.72.72-.72Zm7.2 28.38-.78-5.76c-.12-.84-.24-1.38-.42-1.38s-.3.42-.42 1.38l-.78 5.7c-.06.3.06.6.36.6 1.92 0 2.1 0 2.04-.54Z" fill="#B31937" fill-opacity=".2"/></svg>