<svg width="113" height="37" fill="none" xmlns="http://www.w3.org/2000/svg"><path d="m20.256 11.376-7.344.336c-.288 0-.48-.144-.576-.528-.288-1.152-.768-1.728-1.44-1.728-.48 0-.72.384-.72.864 0 1.536 2.256 3.264 5.136 5.232 3.12 2.112 5.472 5.568 5.472 9.12 0 6.432-3.84 11.568-10.128 11.568C3.36 36.24 0 30.96 0 23.28c0-.24.192-.48.576-.48l6.624-.336c.336 0 .528.192.576.624.192 1.92 1.008 3.984 2.16 3.984.672 0 1.104-.432 1.104-1.536 0-1.152-2.688-3.264-5.904-5.856-3.216-2.592-4.8-6.192-4.8-9.456C.336 5.328 3.984 0 10.416 0s10.416 5.04 10.416 10.752c0 .336-.192.624-.576.624ZM37.1 36.096h-8.16a.686.686 0 0 1-.672-.672V10.368c0-.336-.288-.576-.624-.576h-4.8c-.288 0-.624-.384-.624-.672V.576c0-.288.144-.48.432-.48h20.544c.336 0 .624.192.624.576V9.12a.656.656 0 0 1-.672.672h-4.8c-.336 0-.576.24-.576.672v25.008c0 .336-.288.624-.672.624Zm8.422-.624V.72c0-.288.288-.624.624-.624h17.04c.288 0 .48.24.48.528v8.64c0 .288-.24.48-.528.48h-8.016a.328.328 0 0 0-.336.336v2.688c0 .192.192.336.336.336h3.792c.192 0 .336.144.336.336v8.736c0 .24-.192.432-.384.432h-3.888c-.192 0-.336.144-.336.384v2.832c0 .192.144.336.288.336h8.304c.336 0 .528.24.528.48v8.928c0 .288-.24.528-.528.528H46.05c-.288 0-.528-.288-.528-.624Zm20.157-.24V.912c0-.48.24-.816.672-.816h11.184c2.208 0 9.312 1.584 9.312 10.656 0 4.464-3.984 8.88-8.592 8.88-2.352 0-2.592 0-2.592.576v15.216c0 .384-.288.672-.816.672h-8.4c-.432 0-.768-.384-.768-.864Zm9.984-25.68v3.888c0 .192.144.528.48.528.72 0 1.008-.624 1.008-1.584v-1.968c0-.768-.384-1.296-1.008-1.296-.144 0-.24 0-.336.048-.096.048-.144.24-.144.384Zm23.396 10.944v-5.664c0-.72.24-.72 2.352-.72 1.152 0 1.92-.624 1.92-1.392 0-2.784 0-3.072-.768-3.072s-.768.24-.768 2.4c0 .24-.192.48-.528.48l-7.968-.336c-.288 0-.384-.144-.384-.384 0-3.552 0-11.232 9.648-11.232 5.712 0 9.696 3.552 9.696 9.312 0 3.936-2.208 6.576-4.032 7.488-.288.192-.528.288-.528.384 0 .096.24.192.624.336 1.728.576 4.32 3.168 4.32 7.296 0 6.144-4.08 10.704-10.08 10.704-5.904 0-10.032-4.464-10.032-10.608 0-2.064 0-2.352.288-2.352l8.64-.336c.24 0 .336.144.336.384 0 2.784 0 3.072.768 3.072.384 0 .768-.336.768-.96 0-3.504 0-4.272-1.92-4.272-2.112 0-2.352 0-2.352-.528Z" fill="#B31937"/></svg>