<svg width="205" height="280" fill="none" xmlns="http://www.w3.org/2000/svg"><g clip-path="url(#a)"><path d="M84.83 176.352c2.181 1.83 2.515 4.88 1.015 6.49-1.501 1.61-4.447 1.433-6.402-.458-2.181-1.831-2.516-4.881-1.24-6.43 1.726-1.67 4.446-1.433 6.627.398Z" fill="#000"/><path d="M79.622 156.012s-4.423-3.887-7.988-7.279c-3.505-3.166-4.005-5.931-.834-5.814 3.11-.109 10.04 1.415 15.166 3.423 2.39.808 9.397 3.52 9.397 3.52 5.126 2.007 5.098 3.705-.386 3.967l-15.355 2.183Z" fill="#B31937"/><path d="M93.86 174.898c2.18 1.831 2.515 4.881 1.014 6.491-1.5 1.609-4.446 1.432-6.402-.459-2.18-1.83-2.515-4.88-1.014-6.49 1.275-1.549 4.22-1.372 6.402.458Zm48.829-7.046c2.181 1.831 2.515 4.881 1.014 6.491-1.5 1.609-4.446 1.433-6.402-.458-2.181-1.831-2.515-4.881-1.24-6.431 1.726-1.67 4.672-1.493 6.628.398Z" fill="#000"/><path d="M141.82 170.018c-1.779-4.837-3.333-9.734-5.112-14.57-.889-2.419-4.599-.942-3.71 1.477 1.779 4.836 3.333 9.733 5.112 14.57.889 2.418 4.66 1.166 3.71-1.477Z" fill="#94989B"/><path d="M15.989 160.987s-6.87-1.299-7.661 2.053c-2.064 8.522 8.987 26.331 146.854-2.641 8.233-1.723 5.822-7.114-3.469-11.145-27.935-12.319 6.73-13.638-135.724 11.733Z" fill="#E58917"/><path d="M141.822 146.591c-1.336 1.324-8.53 4.218-8.53 4.218s.543 2.027 3.939 2.084c2.946.176 6.309-1.691 8.591-3.993l-4-2.309Z" fill="#fff"/><path d="M45.946 155.616s-23.807-15.84-31.597-21.48c-4.813-3.541-9.48 1.574-9.48 1.574s2.332 27.631 3.519 27.555l36.794-5.995c1.187-.076 1.456-.873.764-1.654Z" fill="#B31937"/><path d="M102.603 173.28c2.182 1.831 2.516 4.881 1.015 6.49-1.501 1.61-4.446 1.433-6.402-.458-2.181-1.83-2.515-4.88-1.015-6.49 1.501-1.61 4.447-1.433 6.402.458Z" fill="#000"/><path d="M100.487 175.296c-5.308-2.683-10.676-5.592-16.209-8.215-.571-.33-1.412.137-1.457.873-.671 3.803-1.117 7.545-1.79 11.348l.182.676c.12.45.407.615.857.494 5.98-1.119 12.02-2.013 17.773-3.071 1.352-.363 1.501-1.61.644-2.105Z" fill="#94989B"/><path d="M74.594 186.823s-21.81-4.783-40.821 5.383c-1.066.527-3.468 2.378-1.227 4.434 4.692 3.09 16.374 7.93 39.631 4.596l2.417-14.413Z" fill="#E58917"/><path d="M73.018 200.77c-1.923.032-3.444-2.941-3.058-6.909.16-3.907 1.975-7.05 3.898-7.082 1.923-.033 3.445 2.941 3.059 6.908-.16 3.908-1.975 7.05-3.899 7.083Z" fill="#B31937"/><path d="M72.756 195.285c.237-2.72-.427-5.199-1.69-6.309-.6 1.368-1.139 2.962-1.332 4.945-.237 2.721.427 5.199 1.69 6.31.6-1.368 1.14-2.962 1.332-4.946Z" fill="#000"/><path d="M77.844 164.699c-5.875.608-8.639 1.108-12.932 4.915l-30.7 25.131c-4.293 3.807-2.997 6.841 2.998 6.684 5.77-.098 14.723-2.738 19.483-5.704l45.737-29.402c4.76-2.966 3.931-5.159-1.884-4.326l-22.702 2.702Z" fill="#B31937"/><path d="M54.538 165.148a2.1 2.1 0 1 0-1.088-4.057 2.1 2.1 0 0 0 1.088 4.057Zm7.717-5.449c-1.127.302-1.847 1.219-1.545 2.346.302 1.126 1.22 1.847 2.346 1.545 1.127-.302 1.847-1.22 1.545-2.346-.302-1.127-1.445-1.787-2.346-1.545Zm9.319 2.333a2.099 2.099 0 1 0-1.086-4.055 2.099 2.099 0 0 0 1.086 4.055Zm8.519-1.558a2.1 2.1 0 1 0-1.086-4.055 2.1 2.1 0 0 0 1.086 4.055Zm8.518-1.558a2.099 2.099 0 1 0-1.085-4.055 2.099 2.099 0 0 0 1.085 4.055Zm8.519-1.558a2.1 2.1 0 1 0-1.089-4.057 2.1 2.1 0 0 0 1.088 4.057Zm7.717-5.449c-1.127.302-1.847 1.22-1.545 2.346.302 1.127 1.219 1.847 2.346 1.545 1.127-.302 1.847-1.219 1.545-2.346-.302-1.126-1.22-1.847-2.346-1.545Zm9.319 2.333a2.1 2.1 0 1 0-1.086-4.056 2.1 2.1 0 0 0 1.086 4.056Z" fill="#fff"/></g><path d="M167.226 24.41c-.78.084-.78.084-1.116.42l.007.331c-.008.443-.108.576-.385.914l-.245.306-.266.322-.543.679-.27.337c-.337.428-.653.867-.965 1.312a77.347 77.347 0 0 1-1.483 2.032c-.867 1.15-1.722 2.31-2.576 3.471-.489.666-.979 1.33-1.469 1.995-.405.55-.811 1.1-1.215 1.651a480.921 480.921 0 0 1-3.092 4.157l-.237.316c-.158.21-.319.42-.48.629l-.233.303-.208.268c-.149.226-.149.226-.149.505l-.393-.131c-.569-.087-.841.129-1.299.453-.573.398-.961.572-1.656.628-.896.095-1.578.42-2.363.837-.112.06-.224.12-.34.18-.651.36-1.198.756-1.761 1.241-.309.119-.309.119-.558.14v-.698l-.416.013c-4.982.284-4.982.284-9.927-.099-.727-.098-1.418.006-2.13.158-1.618.304-2.908-.136-4.406-.673-.91-.315-1.679-.441-2.621-.222-.471-.021-.758-.312-1.144-.572-.486-.142-.486-.142-1.003-.253-1.221-.295-2.109-.858-3.074-1.646-1.098-.896-2.178-1.548-3.457-2.153-1.526-.637-1.526-.637-2.553-1.824l-.1-.314c-.31-.838-.889-1.584-1.391-2.319l-.218-.322c-.837-1.107-2.372-1.337-3.653-1.648l-.447-.11c-1.808-.434-3.592-.618-5.446-.71l.092.387c.127.53.251 1.062.374 1.594l.189.799a79.188 79.188 0 0 1 2.134 16.33 123.457 123.457 0 0 0-.326-1.636c-.056-.274-.11-.549-.164-.823-.274-1.348-.603-2.643-1.199-3.887-.34-.741-.459-1.5-.577-2.302l-.074-.474a17.164 17.164 0 0 1-.101-3.824c.047-.98.047-.98-.296-1.457-.407-.381-.689-.641-1.256-.699-.856.097-1.57 1.1-2.083 1.738-.242.31-.334.49-.395.883.072.455.232.557.587.843.883.825 1.005 1.938 1.063 3.107.005.28.009.562.01.843l.008.462c.008.482.013.964.017 1.447l.015.958c.026 1.793.035 3.586.029 5.38l-.117-.486c-.856-3.556-1.781-7.068-2.952-10.534l-.169-.502c-.763-2.24-1.632-4.418-2.726-6.519l-.193-.374a39.973 39.973 0 0 0-.373-.7c-.413-.788-.555-1.479-.584-2.367-.409.08-.53.106-.811.434l-.244.368-.245.364c-.235.368-.235.368-.385.743-.442.533-1.028.537-1.69.646l-.94.172-.533.095c-1.044.188-2.084.395-3.124.6-.365.073-.729.143-1.093.213-3.762.733-3.762.733-4.512 1.787-.602.973-.722 1.948-.854 3.067l-.034.282c-.032.266-.06.533-.09.8-.185.951-.764 1.434-1.443 2.068-.827.795-1.367 1.574-1.897 2.584-.265.47-.55.774-.943 1.132-2.429 2.39-4.473 5.653-6.148 8.603l-.155.272c-.479.864-.733 1.558-.665 2.552.141.349.28.644.465.966l.151.272c.606 1.073 1.292 2.093 1.982 3.113l.41.61a197.231 197.231 0 0 0 3.13 4.525l.227.32a137.066 137.066 0 0 0 2.761 3.748c.798 1.041 1.583 1.974 2.661 2.732l.264.192c1.092.785 1.923 1.258 3.293 1.255l.514.001c.462-.018.462-.018.758-.11.4-.073.627.1.977.292.657.358.657.358.96.358l-.07.251c-.366 1.402-.64 2.822-.917 4.244a1150.144 1150.144 0 0 0-.428 2.168l-.079.397c-.24 1.246-.24 1.246-.18 1.867l.278.279c.042.448.042.448.034.984l.001.309c0 .34 0 .68-.002 1.02v.719c0 .641-.003 1.282-.005 1.924l-.003 1.188c-.005 2.977-.015 5.954-.086 8.93l-.008.352a126.502 126.502 0 0 1-.083 2.459c-.054 1.238-.149 2.449-.397 3.666l-.088.447c-.329 1.615-.734 3.212-1.13 4.811-.936 3.787-1.679 7.561-1.79 11.472-.102 3.488-.708 6.84-1.404 10.248-.125.61-.248 1.22-.37 1.83l-.177.867c-.149.731-.29 1.455-.35 2.199-.01.111-.02.223-.032.337-.059 1.169.303 2.173.694 3.255.994 2.695.994 2.695 1.404 5.518l.012.334a21.01 21.01 0 0 1-.453 5.135c-.133.712-.249 1.447-.09 2.16.454.656.965 1.072 1.638 1.49l.26.165c.643.394 1.268.69 2.007.855l.392.096c1.538.151 3.061.142 4.35-.793.487-.704.645-1.231.62-2.092l.003-.277c-.008-.654-.123-1.245-.272-1.882-.327-1.562-.29-3.147-.307-4.737l-.014-.96c-.012-.775-.022-1.551-.03-2.327h.698a6.306 6.306 0 0 0 .323-2.11l-.002-.314c-.029-1.409-.412-2.69-.911-4-.258-.987-.055-1.839.206-2.796.472-1.854.682-3.738.909-5.635.78-6.535 2.08-12.625 4.32-18.81l.132-.368.134-.369.134-.371.267-.738c.921-2.546 1.703-5.126 2.439-7.731l.003.308c.011.968.024 1.936.037 2.904l.019 1.493c.06 5.535.06 5.535 1.015 7.82.393 1.012.348 1.837.042 2.871-.366 1.327-.303 2.768-.318 4.136l-.012.834-.019 1.447a993.283 993.283 0 0 1-.036 2.796c-.025 1.776-.122 3.454-.592 5.172l-.226.859-.102.374a8.446 8.446 0 0 0-.228 2.244l.008.604.004.315c.022 1.776-.035 3.42-.432 5.159-.051.372-.098.743-.14 1.116l-.037.283c-.123.961-.143 1.922-.154 2.89l-.016.51c-.012 1.228-.012 1.228.395 1.788 1.652 1.106 3.753.991 5.671.946v-1.116c1.204.231 1.204.231 2.267.81 2.528 1.826 6.514 2.28 9.52 1.802a10.343 10.343 0 0 0 3.418-1.357c-.069-.965-.239-1.769-.941-2.477-.885-.727-1.788-1.046-2.878-1.368-1.948-.586-3.527-1.272-4.851-2.849a5.37 5.37 0 0 0-.807-.699c-.247-.193-.247-.193-.427-.418-.047-.463-.047-.463-.006-.789.007-.406-.097-.723-.212-1.112-.256-1.011-.192-1.966-.108-3 .053-.703.029-1.255-.165-1.93-.275-1.158.009-2.025.552-3.047.117-.227.233-.455.348-.683l.157-.298c.659-1.509.433-3.674.428-5.287l-.001-.288a210.524 210.524 0 0 0-.077-4.963 479.593 479.593 0 0 1-.037-1.593l-.017-.773c-.012-.547-.025-1.093-.043-1.64-.094-3.009.259-5.922.657-8.897l.183-1.376.064-.489.065-.495c.128-.967.256-1.935.386-2.902l.061-.457.113-.83c.057-.425.111-.851.163-1.278l.035-.29a43.27 43.27 0 0 0 .301-4.907l.009-.693c.007-.597.012-1.194.017-1.791l.02-1.841c.014-1.197.025-2.393.036-3.59l.535.138c.426.11.81.176 1.252.168l.308-.003c.276-.024.276-.024.695-.163.157-.315.174-.531.202-.881l.031-.382.032-.42.035-.436.11-1.43.037-.496c.571-7.578.668-15.06.185-22.649-.193-3.052-.235-6.098-.214-9.155l.336.127c3.743 1.417 3.743 1.417 5.54 1.904l.352.096c1.913.497 3.82.613 5.786.715l.953.051c3.395.18 6.792.33 10.189.48l.43.02 2.479.11.765.033a1087.201 1087.201 0 0 0 1.367.06 32.59 32.59 0 0 0 1.654.03c.34-1.045.476-1.97.419-3.068.453.165.718.297 1.09.619.806.685 1.5.811 2.537.758.866-.084 1.73-.179 2.371-.82v-.557l.244-.018c.469-.182.606-.543.872-.959l.314-.2c.244-.218.244-.218.279-.733l-.035-.462.471-.052c.505-.087.505-.087.784-.366.053-.401.053-.401 0-.837-.322-.414-.65-.614-1.116-.837 1.391-2.002 2.786-4.002 4.185-5.998a1965.6 1965.6 0 0 0 3.353-4.802c.925-1.33 1.854-2.659 2.785-3.986a2001.833 2001.833 0 0 0 3.962-5.674c.187-.273.368-.55.547-.829.2-.354.2-.354.538-.437l.253-.035c.208-.415.156-.797.14-1.255l-.14-.14Zm-62.213 29.852v.697h-.139v-.697h.139Zm-22.597 0 .095.316c.572 1.885 1.155 3.76 1.832 5.612l.16.439.53 1.455c.545 1.5.946 3.476.312 5.01-.417.822-.92 1.547-1.534 2.233-.803-.59-1.226-1.2-1.665-2.084-.596-1.131-1.137-1.904-2.308-2.48-.577-.325-.787-.742-1.057-1.33a75.813 75.813 0 0 0-.281-.564l-.136-.271a5.865 5.865 0 0 0-.604-.882c-.336-.425-.532-.777-.645-1.317l-.059-.27c-.041-.323-.042-.536.06-.846.278-.227.578-.388.89-.567.448-.331.724-.727 1.027-1.185a12.839 12.839 0 0 1 1.692-2.04l.231-.228c.634-.698.634-.698 1.46-1.001Zm15.065 47.984-.14.279.14-.279Z" fill="#000"/><path d="M93.575 15.204c-2.01 1.552-3.285 4.362-3.627 6.835-.205 2.585.778 4.357 2.156 6.484.264.431.453.856.634 1.328l.14.279-.04.355c-.044.648-.042 1.19.388 1.712.666.635 1.417 1.164 2.162 1.699.31.233.617.47.924.706l.434.33c.716.555 1.392 1.158 2.072 1.757l.242.21c.156.136.31.274.462.414.438.39.555.489 1.167.489.874-2.02 1.469-3.668.837-5.859v-.279l.291.061c2.18.43 2.18.43 2.839-.009.358-.545.481-1.047.566-1.69.026-.465.026-.465.349-.733.058-.313.058-.313.087-.68l.032-.365c.018-.302.021-.605.021-.908l.409-.2c.428-.218.428-.218.567-.358-.041-.84-.312-1.293-.776-1.953-.607-.927-.702-1.59-.628-2.71.017-.908-.315-1.722-.73-2.52-.158-.305-.296-.573-.377-.907.214-.45.214-.45.412-.714.289-.519.256-1.087.146-1.658-.453-.638-1.138-1.015-1.813-1.395l-.445-.253c-.652-.203-1.212-.18-1.89-.161a4.916 4.916 0 0 1-1.153-.144c-1.873-.42-4.183-.132-5.858.837Z" fill="#000"/><defs><clipPath id="a"><path fill="#fff" transform="rotate(-15 514.86 67.782)" d="M0 0h149.299v149.299H0z"/></clipPath></defs></svg>