<svg width="508" height="235" fill="none" xmlns="http://www.w3.org/2000/svg"><path d="m254 0 29.483 31.388L332.49 5.751l7.073 34.067 63.734-17.377-16.03 33.41 72.223-7.416-37.564 29.484 73.642 3.272-55.42 22.67L508 117.5l-67.852 13.639 55.42 22.67-73.642 3.272 37.564 29.484-72.223-7.416 16.03 33.41-63.734-17.377-7.073 34.067-49.007-25.637L254 235l-29.483-31.388-49.007 25.637-7.073-34.067-63.734 17.377 16.03-33.41-72.223 7.416 37.564-29.484-73.642-3.272 55.42-22.67L0 117.5l67.852-13.639-55.42-22.67 73.642-3.272L48.51 48.435l72.223 7.416-16.03-33.41 63.734 17.377L175.51 5.75l49.007 25.637L254 0Z" fill="#B31937"/></svg>