<svg width="113" height="37" fill="none" xmlns="http://www.w3.org/2000/svg"><path d="m20.256 11.376-7.344.336c-.288 0-.48-.144-.576-.528-.288-1.152-.768-1.728-1.44-1.728-.48 0-.72.384-.72.864 0 1.536 2.256 3.264 5.136 5.232 3.12 2.112 5.472 5.568 5.472 9.12 0 6.432-3.84 11.568-10.128 11.568C3.36 36.24 0 30.96 0 23.28c0-.24.192-.48.576-.48l6.624-.336c.336 0 .528.192.576.624.192 1.92 1.008 3.984 2.16 3.984.672 0 1.104-.432 1.104-1.536 0-1.152-2.688-3.264-5.904-5.856-3.216-2.592-4.8-6.192-4.8-9.456C.336 5.328 3.984 0 10.416 0s10.416 5.04 10.416 10.752c0 .336-.192.624-.576.624ZM37.1 36.096h-8.16a.686.686 0 0 1-.672-.672V10.368c0-.336-.288-.576-.624-.576h-4.8c-.288 0-.624-.384-.624-.672V.576c0-.288.144-.48.432-.48h20.544c.336 0 .624.192.624.576V9.12a.656.656 0 0 1-.672.672h-4.8c-.336 0-.576.24-.576.672v25.008c0 .336-.288.624-.672.624Zm8.422-.624V.72c0-.288.288-.624.624-.624h17.04c.288 0 .48.24.48.528v8.64c0 .288-.24.48-.528.48h-8.016a.328.328 0 0 0-.336.336v2.688c0 .192.192.336.336.336h3.792c.192 0 .336.144.336.336v8.736c0 .24-.192.432-.384.432h-3.888c-.192 0-.336.144-.336.384v2.832c0 .192.144.336.288.336h8.304c.336 0 .528.24.528.48v8.928c0 .288-.24.528-.528.528H46.05c-.288 0-.528-.288-.528-.624Zm20.157-.24V.912c0-.48.24-.816.672-.816h11.184c2.208 0 9.312 1.584 9.312 10.656 0 4.464-3.984 8.88-8.592 8.88-2.352 0-2.592 0-2.592.576v15.216c0 .384-.288.672-.816.672h-8.4c-.432 0-.768-.384-.768-.864Zm9.984-25.68v3.888c0 .192.144.528.48.528.72 0 1.008-.624 1.008-1.584v-1.968c0-.768-.384-1.296-1.008-1.296-.144 0-.24 0-.336.048-.096.048-.144.24-.144.384Zm26.804 16.608h8.88c.24 0 .384.192.384.432v9.12c0 .24-.144.384-.48.384h-18.24c-.192 0-.432-.144-.432-.336v-9.6c0-.384.144-.912.48-1.44 3.552-5.472 9.984-8.928 9.984-12.96 0-.672-.192-1.104-.672-1.104-.672 0-1.248 1.392-1.248 2.832 0 .24-.192.384-.384.384l-7.44-.336c-.576-.048-.576-.24-.576-2.16 0-5.856 3.36-10.8 9.456-10.8 6.192 0 9.888 4.992 9.888 10.656 0 7.2-3.984 10.416-9.696 14.4-.096.096-.192.24-.192.336 0 .144.096.192.288.192Z" fill="#B31937"/></svg>