<svg width="226" height="219" fill="none" xmlns="http://www.w3.org/2000/svg"><g clip-path="url(#a)"><path d="M194.448 184.538a107.27 107.27 0 0 0 23.251-116.894A107.256 107.256 0 0 0 118.602 1.43v107.262l75.846 75.846Z" fill="#B31937"/><path d="M107.483 4.046a107.263 107.263 0 1 0 75.846 183.108l-75.846-75.846V4.046Z" fill="#E58917"/><path fill="#fff" fill-opacity=".7" d="M-11 91h259v38H-11z"/><path d="M29.994 110.76c-.8 0-1.74.44-2.42 1.56.28 2.7 1.28 3.74 2.52 3.74 1.1 0 2.02-.92 2.02-2.74 0-1.74-.84-2.56-2.12-2.56Zm.16 7.52c-2.82 0-5.32-2.26-5.32-7.48 0-5.52 2.74-7.88 5.72-7.88 1.82 0 3.12.76 4.02 1.68l-1.56 1.76c-.52-.6-1.42-1.08-2.28-1.08-1.7 0-3.1 1.28-3.22 5 .8-1 2.08-1.6 3.04-1.6 2.48 0 4.24 1.48 4.24 4.64 0 3.04-2.12 4.96-4.64 4.96Zm11.357 0c-3.02 0-5.02-2.64-5.02-7.74 0-5.12 2-7.62 5.02-7.62 3.02 0 5 2.52 5 7.62s-1.98 7.74-5 7.74Zm0-2.3c1.28 0 2.22-1.28 2.22-5.44 0-4.14-.94-5.34-2.22-5.34-1.28 0-2.24 1.2-2.24 5.34 0 4.16.96 5.44 2.24 5.44Zm17.278-13.76 2.34-.94c1.26 2.54 3.76 5.44 5.94 7.12-.64.5-1.56 1.46-2.02 2.14-.42-.38-.84-.82-1.28-1.28v.14c-.22 6.04-.46 8.4-1.16 9.24-.5.64-1.04.84-1.82.94-.68.1-1.84.1-3.02.06-.04-.72-.36-1.72-.78-2.4 1.1.08 2.14.1 2.64.1.36 0 .58-.04.8-.28.4-.42.62-2.2.8-6.38h-3.94c-.5 3.84-1.8 7.26-6.98 9.2-.3-.68-1-1.66-1.58-2.2 4.52-1.46 5.56-4.08 5.96-7h-3.38v-1.4c-.52.54-1.06 1.02-1.6 1.44-.44-.54-1.46-1.5-2.04-1.92 2.5-1.68 4.7-4.44 5.9-7.48l2.56.74c-.98 2.3-2.38 4.5-3.96 6.3h10.8a33.963 33.963 0 0 1-4.18-6.14Zm12.5 14.98c.24-.5.26-.84.26-1.3v-10.84c0-.76-.1-1.7-.22-2.28h3.14c-.12.78-.2 1.5-.2 2.28v10.4c3.26-.94 7.72-3.5 10.28-6.62l1.42 2.26c-2.74 3.28-6.88 5.66-11.6 7.2-.28.1-.72.24-1.18.54l-1.9-1.64Zm26.2-11.08c.38.86 1.36 3.46 1.64 4.38l-2.4.84c-.24-.98-1.12-3.4-1.62-4.44l2.38-.78Zm7.38 1.46c-.24.64-.36 1.06-.48 1.46-.52 2.02-1.36 4.1-2.72 5.86-1.86 2.4-4.36 4.08-6.7 4.96l-2.1-2.14c2.2-.58 4.98-2.1 6.64-4.18 1.36-1.7 2.32-4.36 2.56-6.86l2.8.9Zm-12.02-.4c.5 1.02 1.46 3.44 1.86 4.56l-2.44.92c-.34-1.08-1.34-3.74-1.82-4.62l2.4-.86Zm31.22-2.74c-.16.22-.52.84-.7 1.24-.68 1.56-1.8 3.7-3.14 5.5 1.98 1.72 4.4 4.28 5.58 5.72l-2.28 1.98c-1.3-1.8-3.16-3.84-5.04-5.66-2.12 2.24-4.78 4.32-7.52 5.62l-2.06-2.16c3.22-1.2 6.32-3.64 8.2-5.74 1.32-1.5 2.54-3.48 2.98-4.9h-6.78c-.84 0-1.94.12-2.36.14v-2.84c.54.08 1.76.14 2.36.14h7.06c.86 0 1.66-.12 2.06-.26l1.64 1.22Zm8.14-1.64c1.4.94 4 3.02 5.16 4.24l-2.04 2.08c-1.04-1.12-3.54-3.3-5-4.32l1.88-2Zm-2.5 13.32c3.12-.44 5.72-1.46 7.66-2.62 3.42-2.02 6.02-5.08 7.28-7.78l1.56 2.82c-1.52 2.7-4.18 5.46-7.4 7.4-2.02 1.22-4.6 2.34-7.42 2.82l-1.68-2.64Zm19.32 1.88v-2.38h3.18v-9.36h-2.68v-1.82c1.48-.28 2.5-.66 3.44-1.26h2.18v12.44h2.78V118h-8.9Zm13.277-14.2c.74.08 1.78.12 2.46.12h10.08c.58 0 1.42-.02 1.76-.04-.02.46-.06 1.26-.06 1.84v10.36c0 .7.04 1.76.08 2.36h-2.9c.02-.32.02-.66.02-1.04h-9.12c-.78 0-1.92.06-2.58.12v-2.86c.7.06 1.6.12 2.5.12h9.22v-8.28h-8.98c-.84 0-1.92.04-2.48.08v-2.78Zm35.92 1.6c-.28.32-.52.58-.68.84-1.44 2.34-4 5.54-6.82 7.82 1.14 1.14 2.32 2.44 3.1 3.38l-2.34 1.86c-.84-1.12-2.52-3-3.82-4.32-1.16-1.18-3.2-2.98-4.4-3.84l2.12-1.7c.8.6 2.12 1.68 3.38 2.78 2.26-1.8 4.14-4.12 5.08-5.76h-10.58c-.8 0-1.88.1-2.3.14v-2.8c.52.08 1.62.18 2.3.18h11.1c.76 0 1.44-.08 1.86-.22l2 1.64Z" fill="#B31937"/></g><defs><clipPath id="a"><path fill="#fff" d="M0 0h226v219H0z"/></clipPath></defs></svg>