<svg width="84" height="30" fill="none" xmlns="http://www.w3.org/2000/svg"><path d="m12.84 8.04-4.76.28c-.2.04-.32-.12-.32-.36 0-1.24-.28-1.88-.88-1.88-.32 0-.6.28-.6.72 0 .84 1.2 2.04 3.4 4.04 2.36 2.08 3.36 3.8 3.36 6.36 0 3.44-1.72 6.8-6.6 6.8-2.68 0-6.28-1.48-6.28-8.2 0-.2.12-.36.28-.36l4.36-.28c.16 0 .28.12.32.28.08 1.44.56 2.32 1.16 2.32.36 0 .56-.28.56-.68 0-.96-1.52-2.48-3.76-4.36C1.44 11.4 0 9.24 0 6.24 0 2.68 2.84 0 6.4 0c4.8 0 6.84 3.72 6.84 7.68 0 .2-.2.36-.4.36Zm1.385 9.72V6.2c0-3.68 2.76-6.2 6.88-6.2s6.88 2.48 6.88 6.4v11.36c0 3.72-2.76 6.24-6.88 6.24-4.08 0-6.88-2.56-6.88-6.24Zm6.24-10.56v9.52c0 .48.2.8.64.8s.64-.32.64-.8V7.2c0-.44-.24-.8-.64-.8-.44 0-.64.36-.64.8Zm8.882 16.48V.32c0-.2.08-.32.24-.32h5.64c.24 0 .52 1.28.72 1.28.08 0 .16-.08.24-.28.4-.96 1.28-1 2.52-1 .12 0 .24.12.24.28v5.76c0 .16-.08.28-.28.28-2.04 0-2.84 1.08-2.84 4.32v13c0 .2-.16.36-.36.36h-5.84c-.16 0-.28-.12-.28-.32Zm10.977 0V.32c0-.2.08-.32.24-.32h5.64c.24 0 .52 1.28.72 1.28.08 0 .16-.08.24-.28.4-.96 1.28-1 2.52-1 .12 0 .24.12.24.28v5.76c0 .16-.08.28-.28.28-2.04 0-2.84 1.08-2.84 4.32v13c0 .2-.16.36-.36.36h-5.84c-.16 0-.28-.12-.28-.32Zm14.736-4.72L50.5.28c0-.12.04-.28.2-.28h5.52c.2 0 .28.12.32.28l.88 6c.04.16.08.32.16.32.04 0 .12-.16.16-.32L58.86.2c.04-.08.08-.2.24-.2h5.28c.16 0 .28.12.24.16l-5.64 29.52c-.04.16-.16.32-.36.32H53.5c-.2 0-.32-.16-.28-.36l1.84-10.08c.04-.2.04-.4 0-.6Zm13.757-.52v5.12c0 .24-.2.44-.44.44h-4.88c-.2 0-.4-.28-.4-.48v-4.96c0-.2.24-.44.4-.44h4.92c.2 0 .4.12.4.32Zm7.305 0v5.12c0 .24-.2.44-.44.44h-4.88c-.2 0-.4-.28-.4-.48v-4.96c0-.2.24-.44.4-.44h4.92c.2 0 .4.12.4.32Zm7.305 0v5.12c0 .24-.2.44-.44.44h-4.88c-.2 0-.4-.28-.4-.48v-4.96c0-.2.24-.44.4-.44h4.92c.2 0 .4.12.4.32Z" fill="#000"/></svg>