<svg width="1440" height="322" fill="none" xmlns="http://www.w3.org/2000/svg"><path d="M0 244 1440 0v321.5H0V244Z" fill="url(#a)"/><path d="M334 139.5c101.5 28-60.5 57.998-112.5 67.998L526 155c-79.5 5.499-132.167-26-192-15.5Z" fill="url(#b)"/><path d="m270 295-51 1.3c6.424 8.187 6.424 8.187 10.2 10.4 2.525.041 2.525.041 5.339-.65l3.312-.802c8.633-2.417 17.202-5.012 25.774-7.648l-28.05 13v2.6c2.231 1.96 2.231 1.96 5.1 4.062l2.869 2.123 2.231 1.615c5.064-3.755 8.913-8.044 12.944-12.868 3.051-3.538 6.319-6.81 9.642-10.08C270 296.3 270 296.3 270 295Z" fill="#fff"/><path d="M266 296c-8.032 1.621-15.85 3.755-23.703 6.083l-3.035.897c-7.275 2.18-7.275 2.18-10.262 3.687V316l3.722-2.229c6.483-3.738 13.228-6.9 19.981-10.104l3.884-1.854c3.136-1.497 6.274-2.99 9.413-4.48V296Z" fill="#F9F144"/><defs><linearGradient id="a" x1="591" y1="-153" x2="655" y2="270.5" gradientUnits="userSpaceOnUse"><stop stop-color="#9BBDEA" stop-opacity="0"/><stop offset="1" stop-color="#9BBDEA"/></linearGradient><linearGradient id="b" x1="591" y1="-153" x2="655" y2="270.5" gradientUnits="userSpaceOnUse"><stop stop-color="#9BBDEA" stop-opacity="0"/><stop offset="1" stop-color="#9BBDEA"/></linearGradient></defs></svg>