<svg width="119" height="51" fill="none" xmlns="http://www.w3.org/2000/svg"><path d="M12.85 40.038c.676 2.526-1.709 5.402-3.553 6.865-.534.416-1.242.929-1.914 1.109-.301.08-.958.133-1.184-.155.082.4-.145.76-.539.865-.417.112-.765-.168-.87-.562-.28-1.043-.456-2.163-.69-3.219-.432-2.17-.841-4.346-1.204-6.535-.18-1.045-1.13-6.257-.29-7.202a.738.738 0 0 1 .403-.257c.371-.1.753.12.859.515.068.255-.006.35-.095.572-.062.14-.08.444-.09.595a8.678 8.678 0 0 1 2.295-.987c1.855-.497 3.798-.198 4.364 1.912.391 1.46-.334 3.02-1.105 4.221 1.76-.198 3.128.454 3.612 2.263Zm-1.392.372c-.36-1.344-1.49-1.39-2.65-1.079-.277.075-1.03.326-1.237.48-.454.346-.95 1-1.529 1.156-.394.106-.823-.102-.934-.52-.18-.672.613-1.233 1.103-1.538.133-.06.335-.14.456-.246.207-.155.4-.455.571-.65.81-.963 2.073-2.742 1.713-4.087-.336-1.252-1.557-1.173-2.577-.9-.649.174-1.904.685-2.367 1.181a.61.61 0 0 1-.18.347c.4 4.092 1.318 8.442 2.194 12.456a.718.718 0 0 1 .465-.398.653.653 0 0 1 .432.034l.092-.025c1.016-.198 2.6-1.89 3.227-2.703.7-.908 1.538-2.325 1.221-3.508Zm12.736-12.755c.081.302-.042.583-.29.774-.901.713-5.771 1.919-7.196 2.35.279 1.69.656 3.378.988 5.078 1.441-.461 2.908-.83 4.345-1.214l2.11-.566a.74.74 0 0 1 .882.51c.1.37-.138.782-.51.881l-3.082.826c-1.136.305-2.325.598-3.46 1.002a429.12 429.12 0 0 0 1.128 5.412 42.028 42.028 0 0 0 1.699-.43c1.275-.341 2.752-.762 3.833-1.549.288-.226.546-.469.827-.718.103-.078.183-.149.3-.18a.748.748 0 0 1 .91.526c.075.278-.014.501-.209.702-1.396 1.468-3.341 2.088-5.242 2.598-.812.217-1.663.47-2.493.618-.453.072-.749-.197-.86-.614-.261-.974-.459-1.99-.68-2.999l-.881-4.31c-.326-1.677-.68-3.371-.982-5.055-.196.103-.616.39-.779.433a.707.707 0 0 1-.881-.51c-.081-.3.025-.553.243-.76.78-.706 4.038-1.53 5.121-1.845 1.014-.296 3.2-.857 4.052-1.383a.71.71 0 0 1 .196-.103.748.748 0 0 1 .911.526Zm8.67-5.428a.738.738 0 0 1-.51.881c-.394.106-.916.569-1.184.864-1.477 1.539-2.295 3.77-1.73 5.88.572 2.133 2.616 2.53 4.501 2.795.648.1 1.656.152 1.86.917.187.696-.83 3.85-1.04 4.553-.22.755-1.017 3.254-1.018 3.9-.004.448-.036.606-.475.823l-.046.013a.727.727 0 0 1-.888-.533c-.23-.857 1.688-6.59 2.017-8.143-2.69-.397-5.475-.869-6.302-3.952-.515-1.924-.119-3.968.889-5.68.617-1.034 1.838-2.505 3.044-2.828a.738.738 0 0 1 .881.51Zm18.977-1.284c.118.44.057.954-.453 1.09-.44.119-.848-.195-.913-.624-.707-.134-4.056.813-4.89 1.037l-.418.111.193.72c.92 3.43 1.345 6.968 2.265 10.4.111.416.372 1.39.657 1.711.223.09.365.25.428.482a.707.707 0 0 1-.51.882c-1.182.317-1.763-2.037-1.962-2.779-.913-3.408-1.362-6.94-2.275-10.347l-.18-.673c-.945.278-6.41 2.04-6.79 3.037-.106.252-.202.452-.503.532a.748.748 0 0 1-.911-.526c-.578-2.156 8.08-4.525 9.633-4.941a79.144 79.144 0 0 1 2.347-.604c.905-.243 2.979-.848 3.822-.204.247.182.385.418.46.696Zm20.993-6.346a.707.707 0 0 1-.51.882c-2.294.615-4.619 1.213-6.895 1.898a.79.79 0 0 1 .085.225c.13.487.24 1.452.337 1.997.22 1.382.465 2.758.71 4.134l4.098-1.397c.782-.234 1.551-.515 2.34-.726.37-.1.793.085.898.48.112.417-.069.763-.48.898-.66.227-1.355.413-2.015.64a162.432 162.432 0 0 0-4.579 1.55c.341 1.92.671 3.895 1.175 5.773.043.162.08.3.147.457.1.097.149.184.186.323.105.394-.145.759-.516.858-.88.236-1.067-.832-1.229-1.434-.484-1.809-.806-3.66-1.146-5.483-.017.03-.063.042-.086.049a.722.722 0 0 1-.882-.51c-.15-.556.248-.836.712-.96a243.359 243.359 0 0 1-.704-4.11c-.13-.76-.242-1.55-.394-2.305-.312.133-.972.36-1.165.66-.119.206-.233.336-.488.404a.697.697 0 0 1-.852-.492.738.738 0 0 1 .02-.478c.463-1.242 3.965-2.08 5.072-2.402.99-.29 1.987-.558 3.007-.83l2.272-.61a.74.74 0 0 1 .882.51Zm13.687 9.825c.1.37-.138.782-.509.881-1.6.43-3.222.864-4.79 1.408-.435.142-1.927.69-2.224 1.068-.131.16-.222.284-.43.34-.395.105-.77-.093-.883-.51-.298-1.113 2.342-2.019 3.048-2.257-.002-1.118-.373-2.783-.595-3.891a126.016 126.016 0 0 0-1.606-7.198c-.614.214-2.205.765-2.597 1.342-.142.212-.216.307-.471.375a.738.738 0 0 1-.882-.51c-.391-1.46 3.78-2.677 4.66-2.913.928-.248 2.272-.609 3.197-.682.366-.024.713.157.812.527.106.395-.132.806-.509.882l-.07.019c-.916.196-1.845.345-2.755.564.5 2.053.977 4.112 1.408 6.183.33 1.6.688 3.22.803 4.853 1.176-.34 2.33-.674 3.512-.99.37-.1.782.138.881.509Zm14.288-16.6c.118.44.057.954-.453 1.09-.44.119-.848-.195-.913-.624-.707-.134-4.056.813-4.89 1.037l-.418.111.193.72c.919 3.43 1.345 6.968 2.265 10.4.111.417.372 1.39.657 1.711.223.09.365.25.427.482a.707.707 0 0 1-.509.882c-1.182.317-1.763-2.037-1.962-2.779-.913-3.407-1.362-6.94-2.275-10.347l-.18-.673c-.945.278-6.41 2.041-6.79 3.037-.106.252-.202.452-.503.533a.748.748 0 0 1-.912-.527c-.577-2.155 8.08-4.525 9.634-4.941a81.64 81.64 0 0 1 2.347-.604c.904-.243 2.978-.848 3.822-.204.247.182.385.418.46.696Zm12.54-5.248.019.07c.678 3.271 1.448 6.792 2.317 10.037.093.348-.138.783-.509.882-.695.187-.886-.433-1.023-.943-.571-2.133-1.044-4.267-1.546-6.419-.231-.956-.57-2.406-.673-3.347a.707.707 0 0 1 .534-.79c.417-.111.776.116.881.51Zm4.547 16.596c.106.394-.121.753-.515.859-.997.267-1.512-1.93-1.853-3.206a.738.738 0 0 1 .509-.882c1.182-.316 1.029 1.986 1.744 2.987.042.063.09.15.115.242Z" fill="#B31937"/></svg>