<svg width="46" height="46" fill="none" xmlns="http://www.w3.org/2000/svg"><path d="M19.768 1.36c.296.08.578.297.824.695.248.402.441.963.554 1.662.224 1.396.112 3.248-.415 5.213-.526 1.966-1.355 3.626-2.248 4.723-.446.549-.895.938-1.31 1.162-.412.222-.765.27-1.06.19-.297-.08-.58-.297-.826-.695-.247-.402-.44-.963-.553-1.662-.225-1.396-.112-3.248.414-5.214.527-1.965 1.355-3.625 2.248-4.721.447-.55.895-.939 1.31-1.163.412-.222.766-.269 1.062-.19Zm18.433 9.8c.297.079.578.296.824.694.248.402.441.963.554 1.662.224 1.396.112 3.248-.414 5.213-.527 1.965-1.356 3.626-2.248 4.723-.447.548-.895.938-1.31 1.162-.413.222-.765.27-1.062.19-.296-.08-.579-.297-.825-.695-.247-.402-.44-.963-.553-1.662-.225-1.396-.112-3.249.414-5.214.527-1.965 1.355-3.625 2.248-4.722.447-.548.895-.938 1.31-1.162.412-.222.766-.27 1.062-.19Z" fill="#B31937" stroke="#B31937"/><path d="M1.454 26c3 11.833 15.9 29.6 43.5 6" stroke="#B31937" stroke-width="3"/></svg>