<svg width="393" height="121" fill="none" xmlns="http://www.w3.org/2000/svg"><path d="M0 77.92V46.08C0 16.96 13.6 0 35.52 0 58.88 0 71.2 19.84 71.2 42.88c0 4.32 0 4.8-1.44 4.8l-29.6 1.12c-1.44 0-2.88-1.28-2.88-3.2V35.52c0-2.24-1.28-3.04-2.56-3.04s-2.56 1.12-2.56 2.88v49.76c0 1.6 1.12 2.72 2.56 2.72 1.6 0 2.56-1.28 2.56-2.88V68.8c0-.96.64-2.4 1.92-2.24l30.24 1.12c.8 0 1.28.64 1.28 1.28 0 38.56-15.84 51.84-36 51.84C12.48 120.8 0 100.8 0 77.92Zm75.625 17.44V49.12c0-14.72 11.04-24.8 27.52-24.8s27.52 9.92 27.52 25.6v45.44c0 14.88-11.04 24.96-27.52 24.96-16.32 0-27.52-10.24-27.52-24.96Zm24.96-42.24V91.2c0 1.92.8 3.2 2.56 3.2s2.56-1.28 2.56-3.2V53.12c0-1.76-.96-3.2-2.56-3.2-1.76 0-2.56 1.44-2.56 3.2Zm58.731 67.2h-21.92c-.64 0-1.28-.64-1.28-1.6V25.44c0-.64.48-1.12 1.12-1.12h20c1.12 0 2.4 6.72 3.04 6.72.16 0 .48-.16 1.12-.96 2.88-3.68 5.76-5.76 12.48-5.76 7.84 0 15.68 6.08 15.68 16.96v78.24c0 .48-.32.8-.8.8h-22.08c-.64 0-1.12-.48-1.12-1.12V53.76c0-2.4-1.28-3.2-2.56-3.2s-2.56.8-2.56 3.2v65.6c0 .64-.32.96-1.12.96ZM198.2 95.2V50.88c0-.64-.32-1.12-.96-1.12-3.36 0-3.68 0-3.68-1.12V25.28c0-.48.32-.96.64-.96 3.68 0 4 0 4-1.12V9.12c0-.64.48-1.12 1.12-1.12h23.04c1.6 0 1.6.32 1.6 1.44v13.44c0 .96.48 1.44 1.28 1.44 4.96 0 5.44 0 5.44 1.12v23.2c0 .64-.48 1.12-1.12 1.12-4.96 0-5.6 0-5.6 1.28v42.08c0 .64.48 1.28.96 1.28 5.6 0 6.24 0 6.24.96 0 9.12 0 24.96-16.32 24.96-9.6 0-16.64-5.92-16.64-25.12Zm60-37.44-21.28-1.12c-1.12 0-1.12-.8-1.12-8.32 0-12.64 9.76-24 26.4-24 17.6 0 27.36 11.04 27.36 23.52V91.2c0 1.28.48 1.28 4 1.28.64 0 1.12.64 1.12 1.28v9.92c0 7.84-6.88 17.12-15.84 17.12-7.36 0-10.24-2.4-12.64-6.08-.8-1.12-1.28-1.44-1.6-1.44-.16 0-.8.32-1.76 1.6-1.76 2.4-5.6 5.44-11.2 5.44-6.72 0-16.64-5.6-16.64-21.6V86.88c0-12.64 8.48-19.36 17.28-23.04 11.68-4.96 12.32-6.72 12.32-12.32 0-2.24-.96-3.36-2.4-3.36-2.56 0-2.56.96-2.56 8.32 0 .8-.64 1.28-1.44 1.28Zm6.4 36.96V79.2c0-.64-.32-1.12-.96-1.28-.96 0-4.16 1.44-4.16 4.96v11.84c0 1.92 1.28 2.72 2.56 2.72s2.56-.8 2.56-2.72Zm33.056-4.96V52c0-14.08 9.6-27.68 26.56-27.68s27.36 14.72 27.36 29.28c0 7.68 0 8.64-1.92 8.8l-20.96 1.12c-1.12.16-1.92-.96-1.92-1.92V49.76c0-1.92-1.28-3.2-2.56-3.2-1.12 0-2.56 1.28-2.56 3.2v42.56c0 1.92 1.44 3.2 2.72 3.2 1.12 0 2.4-1.28 2.4-3.2V82.08c0-.96.64-1.6 1.76-1.6l21.28 1.12c1.12.16 1.76.96 1.76 1.92 0 10.88 0 36.8-28 36.8-15.36 0-25.92-12-25.92-30.56Zm61.638 5.44V50.88c0-.64-.32-1.12-.96-1.12-3.36 0-3.68 0-3.68-1.12V25.28c0-.48.32-.96.64-.96 3.68 0 4 0 4-1.12V9.12c0-.64.48-1.12 1.12-1.12h23.04c1.6 0 1.6.32 1.6 1.44v13.44c0 .96.48 1.44 1.28 1.44 4.96 0 5.44 0 5.44 1.12v23.2c0 .64-.48 1.12-1.12 1.12-4.96 0-5.6 0-5.6 1.28v42.08c0 .64.48 1.28.96 1.28 5.6 0 6.24 0 6.24.96 0 9.12 0 24.96-16.32 24.96-9.6 0-16.64-5.92-16.64-25.12Z" fill="#B31937"/></svg>