<svg width="340" height="125" fill="none" xmlns="http://www.w3.org/2000/svg"><path d="M31.84 6.08 40 56.16c.16.8.64 1.28.8 1.28.32 0 .8-.48.8-1.28l6.72-49.6c.32-1.12.96-2.08 1.92-2.08h27.52c.96 0 1.6.96 1.44 2.08l-22.24 116c-.16 1.12-.96 1.92-2.08 1.92h-31.2c-.96 0-1.76-1.12-1.92-1.92L.16 6.24C0 5.44.32 4.48 1.28 4.48h28.64c.96 0 1.76.48 1.92 1.6Zm44.466 93.44V53.28c0-14.72 11.04-24.8 27.52-24.8s27.52 9.92 27.52 25.6v45.44c0 14.88-11.04 24.96-27.52 24.96-16.32 0-27.52-10.24-27.52-24.96Zm24.96-42.24v38.08c0 1.92.8 3.2 2.56 3.2s2.56-1.28 2.56-3.2V57.28c0-1.76-.96-3.2-2.56-3.2-1.76 0-2.56 1.44-2.56 3.2Zm61.452-27.2v93.12c0 .64-.48 1.28-1.12 1.28h-23.52c-.64 0-1.28-.8-1.28-1.44V30.4c0-1.12.64-1.92 1.6-1.92h22.72c.96 0 1.6.8 1.6 1.6Zm-1.6-28.8v20.48c0 .96-.64 1.76-1.6 1.76h-19.52c-.8 0-1.6-.96-1.6-1.92V1.76c0-.8.8-1.76 1.6-1.76h19.68c.64 0 1.44.48 1.44 1.28Zm7.063 92.64V56.16c0-14.08 9.6-27.68 26.56-27.68s27.36 14.72 27.36 29.28c0 7.68 0 8.64-1.92 8.8l-20.96 1.12c-1.12.16-1.92-.96-1.92-1.92V53.92c0-1.92-1.28-3.2-2.56-3.2-1.12 0-2.56 1.28-2.56 3.2v42.56c0 1.92 1.44 3.2 2.72 3.2 1.12 0 2.4-1.28 2.4-3.2V86.24c0-.96.64-1.6 1.76-1.6l21.28 1.12c1.12.16 1.76.96 1.76 1.92 0 10.88 0 36.8-28 36.8-15.36 0-25.92-12-25.92-30.56Zm58.438.16V54.4c0-18.88 14.56-25.92 27.52-25.92 18.08 0 28.48 13.92 28.48 29.6v9.76c0 .8-.64 1.44-1.44 1.44h-26.72c-.64 0-.96.48-.96 1.28v25.12c0 2.56 1.12 3.52 2.56 3.52 1.12 0 2.56-.96 2.56-3.36v-9.76c0-.64.48-1.28 1.44-1.28l20.64 1.12c.96.16 1.6.8 1.6 1.76v10.24c0 20.48-14.08 26.56-28.8 26.56-17.12 0-26.88-12.16-26.88-30.4Zm26.88-42.24v8c0 .48.48.8.96.8 3.68 0 4.16 0 4.16-.8 0-10.24-.16-11.36-2.72-11.36-1.28 0-2.4.96-2.4 3.36Zm83.989 8.8-19.04 1.12c-.8.16-1.28-.48-1.28-1.44 0-4.96-1.12-7.52-3.52-7.52-1.28 0-2.4 1.12-2.4 2.88 0 3.36 4.8 8.16 13.6 16.16 9.44 8.32 13.44 15.2 13.44 25.44 0 13.76-6.88 27.2-26.4 27.2-10.72 0-25.12-5.92-25.12-32.8 0-.8.48-1.44 1.12-1.44l17.44-1.12c.64 0 1.12.48 1.28 1.12.32 5.76 2.24 9.28 4.64 9.28 1.44 0 2.24-1.12 2.24-2.72 0-3.84-6.08-9.92-15.04-17.44-6.56-5.28-12.32-13.92-12.32-25.92 0-14.24 11.36-24.96 25.6-24.96 19.2 0 27.36 14.88 27.36 30.72 0 .8-.8 1.44-1.6 1.44Z" fill="#fff"/></svg>