<svg width="120" height="176" fill="none" xmlns="http://www.w3.org/2000/svg"><path d="M2.08 0h115.68c1.12 0 2.24.8 2.24 1.92v57.6c0 1.12-.8 1.92-1.76 1.92H90.4c-1.12 0-2.08-.96-2.08-2.08V33.44c0-.96-.64-1.76-1.76-1.76h-9.6c-.8 0-1.44.48-1.44 1.6v12.16c0 .8-.8 1.76-1.6 1.76H44.96c-.96 0-1.76-.8-1.76-1.92v-12c0-.8-1.12-1.6-2.08-1.6H2.24C.8 31.68 0 30.88 0 29.6V1.76C0 .96.96 0 2.08 0ZM0 95.987v-26.72c0-1.12 1.12-2.08 2.4-2.08h116c.8 0 1.6.64 1.6 1.44v27.36c0 1.12-.64 1.92-1.6 1.92H2.08c-.96 0-2.08-.8-2.08-1.92Zm0 57.188v-27.2c0-1.12.96-2.24 2.24-2.24h83.52c1.12 0 1.92-.96 1.92-2.08v-16c0-.96 1.28-2.08 2.24-2.08h28.48c.96 0 1.6.48 1.6 1.44v68.48c0 1.12-.64 2.08-1.92 2.08H89.92c-1.28 0-2.24-.96-2.24-2.24v-16c0-1.12-.8-1.92-2.24-1.92H2.08c-1.12 0-2.08-.96-2.08-2.24Z" fill="#B3193F"/></svg>