<svg width="121" height="226" fill="none" xmlns="http://www.w3.org/2000/svg"><path d="M.32 49.6V22.4c0-1.12.96-2.24 2.24-2.24h83.52c1.12 0 1.92-.96 1.92-2.08v-16C88 1.12 89.28 0 90.24 0h28.48c.96 0 1.6.48 1.6 1.44v68.48c0 1.12-.64 2.08-1.92 2.08H90.24c-1.28 0-2.24-.96-2.24-2.24v-16c0-1.12-.8-1.92-2.24-1.92H2.4c-1.12 0-2.08-.96-2.08-2.24Zm120 29.835v35.68c0 14.08-10.88 30.88-30.4 30.88-8.64 0-24.48-1.6-26.72-16.8h-.32c-5.6 19.52-16 19.52-32.32 19.52-1.92 0-3.84.8-5.28 4.32-.48.8-1.6 1.44-2.24 1.44-21.76 0-23.04-16-23.04-21.28 0-11.52 8-19.2 23.04-19.2h24.64c5.12 0 7.68-2.24 7.68-4 0-.96-.8-1.12-1.92-1.12H2.24c-.96 0-1.92-.8-1.92-1.92v-27.36c0-1.12.8-1.92 2.08-1.92h116c1.12 0 1.92.8 1.92 1.76Zm-35.04 29.44H70.56c-1.12 0-1.44.32-1.44 1.12 0 3.84 4.48 3.84 11.84 3.84 3.68 0 5.76-2.24 5.76-3.68 0-.8-.48-1.28-1.44-1.28Zm-34.56 57.014 68.32-20.32c.48-.16 1.28.16 1.28.96v29.12c0 .8-.48 1.44-1.6 1.76l-33.12 7.68c-.8.16-1.28.64-1.28.8 0 .32.48.8 1.28.8l32.64 7.36c1.12.32 2.08.96 2.08 1.92v27.84c0 .96-.96 1.6-1.92 1.28l-67.36-20.96c-2.24-.64-6.72-1.44-8.48-1.44H2.4c-1.12-.16-2.08-.96-2.08-2.24v-31.2c0-.96 1.12-1.76 1.92-1.92h40.64c2.4 0 4.32-.32 7.84-1.44Z" fill="#B31937" fill-opacity=".1"/></svg>