<svg width="423" height="123" fill="none" xmlns="http://www.w3.org/2000/svg"><path d="M23.68 2.4h31.2c1.12 0 1.92.96 2.08 2.08l21.92 114.4c.32 1.76-.48 3.52-2.24 3.52H50.72c-.96 0-1.92-.64-2.08-1.6l-3.2-24c-.16-.8-.8-1.28-1.6-1.28H35.2c-.64 0-1.28.64-1.44 1.6l-3.04 23.52c-.16 1.12-1.28 1.76-2.08 1.76H2.24c-1.44 0-2.24-1.12-1.92-2.72L21.76 4.32c.16-.8.96-1.92 1.92-1.92Zm19.2 75.68L40.8 62.72c-.32-2.24-.64-3.68-1.12-3.68-.48 0-.8 1.12-1.12 3.68l-2.08 15.2c-.16.8.16 1.6.96 1.6 5.12 0 5.6 0 5.44-1.44Zm60.99 44.32H83.71c-.64 0-1.44-.64-1.44-1.44V1.28c0-.8.64-1.28 1.44-1.28h20.8c.8 0 1.44.8 1.44 1.6v28c0 .96.32 1.28.48 1.28.32 0 .64-.32 1.44-1.12 2.4-2.4 5.44-3.36 9.12-3.36 8.16 0 18.24 6.4 18.24 30.72v33.44c0 26.24-9.12 31.84-17.12 31.84-3.68 0-7.04-1.12-9.44-2.88-.96-.8-1.44-1.12-1.76-1.12-.8 0-2.4 4-3.04 4Zm2.08-66.56v38.24c0 1.44.48 2.4 1.28 3.04.32.48 1.12.8 1.76.8 2.08 0 2.08-2.08 2.08-3.04V54.72c0-1.6-.64-3.04-2.08-3.04-1.76 0-3.04 1.76-3.04 4.16Zm33.954 41.6V51.2c0-14.72 11.04-24.8 27.52-24.8s27.52 9.92 27.52 25.6v45.44c0 14.88-11.04 24.96-27.52 24.96-16.32 0-27.52-10.24-27.52-24.96Zm24.96-42.24v38.08c0 1.92.8 3.2 2.56 3.2s2.56-1.28 2.56-3.2V55.2c0-1.76-.96-3.2-2.56-3.2-1.76 0-2.56 1.44-2.56 3.2Zm35.531 50.56V28c0-.96.48-1.6 1.28-1.6h20.16c.8 0 1.28.48 1.28 1.28V88.8c0 2.4 1.44 3.2 2.56 3.2 1.28 0 2.56-.8 2.56-3.2V27.68c0-.8.48-1.28 1.12-1.28h20.8c.8 0 1.44.48 1.44 1.12v93.76c0 .64-.48 1.12-1.28 1.12h-18.88c-.96 0-1.92-5.6-2.88-5.6-.32 0-.8.32-1.76 1.28-2.88 2.72-5.6 4.32-11.36 4.32-6.56 0-15.04-5.44-15.04-16.64Zm59.897-8.48V52.96c0-.64-.32-1.12-.96-1.12-3.36 0-3.68 0-3.68-1.12V27.36c0-.48.32-.96.64-.96 3.68 0 4 0 4-1.12V11.2c0-.64.48-1.12 1.12-1.12h23.04c1.6 0 1.6.32 1.6 1.44v13.44c0 .96.48 1.44 1.28 1.44 4.96 0 5.44 0 5.44 1.12v23.2c0 .64-.48 1.12-1.12 1.12-4.96 0-5.6 0-5.6 1.28V95.2c0 .64.48 1.28.96 1.28 5.6 0 6.24 0 6.24.96 0 9.12 0 24.96-16.32 24.96-9.6 0-16.64-5.92-16.64-25.12Zm53.697 8.48V28c0-.96.48-1.6 1.28-1.6h20.16c.8 0 1.28.48 1.28 1.28V88.8c0 2.4 1.44 3.2 2.56 3.2 1.28 0 2.56-.8 2.56-3.2V27.68c0-.8.48-1.28 1.12-1.28h20.8c.8 0 1.44.48 1.44 1.12v93.76c0 .64-.48 1.12-1.28 1.12h-18.88c-.96 0-1.92-5.6-2.88-5.6-.32 0-.8.32-1.76 1.28-2.88 2.72-5.6 4.32-11.36 4.32-6.56 0-15.04-5.44-15.04-16.64Zm107.096-47.2-19.04 1.12c-.8.16-1.28-.48-1.28-1.44 0-4.96-1.12-7.52-3.52-7.52-1.28 0-2.4 1.12-2.4 2.88 0 3.36 4.8 8.16 13.6 16.16 9.44 8.32 13.44 15.2 13.44 25.44 0 13.76-6.88 27.2-26.4 27.2-10.72 0-25.12-5.92-25.12-32.8 0-.8.48-1.44 1.12-1.44l17.44-1.12c.64 0 1.12.48 1.28 1.12.32 5.76 2.24 9.28 4.64 9.28 1.44 0 2.24-1.12 2.24-2.72 0-3.84-6.08-9.92-15.04-17.44-6.56-5.28-12.32-13.92-12.32-25.92 0-14.24 11.36-24.96 25.6-24.96 19.2 0 27.36 14.88 27.36 30.72 0 .8-.8 1.44-1.6 1.44Z" fill="#B31937"/></svg>