<svg width="121" height="443" fill="none" xmlns="http://www.w3.org/2000/svg"><path d="M42.88 0h31.84c29.12 0 46.08 13.6 46.08 35.52 0 23.36-19.84 35.68-42.88 35.68-4.32 0-4.8 0-4.8-1.44L72 40.16c0-1.44 1.28-2.88 3.2-2.88h10.08c2.24 0 3.04-1.28 3.04-2.56s-1.12-2.56-2.88-2.56H35.68c-1.6 0-2.72 1.12-2.72 2.56 0 1.6 1.28 2.56 2.88 2.56H52c.96 0 2.4.64 2.24 1.92l-1.12 30.24c0 .8-.64 1.28-1.28 1.28C13.28 70.72 0 54.88 0 34.72 0 12.48 20 0 42.88 0Zm-40 76.585h116c.96 0 1.6.64 1.6 1.6v26.88c0 .96-.48 1.44-1.28 1.44H77.28c-.64 0-1.12.48-1.12 1.12v3.2c0 .8.64 1.44 1.12 1.44h41.76c.8 0 1.44.48 1.44 1.28v27.04c0 .96-.64 1.6-1.44 1.6H2.24c-.8 0-1.76-.48-1.76-1.28v-27.2c0-.8.96-1.44 1.76-1.44H44c.64 0 1.28-.32 1.28-.96v-3.68c0-.8-.64-1.12-1.28-1.12H2.08c-.8 0-1.6-.64-1.6-1.44v-26.4c0-1.12 1.12-2.08 2.4-2.08Zm117.6 92.191v31.2c0 1.12-.96 1.92-2.08 2.08L4 223.976c-1.76.32-3.52-.48-3.52-2.24v-25.92c0-.96.64-1.92 1.6-2.08l24-3.2c.8-.16 1.28-.8 1.28-1.6v-8.64c0-.64-.64-1.28-1.6-1.44l-23.52-3.04c-1.12-.16-1.76-1.28-1.76-2.08v-26.4c0-1.44 1.12-2.24 2.72-1.92l115.36 21.44c.8.16 1.92.96 1.92 1.92Zm-75.68 19.2 15.36-2.08c2.24-.32 3.68-.64 3.68-1.12 0-.48-1.12-.8-3.68-1.12l-15.2-2.08c-.8-.16-1.6.16-1.6.96 0 5.12 0 5.6 1.44 5.44Zm-42.08 39.39H118.4c1.12 0 2.08.8 2.08 1.76v27.04c0 1.12-.64 1.92-1.92 2.24l-36 9.6c-1.28.32-1.92.8-1.92 1.12 0 .48.64.96 2.08.96h35.68c1.12 0 2.08.8 2.08 1.92v24c0 1.28-1.12 2.08-2.24 2.08H2.56c-1.12 0-2.08-.64-2.08-1.76v-29.92c0-.64.64-1.6 1.6-1.76l28.8-7.04c1.6-.32 2.24-.96 2.24-1.44s-.64-.8-2.24-.8H2.56c-1.12 0-2.08-.96-2.08-2.08v-24.32c0-.96.96-1.6 2.24-1.6Zm37.92 113.348h17.6c1.76 0 2.24 1.76 2.24 2.72v32.48c0 1.12-.96 2.08-1.92 2.08h-18.4c-.64 0-1.28-.16-1.28-.64v-2.72c0-.96-.8-1.12-1.92-1.12-15.52 0-36.96-9.28-36.96-33.92 0-23.52 16.64-36 52.16-36h18.72c29.76 0 49.92 9.76 49.92 36.64 0 6.24 0 33.28-44.8 33.28-1.12 0-2.08-.48-2.08-1.6l-1.28-28.96c0-1.12 1.12-2.24 2.72-2.24h9.12c1.44 0 1.76-1.28 1.76-2.56 0-1.44-1.12-2.56-3.68-2.56h-44c-4.96 0-7.04 1.6-7.04 3.68 0 1.76.96 3.52 4.8 3.52h2.4c.48 0 .96-.16.96-.64v-.8c0-.32.32-.64.96-.64Zm-38.08 41.34H118.4c.96 0 2.08.96 2.08 2.08v56.8c0 .96-.8 1.6-1.76 1.6h-28.8c-.96 0-1.6-.8-1.6-1.76v-26.72c0-.64-.48-1.12-1.12-1.12h-8.96c-.64 0-1.12.64-1.12 1.12v12.64c0 .64-.48 1.12-1.12 1.12H46.88c-.8 0-1.44-.64-1.44-1.28v-12.96c0-.64-.48-1.12-1.28-1.12h-9.44c-.64 0-1.12.48-1.12.96v27.68c0 1.12-.8 1.76-1.6 1.76H2.24c-.96 0-1.76-.8-1.76-1.76v-57.28c0-.96.96-1.76 2.08-1.76Z" fill="#B31937" fill-opacity=".1"/></svg>