<svg width="91" height="235" fill="none" xmlns="http://www.w3.org/2000/svg"><path d="m61.8 50.64-.84-18.36c0-.72.36-1.2 1.32-1.44 2.88-.72 4.32-1.92 4.32-3.6 0-1.2-.96-1.8-2.16-1.8-3.84 0-8.16 5.64-13.08 12.84-5.28 7.8-13.92 13.68-22.8 13.68-16.08 0-28.92-9.6-28.92-25.32C-.36 8.4 12.84 0 32.04 0c.6 0 1.2.48 1.2 1.44L34.08 18c0 .84-.48 1.32-1.56 1.44-4.8.48-9.96 2.52-9.96 5.4 0 1.68 1.08 2.76 3.84 2.76 2.88 0 8.16-6.72 14.64-14.76s15.48-12 23.64-12c12.24 0 25.56 9.12 25.56 25.2s-12.6 26.04-26.88 26.04c-.84 0-1.56-.48-1.56-1.44ZM.96 84.71l23.88-4.56c.6-.12.84-.36.84-.6s-.36-.36-.96-.36H1.56c-.72 0-1.56-.72-1.56-1.56V57.59c0-.72.84-1.44 1.8-1.44h87c.6 0 1.2.48 1.2 1.08v20.4c0 .96-.48 1.56-1.2 1.56H67.92c-.48 0-.84.12-.84.36s.24.48.84.72l21 4.68c.6.24 1.08.72 1.08 1.32v21.12c0 .48-.36.84-.96.84-.24 0-.48 0-.72-.12L48.6 92.87c-.48-.24-1.32-.36-1.56-.36s-.96.12-1.32.24L1.2 108.47c-.72.24-1.2 0-1.2-.72V85.67c0-.48.36-.84.96-.96ZM0 132.945v-20.04c0-.84.84-1.56 1.8-1.56h87c.6 0 1.2.48 1.2 1.08v20.52c0 .84-.48 1.44-1.2 1.44H1.56c-.72 0-1.56-.6-1.56-1.44Zm24.84 30.05v20.52c0 .84-.6 1.32-1.2 1.32H1.32c-.72 0-1.32-.6-1.32-1.32v-42.96c0-.72.72-1.32 1.56-1.32h86.76c.72 0 1.68.72 1.68 1.56v20.28c0 .72-.6 1.2-1.32 1.2h-63c-.48 0-.84.36-.84.72Zm0 49.922v20.52c0 .84-.6 1.32-1.2 1.32H1.32c-.72 0-1.32-.6-1.32-1.32v-42.96c0-.72.72-1.32 1.56-1.32h86.76c.72 0 1.68.72 1.68 1.56v20.28c0 .72-.6 1.2-1.32 1.2h-63c-.48 0-.84.36-.84.72Z" fill="#B31937"/></svg>