<svg width="642" height="149" fill="none" xmlns="http://www.w3.org/2000/svg"><path d="M0 122.72V6.4c0-1.12.64-1.92 1.76-1.92h29.76c20.8 0 32.64 15.52 32.64 28.8 0 9.6-.16 24.32-16.32 29.28v.32c10.08 3.68 16.8 14.4 16.8 26.88 0 8.16-.16 34.72-33.28 34.72H1.6c-1.12 0-1.6-.8-1.6-1.76Zm28.64-93.6V49.6c0 .64.48 1.12 1.12 1.12 2.24 0 4.64-1.44 4.64-4.64V32.32c0-2.88-2.72-4.16-4.64-4.16-.64 0-1.12.32-1.12.96Zm0 46.88v23.36c0 .64.32 1.12 1.12 1.12 2.56 0 4.8-1.92 4.8-4.64v-16.8c0-2.72-2.4-4.32-4.96-4.32-.64 0-.96.48-.96 1.28Zm66.157 48.48h-23.36c-.64 0-1.28-.8-1.28-1.44V4c0-1.44.64-1.92 1.76-1.92h22.56c1.12 0 1.6.48 1.6 1.44V123.2c0 .64-.64 1.28-1.28 1.28Zm6.744-24.96V53.28c0-14.72 11.04-24.8 27.52-24.8s27.52 9.92 27.52 25.6v45.44c0 14.88-11.04 24.96-27.52 24.96-16.32 0-27.52-10.24-27.52-24.96Zm24.96-42.24v38.08c0 1.92.8 3.2 2.56 3.2s2.56-1.28 2.56-3.2V57.28c0-1.76-.96-3.2-2.56-3.2-1.76 0-2.56 1.44-2.56 3.2Zm34.571 17.92V50.88c0-13.28 9.76-22.4 23.68-22.4 4.64 0 8.48.8 11.2 2.4.96-1.76 5.28-7.04 8.8-7.04 4 0 8.32 8.32 8.32 9.28 0 1.6-7.36 4.16-8.32 5.12 1.92 2.56 3.36 7.68 3.36 13.28v23.84c0 13.28-9.6 22.4-23.36 22.4-1.92 0-4.96-.32-6.56-.8-.64 1.12-.96 1.92-.96 2.56 0 1.92 2.08 3.04 8.64 4 17.12 2.4 24.64 8.64 24.64 23.68 0 14.08-10.72 21.28-24.64 21.28-17.92 0-25.92-9.28-25.92-18.4 0-5.44 2.08-9.44 5.12-11.68-2.24-1.92-3.84-5.6-3.84-10.88 0-5.76 4-12.48 7.84-15.36-4.32-3.68-8-10.56-8-16.96Zm20.96-20.64v17.76c0 2.08 1.12 3.2 2.72 3.2s2.4-1.12 2.4-3.2v-17.6c0-2.08-.96-3.2-2.4-3.2-1.6 0-2.72.96-2.72 3.04Zm6.4 69.92c-3.84-.16-8.64-.8-11.68-1.6-.64.48-.96 1.44-.96 2.24 0 4.32 7.36 4.48 8.64 4.48 2.72 0 6.4-.64 6.4-3.36 0-.96-.8-1.76-2.4-1.76Zm109.9-30.88 10.4 19.84c.16.48.32.96.32 1.28 0 1.76-8.48 9.76-17.6 9.76-6.4 0-10.24-4.16-12.8-8.32-.48-.8-1.28-1.28-1.76-1.28s-1.28.32-2.24 1.44c-4.96 5.76-12 8.16-18.72 8.16-15.36 0-27.36-12.32-27.36-32.16 0-16.96 6.88-26.72 15.2-32.32 1.12-.8 1.76-1.6 1.76-2.24 0-.48-.16-1.6-.64-2.56-2.08-3.36-5.92-13.44-5.92-23.36 0-17.92 13.12-27.36 27.84-27.36 15.84 0 26.4 10.08 26.4 23.2 0 13.28-8.16 21.44-13.12 25.44-.8.64-1.28 1.92-1.28 2.56 0 .64.48 1.76.8 2.56l6.24 12.32c.32.8.96 1.28 1.44 1.28.32 0 1.12-.8 1.44-1.12l9.6-11.68c.32-.32.64-.48.96-.48.48 0 .96.32 1.44.8l8.64 12.48c.16.32.32.96.32 1.44 0 .64-.16 1.44-.64 1.92l-10.4 12.48c-.96 1.12-1.44 2.08-1.44 2.72 0 .64.48 1.92 1.12 3.2Zm-34.56-.48-7.52-15.52c-.16-.32-.32-.48-.64-.48-.8 0-2.08 2.24-2.08 4.48 0 3.36 3.52 13.44 7.84 13.44.48 0 3.2-.32 2.4-1.92Zm5.44-56.8c.16.32.48.32.64.32 1.12 0 2.56-2.88 2.56-5.76 0-2.4-1.12-3.84-2.72-3.84-1.44 0-2.4 1.6-2.4 3.52 0 1.76.96 4.32 1.92 5.76Zm88.644 88.16h-27.2c-.64 0-1.28-.8-1.28-1.44V6.08c0-.8.48-1.6 1.28-1.6h42.88c.8 0 1.44.64 1.6 1.6l4.8 31.84c.16 1.12.48 1.6.8 1.6.32 0 .64-.64.64-1.76l3.84-31.52c.16-.96.8-1.76 1.76-1.76h44.48c1.12 0 1.76.64 1.76 1.76v116.64c0 .96-.8 1.6-1.76 1.6h-28.96c-.96 0-1.76-.64-1.76-1.76V72.64c0-1.28-.16-1.76-.48-1.76-.32 0-.64.64-1.12 3.2l-8.32 49.12c-.16.96-.96 1.28-1.76 1.28h-18.08c-.8 0-1.44-.64-1.76-1.76l-7.36-45.76c-.48-2.72-1.12-3.2-1.6-3.2s-.8.8-.8 2.08v46.88c0 1.12-.48 1.76-1.6 1.76Zm80.872-24.96V53.28c0-14.72 11.04-24.8 27.52-24.8s27.52 9.92 27.52 25.6v45.44c0 14.88-11.04 24.96-27.52 24.96-16.32 0-27.52-10.24-27.52-24.96Zm24.96-42.24v38.08c0 1.92.8 3.2 2.56 3.2s2.56-1.28 2.56-3.2V57.28c0-1.76-.96-3.2-2.56-3.2-1.76 0-2.56 1.44-2.56 3.2Zm47.532 65.76-15.2-93.44c-.16-.64.16-1.12.64-1.12h20.96c.64 0 1.12.48 1.28 1.12l3.84 28.64c.16.96.48 1.44.64 1.44.16 0 .48-.48.64-1.44l4.16-28.48c.16-.8.8-1.28 1.28-1.28h20.64c.64 0 1.12.64.96 1.44l-15.2 93.28c-.16.8-.64 1.28-1.28 1.28h-21.92c-.64 0-1.28-.48-1.44-1.44Zm68.92-92.96v93.12c0 .64-.48 1.28-1.12 1.28H555.5c-.64 0-1.28-.8-1.28-1.44V30.4c0-1.12.64-1.92 1.6-1.92h22.72c.96 0 1.6.8 1.6 1.6Zm-1.6-28.8v20.48c0 .96-.64 1.76-1.6 1.76h-19.52c-.8 0-1.6-.96-1.6-1.92V1.76c0-.8.8-1.76 1.6-1.76h19.68c.64 0 1.44.48 1.44 1.28Zm7.063 92.8V54.4c0-18.88 14.56-25.92 27.52-25.92 18.08 0 28.48 13.92 28.48 29.6v9.76c0 .8-.64 1.44-1.44 1.44h-26.72c-.64 0-.96.48-.96 1.28v25.12c0 2.56 1.12 3.52 2.56 3.52 1.12 0 2.56-.96 2.56-3.36v-9.76c0-.64.48-1.28 1.44-1.28l20.64 1.12c.96.16 1.6.8 1.6 1.76v10.24c0 20.48-14.08 26.56-28.8 26.56-17.12 0-26.88-12.16-26.88-30.4Zm26.88-42.24v8c0 .48.48.8.96.8 3.68 0 4.16 0 4.16-.8 0-10.24-.16-11.36-2.72-11.36-1.28 0-2.4.96-2.4 3.36Z" fill="#B31937"/></svg>