<svg width="121" height="491" fill="none" xmlns="http://www.w3.org/2000/svg"><path d="M120.48 1.92v25.44c0 1.12-.8 2.24-2.08 2.4l-37.92 3.52c-1.76.16-3.04.64-3.04 1.28s1.28 1.28 3.04 1.44l37.92 3.84c1.28.32 2.08.8 2.08 1.92v16.32c0 .8-.8 1.76-1.76 1.92l-38.24 4.16c-1.76.16-3.04.64-3.04 1.28s1.28 1.28 3.04 1.44l38.08 3.2c1.12.16 1.92.8 1.92 1.76v25.92c0 1.6-.96 2.08-2.24 1.92L2.88 84.8c-1.6-.16-2.4-1.12-2.4-2.08V59.36c0-.96.8-1.76 1.76-1.92l38.72-6.08c1.44-.16 2.56-.64 2.56-1.28s-1.28-1.12-2.72-1.28L2.4 43.2c-1.12-.32-1.92-.8-1.92-1.76V17.76c0-1.12.96-2.08 2.08-2.24L118.4.16c1.44-.16 2.08.64 2.08 1.76ZM2.88 102.891h116c.96 0 1.6.64 1.6 1.6v26.88c0 .96-.48 1.44-1.28 1.44H77.28c-.64 0-1.12.48-1.12 1.12v3.2c0 .8.64 1.44 1.12 1.44h41.76c.8 0 1.44.48 1.44 1.28v27.04c0 .96-.64 1.6-1.44 1.6H2.24c-.8 0-1.76-.48-1.76-1.28v-27.2c0-.8.96-1.44 1.76-1.44H44c.64 0 1.28-.32 1.28-.96v-3.68c0-.8-.64-1.12-1.28-1.12H2.08c-.8 0-1.6-.64-1.6-1.44v-26.4c0-1.12 1.12-2.08 2.4-2.08Zm117.6 92.192v31.2c0 1.12-.96 1.92-2.08 2.08L4 250.283c-1.76.32-3.52-.48-3.52-2.24v-25.92c0-.96.64-1.92 1.6-2.08l24-3.2c.8-.16 1.28-.8 1.28-1.6v-8.64c0-.64-.64-1.28-1.6-1.44l-23.52-3.04c-1.12-.16-1.76-1.28-1.76-2.08v-26.4c0-1.44 1.12-2.24 2.72-1.92l115.36 21.44c.8.16 1.92.96 1.92 1.92Zm-75.68 19.2 15.36-2.08c2.24-.32 3.68-.64 3.68-1.12 0-.48-1.12-.8-3.68-1.12l-15.2-2.08c-.8-.16-1.6.16-1.6.96 0 5.12 0 5.6 1.44 5.44ZM.48 290.91v-27.2c0-1.12.96-2.24 2.24-2.24h83.52c1.12 0 1.92-.96 1.92-2.08v-16c0-.96 1.28-2.08 2.24-2.08h28.48c.96 0 1.6.48 1.6 1.44v68.48c0 1.12-.64 2.08-1.92 2.08H90.4c-1.28 0-2.24-.96-2.24-2.24v-16c0-1.12-.8-1.92-2.24-1.92H2.56c-1.12 0-2.08-.96-2.08-2.24Zm120 31.595v19.84c0 .96-.96 1.6-1.76 1.6l-27.04-2.56c-.64 0-.96-.64-.96-1.28v-15.2c0-.64.48-1.44 1.12-1.44l26.88-2.56c.64 0 1.76.8 1.76 1.6Zm-37.6 96.321-1.12-24.48c0-.96.48-1.6 1.76-1.92 3.84-.96 5.76-2.56 5.76-4.8 0-1.6-1.28-2.4-2.88-2.4-5.12 0-10.88 7.52-17.44 17.12-7.04 10.4-18.56 18.24-30.4 18.24-21.44 0-38.56-12.8-38.56-33.76 0-24.32 17.6-35.52 43.2-35.52.8 0 1.6.64 1.6 1.92l1.12 22.08c0 1.12-.64 1.76-2.08 1.92-6.4.64-13.28 3.36-13.28 7.2 0 2.24 1.44 3.68 5.12 3.68 3.84 0 10.88-8.96 19.52-19.68 8.64-10.72 20.64-16 31.52-16 16.32 0 34.08 12.16 34.08 33.6s-16.8 34.72-35.84 34.72c-1.12 0-2.08-.64-2.08-1.92Zm-1.12 29.747 1.12-24c0-.96.8-1.6 1.6-1.6 21.12 0 36 13.92 36 34.4 0 20.96-15.2 33.12-36 33.12-10.4 0-21.12-5.76-29.92-15.04-7.84-8.16-17.76-12-22.72-12.64-1.92-.16-2.56-1.28-2.56-2.24v-20c0-1.12 1.44-2.24 2.72-2.24 12.64 0 24.8 2.4 33.44 9.44 9.28 7.52 15.04 10.24 19.04 10.24 2.56 0 4.32-.96 4.32-2.72 0-2.24-2.4-3.68-5.12-4.32-1.44-.32-2.08-1.28-1.92-2.4Zm-59.04 13.28H2.24c-.96 0-1.76-.8-1.76-1.76v-19.52c0-.8.96-1.6 1.92-1.6h19.84c.8 0 1.76.96 1.76 1.6v19.68c0 .8-.48 1.6-1.28 1.6Z" fill="#fff"/></svg>