<svg width="91" height="392" fill="none" xmlns="http://www.w3.org/2000/svg"><path d="m61.8 50.64-.84-18.36c0-.72.36-1.2 1.32-1.44 2.88-.72 4.32-1.92 4.32-3.6 0-1.2-.96-1.8-2.16-1.8-3.84 0-8.16 5.64-13.08 12.84-5.28 7.8-13.92 13.68-22.8 13.68-16.08 0-28.92-9.6-28.92-25.32C-.36 8.4 12.84 0 32.04 0c.6 0 1.2.48 1.2 1.44L34.08 18c0 .84-.48 1.32-1.56 1.44-4.8.48-9.96 2.52-9.96 5.4 0 1.68 1.08 2.76 3.84 2.76 2.88 0 8.16-6.72 14.64-14.76s15.48-12 23.64-12c12.24 0 25.56 9.12 25.56 25.2s-12.6 26.04-26.88 26.04c-.84 0-1.56-.48-1.56-1.44ZM1.56 56.15h86.88c.72 0 1.56.72 1.56 1.56v42.6c0 .72-.6 1.2-1.32 1.2h-21.6c-.72 0-1.2-.6-1.2-1.32V80.15a.82.82 0 0 0-.84-.84h-6.72c-.48 0-.84.48-.84.84v9.48c0 .48-.36.84-.84.84H34.8c-.6 0-1.08-.48-1.08-.96v-9.72c0-.48-.36-.84-.96-.84h-7.08c-.48 0-.84.36-.84.72v20.76c0 .84-.6 1.32-1.2 1.32H1.32c-.72 0-1.32-.6-1.32-1.32V57.47c0-.72.72-1.32 1.56-1.32ZM0 127.901v-20.4c0-.48.6-.96 1.08-.96H88.8c.6 0 1.2.36 1.2.96v32.16c0 .6-.48 1.08-1.2 1.2l-23.88 3.6c-.84.12-1.2.36-1.2.6s.48.48 1.32.48l23.64 2.88c.72.12 1.32.6 1.32 1.32v33.36c0 .84-.48 1.32-1.32 1.32H1.2c-.72 0-1.2-.6-1.2-1.32v-21.72c0-.72.48-1.32 1.32-1.32h37.56c.96 0 1.32-.12 1.32-.36s-.48-.48-2.4-.84l-36.84-6.24c-.72-.12-.96-.72-.96-1.32v-13.56c0-.6.48-1.08 1.32-1.32l34.32-5.52c2.04-.36 2.4-.84 2.4-1.2s-.6-.6-1.56-.6H1.32c-.84 0-1.32-.36-1.32-1.2Zm0 82.974v-20.04c0-.84.84-1.56 1.8-1.56h87c.6 0 1.2.48 1.2 1.08v20.52c0 .84-.48 1.44-1.2 1.44H1.56c-.72 0-1.56-.6-1.56-1.44Zm1.68 6.291h86.76c.84 0 1.56.6 1.56 1.32v20.28c0 .84-.48 1.44-1.44 1.68l-27 7.2c-.96.24-1.44.6-1.44.84 0 .36.48.72 1.56.72h26.76c.84 0 1.56.6 1.56 1.44v18c0 .96-.84 1.56-1.68 1.56H1.56c-.84 0-1.56-.48-1.56-1.32v-22.44c0-.48.48-1.2 1.2-1.32l21.6-5.28c1.2-.24 1.68-.72 1.68-1.08 0-.36-.48-.6-1.68-.6H1.56c-.84 0-1.56-.72-1.56-1.56v-18.24c0-.72.72-1.2 1.68-1.2ZM90 290.176v23.4c0 .84-.72 1.44-1.56 1.56l-85.8 16.44c-1.32.24-2.64-.36-2.64-1.68v-19.44c0-.72.48-1.44 1.2-1.56l18-2.4c.6-.12.96-.6.96-1.2v-6.48c0-.48-.48-.96-1.2-1.08l-17.64-2.28c-.84-.12-1.32-.96-1.32-1.56v-19.8c0-1.08.84-1.68 2.04-1.44l86.52 16.08c.6.12 1.44.72 1.44 1.44Zm-56.76 14.4 11.52-1.56c1.68-.24 2.76-.48 2.76-.84s-.84-.6-2.76-.84l-11.4-1.56c-.6-.12-1.2.12-1.2.72 0 3.84 0 4.2 1.08 4.08ZM90 335.439v26.76c0 10.56-8.16 23.16-22.8 23.16-6.48 0-18.36-1.2-20.04-12.6h-.24c-4.2 14.64-12 14.64-24.24 14.64-1.44 0-2.88.6-3.96 3.24-.36.6-1.2 1.08-1.68 1.08-16.32 0-17.28-12-17.28-15.96 0-8.64 6-14.4 17.28-14.4h18.48c3.84 0 5.76-1.68 5.76-3 0-.72-.6-.84-1.44-.84H1.44c-.72 0-1.44-.6-1.44-1.44v-20.52c0-.84.6-1.44 1.56-1.44h87c.84 0 1.44.6 1.44 1.32Zm-26.28 22.08H52.68c-.84 0-1.08.24-1.08.84 0 2.88 3.36 2.88 8.88 2.88 2.76 0 4.32-1.68 4.32-2.76 0-.6-.36-.96-1.08-.96Z" fill="#B31937"/></svg>