<svg width="91" height="352" fill="none" xmlns="http://www.w3.org/2000/svg"><path d="m61.8 50.64-.84-18.36c0-.72.36-1.2 1.32-1.44 2.88-.72 4.32-1.92 4.32-3.6 0-1.2-.96-1.8-2.16-1.8-3.84 0-8.16 5.64-13.08 12.84-5.28 7.8-13.92 13.68-22.8 13.68-16.08 0-28.92-9.6-28.92-25.32C-.36 8.4 12.84 0 32.04 0c.6 0 1.2.48 1.2 1.44L34.08 18c0 .84-.48 1.32-1.56 1.44-4.8.48-9.96 2.52-9.96 5.4 0 1.68 1.08 2.76 3.84 2.76 2.88 0 8.16-6.72 14.64-14.76s15.48-12 23.64-12c12.24 0 25.56 9.12 25.56 25.2s-12.6 26.04-26.88 26.04c-.84 0-1.56-.48-1.56-1.44ZM2.16 56.15h85.8c1.2 0 2.04.6 2.04 1.68v27.96c0 5.52-3.96 23.28-26.64 23.28-11.16 0-22.2-9.96-22.2-21.48 0-5.88 0-6.48-1.44-6.48H1.68c-.96 0-1.68-.72-1.68-2.04v-21c0-1.08.96-1.92 2.16-1.92Zm64.2 24.96h-9.72c-.48 0-1.32.36-1.32 1.2 0 1.8 1.56 2.52 3.96 2.52h4.92c1.92 0 3.24-.96 3.24-2.52 0-.36 0-.6-.12-.84s-.6-.36-.96-.36Zm-64.8 30.938h86.88c.72 0 1.56.72 1.56 1.56v42.6c0 .72-.6 1.2-1.32 1.2h-21.6c-.72 0-1.2-.6-1.2-1.32v-20.04a.82.82 0 0 0-.84-.84h-6.72c-.48 0-.84.48-.84.84v9.48c0 .48-.36.84-.84.84H34.8c-.6 0-1.08-.48-1.08-.96v-9.72c0-.48-.36-.84-.96-.84h-7.08c-.48 0-.84.36-.84.72v20.76c0 .84-.6 1.32-1.2 1.32H1.32c-.72 0-1.32-.6-1.32-1.32v-42.96c0-.72.72-1.32 1.56-1.32Zm30.24 49.671h23.88c21.84 0 34.56 10.2 34.56 26.64 0 17.52-14.88 26.76-32.16 26.76-3.24 0-3.6 0-3.6-1.08l-.84-22.2c0-1.08.96-2.16 2.4-2.16h7.56c1.68 0 2.28-.96 2.28-1.92s-.84-1.92-2.16-1.92H26.4c-1.2 0-2.04.84-2.04 1.92 0 1.2.96 1.92 2.16 1.92h12.12c.72 0 1.8.48 1.68 1.44l-.84 22.68c0 .6-.48.96-.96.96-28.92 0-38.88-11.88-38.88-27 0-16.68 15-26.04 32.16-26.04ZM0 240.758v-20.04c0-.84.84-1.56 1.8-1.56h87c.6 0 1.2.48 1.2 1.08v20.52c0 .84-.48 1.44-1.2 1.44H1.56c-.72 0-1.56-.6-1.56-1.44Zm90 21.41v23.4c0 .84-.72 1.44-1.56 1.56l-85.8 16.44c-1.32.24-2.64-.36-2.64-1.68v-19.44c0-.72.48-1.44 1.2-1.56l18-2.4c.6-.12.96-.6.96-1.2v-6.48c0-.48-.48-.96-1.2-1.08l-17.64-2.28c-.84-.12-1.32-.96-1.32-1.56v-19.8c0-1.08.84-1.68 2.04-1.44l86.52 16.08c.6.12 1.44.72 1.44 1.44Zm-56.76 14.4 11.52-1.56c1.68-.24 2.76-.48 2.76-.84s-.84-.6-2.76-.84l-11.4-1.56c-.6-.12-1.2.12-1.2.72 0 3.84 0 4.2 1.08 4.08Zm-8.4 53.303v20.52c0 .84-.6 1.32-1.2 1.32H1.32c-.72 0-1.32-.6-1.32-1.32v-42.96c0-.72.72-1.32 1.56-1.32h86.76c.72 0 1.68.72 1.68 1.56v20.28c0 .72-.6 1.2-1.32 1.2h-63c-.48 0-.84.36-.84.72Z" fill="#fff"/></svg>