<svg width="91" height="344" fill="none" xmlns="http://www.w3.org/2000/svg"><path d="M2.16 0h85.8C89.16 0 90 .6 90 1.68v27.96c0 5.52-3.96 23.28-26.64 23.28-11.16 0-22.2-9.96-22.2-21.48 0-5.88 0-6.48-1.44-6.48H1.68c-.96 0-1.68-.72-1.68-2.04v-21C0 .84.96 0 2.16 0Zm64.2 24.96h-9.72c-.48 0-1.32.36-1.32 1.2 0 1.8 1.56 2.52 3.96 2.52h4.92c1.92 0 3.24-.96 3.24-2.52 0-.36 0-.6-.12-.84s-.6-.36-.96-.36ZM90 57.218v26.76c0 10.56-8.16 23.16-22.8 23.16-6.48 0-18.36-1.2-20.04-12.6h-.24c-4.2 14.64-12 14.64-24.24 14.64-1.44 0-2.88.6-3.96 3.24-.36.6-1.2 1.08-1.68 1.08-16.32 0-17.28-12-17.28-15.96 0-8.64 6-14.4 17.28-14.4h18.48c3.84 0 5.76-1.68 5.76-3 0-.72-.6-.84-1.44-.84H1.44c-.72 0-1.44-.6-1.44-1.44v-20.52c0-.84.6-1.44 1.56-1.44h87c.84 0 1.44.6 1.44 1.32Zm-26.28 22.08H52.68c-.84 0-1.08.24-1.08.84 0 2.88 3.36 2.88 8.88 2.88 2.76 0 4.32-1.68 4.32-2.76 0-.6-.36-.96-1.08-.96Zm-36.6 36.583h35.52c18.6 0 27.6 11.64 27.6 24.96s-9 24.96-27.6 24.96H27.12c-18.48 0-27.48-11.76-27.48-24.96 0-13.2 8.88-24.96 27.48-24.96Zm35.16 23.04h-34.8c-1.8 0-3.12.6-3.12 1.92 0 1.32 1.32 1.92 3.12 1.92h34.8c1.56 0 3.24-.6 3.24-1.92 0-1.32-1.56-1.92-3.24-1.92Zm-60.72 31h86.76c.84 0 1.68.6 1.68 1.44v43.2c0 .84-.6 1.44-1.32 1.44H67.8c-.84 0-1.56-.72-1.56-1.56v-19.44c0-.72-.48-1.32-1.32-1.32h-7.2c-.6 0-1.08.36-1.08 1.2v9.12c0 .6-.6 1.32-1.2 1.32H33.72c-.72 0-1.32-.6-1.32-1.44v-9c0-.6-.84-1.2-1.56-1.2H1.68c-1.08 0-1.68-.6-1.68-1.56v-20.88c0-.6.72-1.32 1.56-1.32ZM0 241.912v-20.04c0-.84.84-1.56 1.8-1.56h87c.6 0 1.2.48 1.2 1.08v20.52c0 .84-.48 1.44-1.2 1.44H1.56c-.72 0-1.56-.6-1.56-1.44Zm24.84 30.051v20.52c0 .84-.6 1.32-1.2 1.32H1.32c-.72 0-1.32-.6-1.32-1.32v-42.96c0-.72.72-1.32 1.56-1.32h86.76c.72 0 1.68.72 1.68 1.56v20.28c0 .72-.6 1.2-1.32 1.2h-63c-.48 0-.84.36-.84.72ZM1.56 298.125h86.88c.72 0 1.56.72 1.56 1.56v42.6c0 .72-.6 1.2-1.32 1.2h-21.6c-.72 0-1.2-.6-1.2-1.32v-20.04a.82.82 0 0 0-.84-.84h-6.72c-.48 0-.84.48-.84.84v9.48c0 .48-.36.84-.84.84H34.8c-.6 0-1.08-.48-1.08-.96v-9.72c0-.48-.36-.84-.96-.84h-7.08c-.48 0-.84.36-.84.72v20.76c0 .84-.6 1.32-1.2 1.32H1.32c-.72 0-1.32-.6-1.32-1.32v-42.96c0-.72.72-1.32 1.56-1.32Z" fill="#B31937"/></svg>