<svg width="91" height="556" fill="none" xmlns="http://www.w3.org/2000/svg"><path d="M31.8 0h23.88c21.84 0 34.56 10.2 34.56 26.64 0 17.52-14.88 26.76-32.16 26.76-3.24 0-3.6 0-3.6-1.08l-.84-22.2c0-1.08.96-2.16 2.4-2.16h7.56c1.68 0 2.28-.96 2.28-1.92s-.84-1.92-2.16-1.92H26.4c-1.2 0-2.04.84-2.04 1.92 0 1.2.96 1.92 2.16 1.92h12.12c.72 0 1.8.48 1.68 1.44l-.84 22.68c0 .6-.48.96-.96.96-28.92 0-38.88-11.88-38.88-27C-.36 9.36 14.64 0 31.8 0ZM90 58.64v20.4c0 .72-.48 1.32-1.32 1.32H27.72c-1.56 0-2.64.6-2.64 2.04s1.08 2.04 2.52 2.04h61.2c.6 0 1.2.6 1.2 1.32v20.279c0 .6-.36 1.32-1.2 1.32H24.48c-12.72 0-24.48-9.12-24.48-24.96 0-15.96 11.88-24.96 24.48-24.96h64.2c.84 0 1.32.48 1.32 1.2Zm0 54.846v26.76c0 10.56-8.16 23.16-22.8 23.16-6.48 0-18.36-1.2-20.04-12.6h-.24c-4.2 14.64-12 14.64-24.24 14.64-1.44 0-2.88.6-3.96 3.24-.36.6-1.2 1.08-1.68 1.08-16.32 0-17.28-12-17.28-15.96 0-8.64 6-14.4 17.28-14.4h18.48c3.84 0 5.76-1.68 5.76-3 0-.72-.6-.84-1.44-.84H1.44c-.72 0-1.44-.6-1.44-1.44v-20.52c0-.84.6-1.44 1.56-1.44h87c.84 0 1.44.6 1.44 1.32Zm-26.28 22.08H52.68c-.84 0-1.08.24-1.08.84 0 2.88 3.36 2.88 8.88 2.88 2.76 0 4.32-1.68 4.32-2.76 0-.6-.36-.96-1.08-.96ZM90 174.189v26.76c0 10.56-8.16 23.16-22.8 23.16-6.48 0-18.36-1.2-20.04-12.6h-.24c-4.2 14.64-12 14.64-24.24 14.64-1.44 0-2.88.6-3.96 3.24-.36.6-1.2 1.08-1.68 1.08-16.32 0-17.28-12-17.28-15.96 0-8.64 6-14.4 17.28-14.4h18.48c3.84 0 5.76-1.68 5.76-3 0-.72-.6-.84-1.44-.84H1.44c-.72 0-1.44-.6-1.44-1.44v-20.52c0-.84.6-1.44 1.56-1.44h87c.84 0 1.44.6 1.44 1.32Zm-26.28 22.08H52.68c-.84 0-1.08.24-1.08.84 0 2.88 3.36 2.88 8.88 2.88 2.76 0 4.32-1.68 4.32-2.76 0-.6-.36-.96-1.08-.96ZM0 255.172v-20.04c0-.84.84-1.56 1.8-1.56h87c.6 0 1.2.48 1.2 1.08v20.52c0 .84-.48 1.44-1.2 1.44H1.56c-.72 0-1.56-.6-1.56-1.44Zm31.8 5.57h23.88c21.84 0 34.56 10.201 34.56 26.641 0 17.52-14.88 26.76-32.16 26.76-3.24 0-3.6 0-3.6-1.081l-.84-22.2c0-1.08.96-2.16 2.4-2.16h7.56c1.68 0 2.28-.96 2.28-1.92s-.84-1.92-2.16-1.92H26.4c-1.2 0-2.04.84-2.04 1.92 0 1.2.96 1.92 2.16 1.92h12.12c.72 0 1.8.48 1.68 1.44l-.84 22.68c0 .6-.48.961-.96.961C9.6 313.782-.36 301.902-.36 286.782c0-16.68 15-26.04 32.16-26.04ZM90 319.381v20.4c0 .72-.48 1.32-1.32 1.32H27.72c-1.56 0-2.64.6-2.64 2.04s1.08 2.04 2.52 2.04h61.2c.6 0 1.2.6 1.2 1.32v20.28c0 .6-.36 1.32-1.2 1.32H24.48c-12.72 0-24.48-9.12-24.48-24.96 0-15.96 11.88-24.96 24.48-24.96h64.2c.84 0 1.32.48 1.32 1.2Zm-65.16 77.287v20.52c0 .84-.6 1.32-1.2 1.32H1.32c-.72 0-1.32-.6-1.32-1.32v-42.96c0-.72.72-1.32 1.56-1.32h86.76c.72 0 1.68.72 1.68 1.56v20.28c0 .72-.6 1.2-1.32 1.2h-63c-.48 0-.84.36-.84.72ZM90 424.03v20.4c0 .72-.48 1.32-1.32 1.32H27.72c-1.56 0-2.64.6-2.64 2.04s1.08 2.04 2.52 2.04h61.2c.6 0 1.2.6 1.2 1.32v20.28c0 .6-.36 1.32-1.2 1.32H24.48C11.76 472.75 0 463.63 0 447.79c0-15.96 11.88-24.96 24.48-24.96h64.2c.84 0 1.32.48 1.32 1.2ZM0 498.916v-20.4c0-.48.6-.96 1.08-.96H88.8c.6 0 1.2.36 1.2.96v32.16c0 .6-.48 1.08-1.2 1.2l-23.88 3.6c-.84.12-1.2.36-1.2.6s.48.48 1.32.48l23.64 2.88c.72.12 1.32.6 1.32 1.32v33.36c0 .84-.48 1.32-1.32 1.32H1.2c-.72 0-1.2-.6-1.2-1.32v-21.72c0-.72.48-1.32 1.32-1.32h37.56c.96 0 1.32-.12 1.32-.36s-.48-.48-2.4-.84l-36.84-6.24c-.72-.12-.96-.72-.96-1.32v-13.56c0-.6.48-1.08 1.32-1.32l34.32-5.52c2.04-.36 2.4-.84 2.4-1.2s-.6-.6-1.56-.6H1.32c-.84 0-1.32-.36-1.32-1.2Z" fill="#fff"/></svg>