<svg width="530" height="243" fill="none" xmlns="http://www.w3.org/2000/svg"><g clip-path="url(#a)"><path d="M153.291 21.993s10.443-11.236 12.249-11.985c1.763-.749 14.805-.749 17.846-.529 3.04.265 2.908 2.424.352 6.874-3.04 5.376-13.307 22.384-13.307 22.384l-17.14-16.744Zm170.478 45.208 45.869-46s.573-17.494 1.586-20.446c.485-1.498 11.765.308 13.263 1.322 2.908 1.939 14.056 22.516 14.056 22.516l-20.269 55.915-54.505-13.307Zm-10.089 80.018v27.583s-9.121 5.552-8.724 15.378c.352 8.768 6.962 15.95 15.818 16.787 8.857.838 17.846-5.331 18.066-15.377.22-9.87-6.169-14.188-6.169-14.188v-26.967l-18.991-3.216Zm63.935 9.87.22 7.402s-6.389 4.715-5.552 13.351c.838 8.636 6.786 13.571 15.026 13.571 8.239 0 14.408-5.551 14.188-15.642-.176-9.253-9.87-13.968-9.87-13.968l-14.012-4.714Zm61.996 18.638s-.22 19.564 1.234 20.577c1.454 1.014 7.623.617 7.623.617s-9.474 4.539-8.637 14.805c.705 8.857 6.169 14.805 16.876 14.805s17.052-5.948 16.876-15.862c-.22-11.721-11.721-14.629-11.721-14.629s4.539-.22 4.539-1.234c0-1.013-.22-19.74-.22-19.74l-26.57.661Zm-232.563-27.715c-16.348 1.101-22.296 10.795-22.296 19.343s0 18.947 12.293 27.143c13.307 8.856 31.373 17.889 48.337 23.749 16.127 5.552 37.365 1.366 37.101-23.749-.177-14.012 1.718-30.007-17.978-33.135-13.086-2.071-30.271-11.413-30.271-11.413l-27.186-1.938Z" fill="#fff"/><path d="M264.593 168.281c-5.552-.177-10.839 8.063-11.324 19.872-.485 12.822 2.247 24.675 9.826 24.675 7.535 0 10.839-13.351 10.839-23.926-.044-10.311-1.806-20.357-9.341-20.621Z" fill="#E0F3F9"/><path d="M95.703 33.978c-2.027.309-5.552 4.583-4.583 8.152.97 3.569 6.257 19.52 53.008 48.116 46.75 28.597 103.899 47.632 136.593 56.268 32.695 8.636 91.21 23.617 145.671 29.962 54.461 6.345 103.018 7.711 104.825-9.517 1.806-17.229-27.672-34.501-27.672-34.501l-4.097-6.786s0-8.636-12.25-19.079C474.949 96.15 446.793 83.901 385.105 69.36c-61.731-14.54-163.824-33.575-206.477-36.307-42.652-2.732-78.21.22-82.925.925Z" fill="#fff"/><path d="M105.837 38.825c3.172 2.908 16.964 4.098 45.516 7.182 28.553 3.085 47.632 5.244 47.632 3.481 0-2.688-22.164-15.29-30.932-20.18-8.724-4.891-68.385-94.603-70.456-95.131-2.07-.53-20.577-3.878-22.12-2.071-1.541 1.806 27.275 103.899 30.36 106.719Zm-5.156 6.169c-3.084 0-86.67 10.266-92.31 10.795-5.64.529-8.24 3.349-7.976 6.169.265 2.82 3.349 4.626 14.937 4.626 11.589 0 102.093-3.349 105.178-3.613 3.084-.264 5.904-7.446-2.336-11.809-8.239-4.362-17.493-6.168-17.493-6.168ZM35.513 156.956c3.525.794 77.858-7.402 101.344-11.235 40.934-6.698 72.967-15.114 75.567-18.11 2.071-2.38 4.715-8.989 9.782-8.989s24.983 3.481 44.635 6.654c26.614 4.318 52.038 10.971 55.96 12.91 3.921 1.939 5.463 12.514-11.369 15.642-16.831 3.128-77.109 14.1-125.225 19.564s-152.236 17.272-164.75 7.446c-5.464-4.318-8.592-38.422-5.64-41.374.397-.397 11.941-.617 15.114.44 1.321.441 4.582 17.052 4.582 17.052Zm180.26-109.803c-3.569 3.26.221 7.05 12.47 9.517 12.249 2.468 56.973 11.104 85.085 16.568 28.156 5.463 84.423 17.933 90.989 19.079 6.565 1.145 10.002-.926 10.663-3.613.661-2.732-2.027-5.684-16.127-8.637-12.646-2.643-45.164-10.222-83.763-17.713-38.599-7.49-78.079-14.76-83.983-15.642-5.772-.925-12.602-2.071-15.334.44Zm208.592 45.604c-.661 4.406 2.159 6.345 10.663 8.857 10.707 3.172 15.202 3.04 16.568-1.146 1.586-4.758-4.406-7.535-12.47-10.002-8.196-2.467-14.1-2.247-14.761 2.291Z" fill="#fff"/><path d="M464.064 131.136c-4.097-.221-7.49 1.586-7.49 4.979s1.586 6.345 7.27 7.49c5.684 1.146 19.96 2.732 31.329-.66 11.368-3.393 11.676-8.505 11.676-8.505s-1.718-2.291-3.305-4.626c-1.454-2.115-4.186-5.244-4.186-5.244s-4.846 4.98-14.144 6.125c-9.341 1.102-17.052.661-21.15.441ZM161.355 67.73c-4.582-.264-5.728 3.701-5.728 7.006 0 3.304.573 7.843 4.979 8.151 4.406.265 5.993-3.569 5.993-7.006 0-3.436-.353-7.887-5.244-8.151Zm31.284 10.002c-3.304-.132-5.728 1.983-5.992 7.138-.264 5.155 1.718 8.02 5.287 8.416 3.57.44 5.993-3.128 5.993-8.151 0-4.275-1.41-7.27-5.288-7.403Zm29.743 7.27c-3.437-.132-5.288 3.702-5.288 7.27 0 3.305.837 7.712 5.155 8.02 3.437.22 6.125-2.996 5.993-7.579-.176-4.582-1.718-7.578-5.86-7.71Zm99.977 22.12c-4.582-.265-5.728 3.701-5.728 7.006 0 3.304.573 7.843 4.979 8.151 4.407.265 5.993-3.569 5.993-7.006 0-3.437-.397-7.843-5.244-8.151Zm33.4 7.358c-3.305-.132-5.728 1.983-5.993 7.138-.264 5.156 1.719 8.02 5.288 8.416 3.569.397 5.992-3.128 5.992-8.151 0-4.274-1.41-7.227-5.287-7.403Zm33.575 8.813c-3.436-.133-5.287 3.701-5.287 7.27 0 3.305.837 7.711 5.155 8.019 3.437.221 6.125-2.996 5.993-7.578-.132-4.583-1.719-7.579-5.861-7.711ZM254.283 92.625c-4.583-.264-5.728 3.701-5.728 7.006s.573 7.843 4.979 8.152c4.406.264 5.992-3.569 5.992-7.006 0-3.437-.396-7.888-5.243-8.152Zm32.871 6.61c-3.437-.133-5.288 3.701-5.288 7.27 0 3.305.837 7.711 5.155 8.019 3.437.221 6.125-2.996 5.993-7.579-.132-4.582-1.719-7.578-5.86-7.71Z" fill="#E0F3F9"/></g><defs><clipPath id="a"><path fill="#fff" d="M0 0h530v243H0z"/></clipPath></defs></svg>