<svg width="343" height="235" fill="none" xmlns="http://www.w3.org/2000/svg"><g clip-path="url(#a)"><path d="M333.646 148.759v-15.302h-49.863v-27.854H267.74V83.304l-32.08-11.155V10.812h-10.693v61.337l-32.08 11.155v22.299h-16.043V62.761L123.383-.344 69.916 62.761v42.397L.406 121.709v128.885h294.07v-78.259c0-2.965 1.922-5.389 4.272-5.389h2.139c2.349 0 4.283 2.43 4.283 5.389v78.259h16.043v-78.259c0-2.965 1.922-5.389 4.271-5.389h2.139c2.35 0 4.283 2.43 4.283 5.389v78.259h10.688V148.759h-8.948ZM51.198 222.711c0 3.057-2.412 5.578-5.35 5.578H29.813c-2.949 0-5.35-2.515-5.35-5.578v-11.155c0-3.068 2.401-5.578 5.35-5.578h16.043c2.937 0 5.349 2.504 5.349 5.578l-.006 11.155Zm0-44.61c0 3.057-2.412 5.578-5.35 5.578H29.813c-2.949 0-5.35-2.515-5.35-5.578v-11.155c0-3.068 2.401-5.578 5.35-5.578h16.043c2.937 0 5.349 2.504 5.349 5.578l-.006 11.155Zm109.609 44.61c0 3.057-2.413 5.578-5.35 5.578h-64.16c-2.949 0-5.35-2.515-5.35-5.578v-11.155c0-3.068 2.401-5.578 5.35-5.578h64.16c2.937 0 5.35 2.504 5.35 5.578v11.155Zm0-44.61c0 3.057-2.413 5.578-5.35 5.578h-64.16c-2.949 0-5.35-2.515-5.35-5.578v-11.155c0-3.068 2.401-5.578 5.35-5.578h64.16c2.937 0 5.35 2.504 5.35 5.578v11.155Zm0-44.61c0 3.057-2.413 5.578-5.35 5.578h-64.16c-2.949 0-5.35-2.515-5.35-5.578v-11.155c0-3.068 2.401-5.577 5.35-5.577h64.16c2.937 0 5.35 2.503 5.35 5.577v11.155Zm0-44.61c0 3.058-2.413 5.578-5.35 5.578h-64.16c-2.949 0-5.35-2.515-5.35-5.577V77.726c0-3.068 2.401-5.577 5.35-5.577h64.16c2.937 0 5.35 2.503 5.35 5.577v11.156Zm61.485 144.985c0 3.057-2.412 5.572-5.35 5.572H200.9c-2.949 0-5.35-2.509-5.35-5.572v-11.155c0-3.068 2.401-5.577 5.35-5.577h16.042c2.938 0 5.35 2.503 5.35 5.577v11.155Zm0-89.219c0 3.057-2.412 5.572-5.35 5.572H200.9c-2.949 0-5.35-2.51-5.35-5.572v-11.156c0-3.068 2.401-5.577 5.35-5.577h16.042c2.938 0 5.35 2.503 5.35 5.577v11.156Zm42.773 89.219c0 3.057-2.412 5.572-5.349 5.572h-16.043c-2.948 0-5.349-2.509-5.349-5.572v-11.155c0-3.068 2.401-5.577 5.349-5.577h16.043c2.937 0 5.349 2.503 5.349 5.577v11.155Zm0-44.609c0 3.057-2.412 5.572-5.349 5.572h-16.043c-2.948 0-5.349-2.51-5.349-5.572v-11.156c0-3.068 2.401-5.577 5.349-5.577h16.043c2.937 0 5.349 2.503 5.349 5.577v11.156Z" fill="#E58917" fill-opacity=".2"/></g><defs><clipPath id="a"><path fill="#fff" d="M0 0h343v235H0z"/></clipPath></defs></svg>