<svg width="114" height="24" fill="none" xmlns="http://www.w3.org/2000/svg"><path d="M18.528 7.584c0 1.32-.576 5.76-1.104 6.864a.7.7 0 0 1-.672.456c-.24 0-.456-.096-.576-.312-.528-.024-1.056-.024-1.608-.024-1.584 0-3.168.048-4.752.096-.048 1.776-.12 3.528-.288 5.304-.072.864-.144 1.824-.36 2.664-.096.336-.36.576-.72.576-.384 0-.72-.36-.72-.72 0-.048.024-.096.024-.144.456-2.496.528-5.088.6-7.632-2.232.072-4.464.144-6.672.336a.702.702 0 0 1-.648.456c-.24 0-.408-.096-.576-.264C0 14.832.048 12.024.048 11.496v-.216c0-1.248.048-2.496.144-3.744.024-.312.048-.696.12-1.008.072-.36.336-.624.72-.624.384 0 .696.312.696.72 0 .216-.048.456-.072.696 2.256-.312 4.536-.432 6.816-.528.024-1.368.048-2.76.096-4.128.048-.672.048-1.416.192-2.064.072-.36.336-.6.72-.6.384 0 .696.312.696.696v.12c-.288 1.92-.216 3.984-.264 5.928 1.296-.048 2.592-.072 3.888-.072.984 0 3.216-.024 4.128.192.36.072.6.336.6.72Zm-1.464.624c-1.032-.096-2.088-.096-3.144-.096-1.32 0-2.664.024-4.008.072l-.072 5.04c2.16-.072 4.32-.144 6.48-.072.384-1.608.624-3.288.744-4.944Zm-8.592.024c-1.368.072-2.76.144-4.128.264-.936.072-1.872.144-2.784.312a41.679 41.679 0 0 0-.072 2.448c0 .768.024 1.56.072 2.352 2.28-.192 4.56-.264 6.84-.336l.072-5.04Zm35.256 11.832c0 .408-.336.72-.72.696h-.048a133.087 133.087 0 0 0-5.376-.096c-2.784 0-5.568.048-8.376.168-2.04.072-4.104.168-6.12.528-.048 0-.072.024-.12.024a.738.738 0 0 1-.72-.72c0-.384.264-.6.6-.696.6-.168 1.968-.24 2.616-.288 1.968-.168 3.912-.24 5.88-.312.192-1.392.216-2.832.24-4.248.072-2.088.096-4.2.096-6.312 0-1.8-.072-3.624-.072-5.448 0-.384.288-.744.696-.744.432 0 .648.288.72.696.072.408.024 1.248.048 1.704.024 1.368.024 2.76.024 4.128 1.752-.288 3.6-.264 5.376-.288.36 0 .696-.024 1.056-.024.384 0 .72.336.72.72 0 .456-.288.672-.696.72-.336.048-.72.024-1.056.024-1.608.024-3.864-.024-5.4.288 0 2.856 0 5.928-.288 8.76a266.37 266.37 0 0 1 6.216-.096c.912 0 1.824.024 2.736.048.408 0 .912-.024 1.296.048.384.072.672.288.672.72Zm24.648.528c0 .384-.36.648-.72.648-1.704 0-4.368-2.664-5.52-3.816-.48.768-2.424 3.816-3.408 3.816a.687.687 0 0 1-.672-.672c0-.24.096-.408.288-.552 1.2-.984 2.04-2.28 2.832-3.6-.36-.384-3.36-3.672-3.36-4.08a69.96 69.96 0 0 1-1.128 6.336c-.168.768-.336 1.536-.552 2.28-.096.312-.312.504-.648.504-.36 0-.672-.288-.672-.648 0-.072 0-.12.024-.168.336-1.296.648-2.568.888-3.888a.654.654 0 0 1-.6.408c-.48 0-2.472-.864-2.904-1.152-.216-.144-.336-.336-.336-.576 0-.36.336-.672.696-.672.12 0 .216.024.312.072.816.408 1.536.72 2.4.984.288.096.48.312.504.624.672-3.528 1.104-7.152 1.104-10.752 0-.792-.048-1.608-.096-2.4v-.072c-.024-.336.24-.6.576-.648v-.024h.048c2.088-.264 4.248-.288 6.336-.288.576 0 1.848-.168 1.848.72 0 .12-.024.216-.072.312-.36.696-.792 1.392-1.176 2.064a136.725 136.725 0 0 1-2.424 4.008 31.039 31.039 0 0 1 2.112-.072c.456 0 .936-.024 1.392.048.36.048.624.288.624.672 0 .504-2.76 5.448-3.192 6.216 1.032 1.08 3.36 3.432 4.872 3.696.36.048.624.288.624.672Zm-13.368-7.824c0 .384-.288.648-.672.648a.694.694 0 0 1-.672-.6c-.048-.336-.144-.624-.24-.936l-1.752.24a179.457 179.457 0 0 0-.264 9.504c0 .384-.288.696-.672.696-.672 0-.672-.6-.672-1.08 0-2.976.096-5.976.264-8.928-.768.096-1.536.216-2.28.36-.264.048-.504.144-.768.192-.048 0-.144.024-.192.024a.687.687 0 0 1-.672-.672c0-.192.072-.336.192-.48.408-.48.84-.96 1.272-1.416a398.827 398.827 0 0 0 3.048-3.528 19.043 19.043 0 0 0-2.352-.144c-.192 0-.408.024-.6.024-.384 0-.696-.288-.696-.672 0-.12.048-.216.096-.336.216-.456 3.432-4.368 3.816-4.68.144-.096.288-.168.456-.168.36 0 .672.312.672.696 0 .216-.096.36-.24.504-.384.384-.72.792-1.056 1.224a70.68 70.68 0 0 0-1.704 2.064c.672.048 2.472.168 3.048.36a.67.67 0 0 1 .48.648c0 .144-.048.24-.12.36-.288.504-.792 1.008-1.176 1.44a158.914 158.914 0 0 1-2.616 3.048c1.344-.216 2.664-.384 4.008-.576-.096-.264-.36-.864-.36-1.104 0-.36.288-.672.648-.672.312 0 .528.168.648.432.264.528 1.128 3.024 1.128 3.528Zm-5.4 2.088a.714.714 0 0 1-.192.48c-.912.984-1.8 1.968-2.592 3.048-.144.192-.336.312-.576.312-.384 0-.672-.336-.672-.696 0-.144.024-.24.096-.36.312-.504.768-.984 1.152-1.44.504-.624 1.056-1.272 1.632-1.824a.67.67 0 0 1 .48-.192c.384 0 .672.288.672.672Zm14.712-4.224c-1.176 0-2.4.024-3.576.24-.048 0-.096.024-.144.024a.692.692 0 0 1-.696-.672c0-.144.048-.264.12-.384.336-.576.72-1.128 1.08-1.68.936-1.488 1.848-3 2.712-4.536-1.872 0-3.768.024-5.616.192.048.648.072 1.32.072 1.968 0 2.04-.168 4.104-.408 6.144.072-.24.36-.408.6-.408s.384.096.528.264c.312.336.576.744.864 1.104a63.41 63.41 0 0 0 2.04 2.304c.864-1.488 1.656-3.024 2.424-4.56Zm25.176-2.376c0 .408-.336.696-.72.696-1.944 0-3.912.072-5.856.168a120.22 120.22 0 0 1-1.632 2.016c.096.096.168.216.216.336 1.872-.288 3.84-.384 5.736-.384.552 0 1.224-.024 1.224.744v.096c-.168 1.104-.168 2.256-.216 3.384-.072 1.608-.096 3.24-.288 4.824a.664.664 0 0 1 .504.624.697.697 0 0 1-.696.696c-1.848 0-3.696.048-5.544.216-.432.024-.864.12-1.296.168h-.12c-.36 0-.552-.144-.696-.456-.192-.432-.192-2.808-.192-3.36 0-1.824.048-3.648.144-5.472-1.632 1.872-3.336 3.672-5.16 5.352-.816.768-1.656 1.536-2.568 2.184a.719.719 0 0 1-.432.144.697.697 0 0 1-.696-.696c0-.24.096-.408.264-.552.672-.552 1.344-1.08 1.992-1.656 2.76-2.448 5.28-5.232 7.584-8.112-1.968.12-4.68.216-6.576.696-.072.024-.168.024-.24.024-.384 0-.72-.288-.72-.672 0-.336.192-.552.48-.672.792-.36 4.152-.6 5.088-.648 0-1.344.096-2.664.168-4.008-.744.048-1.488.096-2.232.168-.288.024-.624.096-.912.12h-.168a.697.697 0 0 1-.696-.696c0-.36.24-.576.552-.672.672-.192 2.808-.288 3.576-.336.024-.576-.048-1.584.768-1.584.384 0 .696.288.696.672 0 .264-.048.552-.072.816 1.488-.072 2.976-.168 4.464-.168.384 0 .72.288.72.696s-.336.696-.72.696c-1.512 0-3.048.12-4.56.192a74.64 74.64 0 0 0-.192 4.008 41.669 41.669 0 0 1 1.728-.096c.624-.816.912-1.08 1.464-1.92.24-.336.432-.72.672-1.056.144-.216.336-.336.6-.336.384 0 .696.312.696.696 0 .504-1.296 2.04-1.632 2.52 1.584-.048 3.192-.096 4.776-.096.384 0 .72.288.72.696ZM87 12.504c-1.632.024-4.008.096-5.568.408l-.096 2.832c1.8-.312 3.696-.504 5.52-.504A52.21 52.21 0 0 1 87 12.504Zm-.192 4.128c-1.704.024-3.84.216-5.496.528v1.008c0 .744 0 1.488.048 2.208 1.728-.216 3.48-.264 5.208-.288.168-1.128.192-2.304.24-3.456Zm27.096-6.36c0 1.992.096 10.008-1.416 11.448-.264.24-.552.408-.912.408-.696 0-2.736-.624-3.312-1.032-.24-.168-.384-.312-.384-.624 0-.36.336-.672.696-.672.12 0 .24.024.336.072.696.312 1.848.792 2.592.84.792-.912.84-5.304.936-6.48-.648-.024-1.32-.024-1.968-.024-1.704 0-3.408.024-5.112.072-.048 2.016-.12 4.008-.12 6.024 0 .408-.312.696-.72.696a.697.697 0 0 1-.696-.696c0-1.992.072-3.984.12-5.976-2.04.072-4.128.144-6.168.408-.096 1.944-.192 3.888-.192 5.832 0 .408.048.816.048 1.248a.682.682 0 0 1-.696.696c-.384 0-.624-.264-.696-.624-.096-.456-.048-1.008-.048-1.464 0-4.104.288-8.304.552-12.408.096-1.512.192-3.024.312-4.536.072-.744.072-1.56.216-2.304.072-.36.312-.624.696-.624.6 0 .696.48.696.936.552-.384 6.816-.408 7.776-.408 1.8 0 3.6.024 5.4.12.456.024.984 0 1.416.12.336.096.6.312.6.696 0 .408-.024.792-.024 1.2 0 2.352.072 4.704.072 7.056Zm-1.44-3.192c0-1.488-.096-2.952-.048-4.44-1.848-.144-3.72-.168-5.592-.144h-1.032c-.048 1.488-.096 2.976-.168 4.464.696-.024 1.392-.024 2.088-.024h.696c1.344 0 2.712.024 4.056.144Zm.024 1.416c-1.464-.144-2.976-.144-4.44-.144-.84 0-1.656 0-2.472.024l-.168 4.488c2.352-.072 4.704-.144 7.056-.072.024-.936.024-1.872.024-2.808V8.496Zm-8.112-5.976c-1.704.024-3.624 0-5.304.288-.048 0-.096.024-.144.024a.725.725 0 0 1-.384-.12c-.12 1.536-.24 3.096-.336 4.632 1.992-.216 4.008-.264 6-.336.072-1.488.12-3 .168-4.488Zm-.216 5.904c-2.016.048-4.056.12-6.048.36-.096 1.512-.192 3-.264 4.512 2.04-.24 4.104-.312 6.144-.384.048-1.488.096-3 .168-4.488Z" fill="#fff"/></svg>