<svg width="92" height="22" fill="none" xmlns="http://www.w3.org/2000/svg"><path d="M20.232 7.584c0 2.448-.072 4.896-.312 7.32-.144 1.344-.432 5.952-2.496 5.952-.792 0-2.976-.96-2.976-1.824 0-.384.312-.696.696-.696.192 0 .336.072.48.192.456.36 1.152.936 1.776.96.72-.432 1.104-4.416 1.176-5.112.192-2.04.24-4.08.264-6.12-1.176 0-2.328.024-3.504.072-.576 3.096-2.808 9.792-4.776 12.096a.683.683 0 0 1-.552.264c-.36 0-.696-.288-.696-.672 0-.144.048-.288.144-.408a12.6 12.6 0 0 0 .792-1.176c1.536-2.64 3.024-7.032 3.648-10.032-1.152.048-2.4.072-3.528.384-.072.024-.144.024-.216.024-.384 0-.672-.312-.672-.696 0-.312.192-.528.48-.648 1.176-.48 6.792-.6 8.28-.6.624 0 1.992-.192 1.992.72ZM9.648 15.912c0 .36-.36.648-.696.648l-.048-.024c-1.008-.048-2.76-1.008-3.6-1.56-.072 1.992-.024 3.96-.024 5.952a.697.697 0 0 1-1.392.024c-.048-.768-.024-1.56-.024-2.328 0-1.824.024-3.624.144-5.424-.888 1.056-1.824 2.184-2.832 3.144-.144.144-.264.216-.48.216A.696.696 0 0 1 0 15.864c0-.216.072-.36.192-.504.36-.408.744-.792 1.104-1.176C3.144 12.12 5.232 9.72 6.72 7.392c-.288-.024-.6-.024-.888-.024-1.392 0-2.832.144-4.176.528-.072.024-.144.024-.192.024a.697.697 0 0 1-.696-.696c0-.312.192-.528.48-.648.984-.384 2.76-.552 3.816-.576-.24-.12-.432-.36-.432-.648 0-.984-.336-2.28-.648-3.216-.024-.072-.048-.144-.048-.24 0-.384.312-.696.696-.696.312 0 .528.192.648.456.336.768.744 2.856.744 3.696a.715.715 0 0 1-.408.624h.288c.672-.024 1.464.048 2.112.24.288.096.528.312.528.648 0 .696-2.424 3.768-2.952 4.416.024.264-.12.936-.144 1.224.816-.456 1.656-.936 2.424-1.512.144-.096.264-.168.456-.168.384 0 .696.312.696.696 0 .216-.096.384-.24.528-.384.384-2.208 1.416-2.76 1.728.744.504 2.088 1.272 3 1.392.408.048.624.336.624.744Zm35.256-3.984a.719.719 0 0 1-.744.744c-.432 0-.672-.336-.696-.744-.048-1.056-.936-3.12-1.416-4.08-.048-.12-.096-.216-.096-.336 0-.408.336-.744.72-.744.288 0 .504.144.648.384.552.912 1.584 3.744 1.584 4.776Zm-7.56-1.824c0 .432-.312.72-.72.72-1.32 0-2.664-4.872-2.664-5.952 0-.384.312-.72.72-.72.384 0 .672.264.72.648.168 1.056.888 4.032 1.656 4.728.192.168.288.336.288.576Zm4.944 4.056c0 .072 0 .144-.024.216a8.62 8.62 0 0 1-1.032 2.112c-.888 1.32-2.592 2.832-4.272 2.832-3.192 0-5.856-3.504-6.888-6.216-.432-1.152-.696-2.424-.696-3.672 0-.384.336-.72.72-.72.384 0 .72.336.72.72 0 2.112.816 4.224 2.112 5.88.912 1.152 2.448 2.568 4.032 2.568 1.368 0 2.856-1.656 3.432-2.76.216-.384.336-.792.504-1.176.144-.288.312-.504.672-.504.384 0 .72.312.72.72ZM26.832 9.024a.853.853 0 0 1-.048.24c-.72 2.064-1.344 4.248-1.344 6.456 0 .408.048.816.12 1.224 0 .048.024.096.024.144 0 .384-.336.72-.72.72-.36 0-.624-.216-.72-.552-.12-.48-.144-1.056-.144-1.56 0-2.232.624-4.872 1.416-6.936a.753.753 0 0 1 .696-.48c.408 0 .72.336.72.744Zm40.032-1.32c0 .408-.336.696-.72.696-1.944 0-3.912.072-5.856.168a120.18 120.18 0 0 1-1.632 2.016c.096.096.168.216.216.336 1.872-.288 3.84-.384 5.736-.384.552 0 1.224-.024 1.224.744v.096c-.168 1.104-.168 2.256-.216 3.384-.072 1.608-.096 3.24-.288 4.824a.664.664 0 0 1 .504.624.697.697 0 0 1-.696.696c-1.848 0-3.696.048-5.544.216-.432.024-.864.12-1.296.168h-.12c-.36 0-.552-.144-.696-.456-.192-.432-.192-2.808-.192-3.36 0-1.824.048-3.648.144-5.472-1.632 1.872-3.336 3.672-5.16 5.352-.816.768-1.656 1.536-2.568 2.184a.719.719 0 0 1-.432.144.697.697 0 0 1-.696-.696c0-.24.096-.408.264-.552.672-.552 1.344-1.08 1.992-1.656 2.76-2.448 5.28-5.232 7.584-8.112-1.968.12-4.68.216-6.576.696-.072.024-.168.024-.24.024-.384 0-.72-.288-.72-.672 0-.336.192-.552.48-.672.792-.36 4.152-.6 5.088-.648 0-1.344.096-2.664.168-4.008-.744.048-1.488.096-2.232.168-.288.024-.624.096-.912.12h-.168a.697.697 0 0 1-.696-.696c0-.36.24-.576.552-.672.672-.192 2.808-.288 3.576-.336.024-.576-.048-1.584.768-1.584.384 0 .696.288.696.672 0 .264-.048.552-.072.816 1.488-.072 2.976-.168 4.464-.168.384 0 .72.288.72.696s-.336.696-.72.696c-1.512 0-3.048.12-4.56.192a74.64 74.64 0 0 0-.192 4.008 41.669 41.669 0 0 1 1.728-.096c.624-.816.912-1.08 1.464-1.92.24-.336.432-.72.672-1.056.144-.216.336-.336.6-.336.384 0 .696.312.696.696 0 .504-1.296 2.04-1.632 2.52 1.584-.048 3.192-.096 4.776-.096.384 0 .72.288.72.696Zm-2.496 4.248c-1.632.024-4.008.096-5.568.408l-.096 2.832c1.8-.312 3.696-.504 5.52-.504a52.21 52.21 0 0 1 .144-2.736Zm-.192 4.128c-1.704.024-3.84.216-5.496.528v1.008c0 .744 0 1.488.048 2.208 1.728-.216 3.48-.264 5.208-.288.168-1.128.192-2.304.24-3.456Zm27.096-6.36c0 1.992.096 10.008-1.416 11.448-.264.24-.552.408-.912.408-.696 0-2.736-.624-3.312-1.032-.24-.168-.384-.312-.384-.624 0-.36.336-.672.696-.672.12 0 .24.024.336.072.696.312 1.848.792 2.592.84.792-.912.84-5.304.936-6.48-.648-.024-1.32-.024-1.968-.024-1.704 0-3.408.024-5.112.072-.048 2.016-.12 4.008-.12 6.024 0 .408-.312.696-.72.696a.697.697 0 0 1-.696-.696c0-1.992.072-3.984.12-5.976-2.04.072-4.128.144-6.168.408-.096 1.944-.192 3.888-.192 5.832 0 .408.048.816.048 1.248a.682.682 0 0 1-.696.696c-.384 0-.624-.264-.696-.624-.096-.456-.048-1.008-.048-1.464 0-4.104.288-8.304.552-12.408.096-1.512.192-3.024.312-4.536.072-.744.072-1.56.216-2.304.072-.36.312-.624.696-.624.6 0 .696.48.696.936.552-.384 6.816-.408 7.776-.408 1.8 0 3.6.024 5.4.12.456.024.984 0 1.416.12.336.096.6.312.6.696 0 .408-.024.792-.024 1.2 0 2.352.072 4.704.072 7.056Zm-1.44-3.192c0-1.488-.096-2.952-.048-4.44-1.848-.144-3.72-.168-5.592-.144H83.16c-.048 1.488-.096 2.976-.168 4.464.696-.024 1.392-.024 2.088-.024h.696c1.344 0 2.712.024 4.056.144Zm.024 1.416C88.392 7.8 86.88 7.8 85.416 7.8c-.84 0-1.656 0-2.472.024l-.168 4.488c2.352-.072 4.704-.144 7.056-.072.024-.936.024-1.872.024-2.808V7.944Zm-8.112-5.976c-1.704.024-3.624 0-5.304.288-.048 0-.096.024-.144.024a.725.725 0 0 1-.384-.12c-.12 1.536-.24 3.096-.336 4.632 1.992-.216 4.008-.264 6-.336.072-1.488.12-3 .168-4.488Zm-.216 5.904c-2.016.048-4.056.12-6.048.36-.096 1.512-.192 3-.264 4.512 2.04-.24 4.104-.312 6.144-.384.048-1.488.096-3 .168-4.488Z" fill="#fff"/></svg>