<svg width="364" height="36" fill="none" xmlns="http://www.w3.org/2000/svg"><path d="M30.058 9.614c0 .684-.532 1.14-1.178 1.14-.456 0-.836-.266-1.026-.646-.266-.608-.608-2.28-.608-2.926 0-.646.532-1.14 1.14-1.14 1.444 0 1.14 2.166 1.558 3.116.076.152.114.304.114.456Zm-5.13 1.9c0 .608-.494 1.178-1.14 1.178-.912 0-3.192-1.026-3.192-2.128 0-.646.532-1.14 1.178-1.14.304 0 .532.114.76.342.38.342 1.064.532 1.52.646.532.114.874.57.874 1.102Zm5.092 12.73c0 .608-.532 1.14-1.14 1.14-.342 0-.57-.114-.798-.342-1.064-.95-2.28-2.47-3.268-3.534-1.064-1.216-2.394-2.622-3.268-3.952a1.281 1.281 0 0 1-.19-.646c0-.646.456-1.14 1.102-1.14.418 0 .722.152.95.456 1.976 2.546 4.104 4.864 6.27 7.22.228.228.342.494.342.798Zm-18.354-8.93c0 .38-.19.684-.494.912-3.078 2.47-5.966 5.51-8.094 8.854-.342.532-.608 1.102-.912 1.634-.228.418-.57.646-1.026.646-.646 0-1.14-.456-1.14-1.102 0-1.976 8.626-12.084 10.526-12.084.646 0 1.14.494 1.14 1.14Zm55.252-7.372c0 2.698-5.13 9.538-7.524 10.716a1.17 1.17 0 0 1-.494.114c-.646 0-1.14-.532-1.14-1.14 0-.494.228-.76.608-1.026 2.166-1.406 5.054-5.358 6.004-7.752h-.684c-2.66-.038-5.358.19-8.018.38-4.826.342-9.576 1.102-14.364 1.368h-.152c-.646.038-1.102-.494-1.102-1.14 0-.608.418-.988.988-1.102.57-.114 1.178-.152 1.748-.19l4.066-.456c3.724-.38 7.486-.722 11.248-.95 1.786-.114 3.61-.228 5.434-.228.988 0 3.382-.19 3.382 1.406ZM55.29 14.858c0 1.71-.342 3.496-.646 5.168-.456 2.546-.988 5.054-1.52 7.6-.152.798-.266 1.634-.494 2.432-.19.722-.684.912-1.368.912-.494 0-.912-.646-.912-1.064 0-.76.38-1.976.532-2.736.57-2.546 1.102-5.13 1.558-7.714.266-1.482.57-3.078.57-4.598 0-.646.494-1.14 1.14-1.14.608 0 1.14.532 1.14 1.14Zm52.782 4.788c0 .646-.38 1.026-.988 1.14-4.066.798-7.866 2.622-11.628 4.294-.722.304-4.332 1.976-4.94 1.976-.608 0-1.14-.532-1.14-1.14 0-1.824.076-3.686.114-5.51l.076-5.282c0-.798-.038-1.71.076-2.47.114-.608.456-1.064 1.102-1.064.608 0 1.178.494 1.14 1.14v.076c-.114 2.508-.076 5.092-.114 7.6l-.076 3.8c3.268-1.33 12.388-5.7 15.238-5.7.646 0 1.14.494 1.14 1.14Zm-26.524-6.65c0 .798-.076 1.634-.152 2.47a166.323 166.323 0 0 1-.57 6.118c-.152 1.444-.418 2.926-.38 4.37v.19c.266.19.418.532.418.874 0 .608-.532 1.14-1.14 1.14-1.33 0-1.558-1.368-1.558-2.394 0-1.482.228-2.964.38-4.446.19-1.824.38-3.61.532-5.434l.19-3.002c.076-.646.532-1.064 1.178-1.064.646 0 1.102.57 1.102 1.178ZM144.4 7.79c0 .646-.494 1.102-1.14 1.102-.418 0-.798-.19-.988-.57-.57-1.102-1.976-5.548-1.976-6.726 0-.646.494-1.14 1.14-1.14.608 0 .988.418 1.102.988.304 1.938.836 4.028 1.71 5.814.076.19.152.342.152.532Zm.342 16.264c0 2.508-.95 9.082-2.926 10.716-.228.19-.456.266-.722.266-.228 0-.494-.076-.684-.19-3.534-2.204-7.41-17.176-8.626-22.116-1.938 0-3.838.076-5.776.114-2.318.076-4.636.152-6.954.266-1.026.038-2.622.038-3.61.228-.038 0-.076.038-.114.038-.608 0-1.102-.532-1.102-1.14 0-.608.418-.988.988-1.102.874-.19 2.394-.19 3.306-.228 2.47-.152 4.94-.228 7.41-.304 1.786-.038 3.534-.114 5.32-.114-.494-2.356-1.216-4.75-1.33-7.144V3.23c-.038-.608.57-1.102 1.14-1.102.646 0 .988.456 1.102 1.026.152.722.19 1.482.342 2.204.304 1.71.684 3.382 1.064 5.092h1.976c1.026 0 3.116-.076 4.066.076.646.114 1.064.494 1.064 1.178 0 .57-.57 1.064-1.14 1.064-1.216 0-2.47-.076-3.686-.076h-1.748c1.254 5.054 4.066 15.656 6.84 19.456.95-2.166 1.558-5.738 1.558-8.094 0-.646.494-1.14 1.14-1.14.646 0 1.102.532 1.102 1.14Zm-13.376 2.432c0 .418-.266.76-.608.988-1.672.988-9.158 2.774-11.324 3.306-.342.076-2.432.646-2.66.646-.608 0-1.14-.532-1.14-1.14 0-.532.342-.912.836-1.064.798-.266 1.634-.418 2.432-.646.722-.19 1.482-.38 2.204-.532 0-2.356.19-4.712.266-7.068-1.33.076-3.306.152-4.56.456-.076.038-.152.038-.228.038-.608 0-1.14-.532-1.14-1.14 0-.532.38-.988.912-1.102 1.444-.342 3.078-.38 4.56-.494 2.508-.114 5.016-.19 7.486-.19.836 0 1.71.076 1.71 1.14 0 .608-.532 1.102-1.14 1.102h-.684c-1.558 0-3.116.038-4.674.114-.076 2.166-.114 4.408-.266 6.574 1.976-.532 4.484-1.064 6.308-1.938.19-.076.342-.152.57-.152.608 0 1.14.456 1.14 1.102Zm52.06-20.596c0 .798-.95 2.584-1.52 3.192a1.136 1.136 0 0 1-.874.418c-.608 0-1.064-.532-1.064-1.102 0-.494.494-1.064.76-1.482-1.52-.076-3.04-.076-4.598-.076h-2.128c-.152.95-.532 2.964-.95 3.8-.19.38-.532.646-.988.646a1.103 1.103 0 0 1-1.102-1.102c0-.19.038-.342.114-.494.38-.874.532-1.862.684-2.812-2.546.038-5.092.076-7.638.228.114 1.026.266 2.09.57 3.078.038.152.076.266.076.418 0 .646-.494 1.064-1.102 1.064-.456 0-.836-.304-1.026-.684-.38-.798-.646-2.888-.722-3.762-2.508.152-6.65.38-9.006 1.254-.152.038-.266.076-.418.076a1.103 1.103 0 0 1-1.102-1.102c0-.418.228-.836.646-1.026 1.938-.874 7.486-1.254 9.69-1.406a42.685 42.685 0 0 1-.114-3.116c0-.608.418-1.14 1.064-1.14.608 0 1.102.494 1.14 1.102.076.988.038 2.014.114 3.002 2.736-.114 5.434-.19 8.17-.228.19-1.178.228-2.356.342-3.572.038-.646.494-1.064 1.14-1.064.608 0 1.064.57 1.064 1.14 0 1.14-.152 2.356-.304 3.496h2.052c1.368 0 2.736 0 4.142.038.608.038 1.292 0 1.9.114.532.076.988.532.988 1.102Zm-.342 17.784c0 .57-.532 1.026-1.064.988h-.114c-1.596-.076-3.192-.152-4.826-.152-2.622 0-5.282.076-7.904.152 2.432 2.318 8.778 7.866 12.236 7.866a1.103 1.103 0 0 1 0 2.204c-4.408 0-10.982-5.852-14.098-8.778-1.748 4.218-4.902 7.714-9.158 9.538-.152.076-.304.076-.456.076a1.103 1.103 0 0 1-1.102-1.102c0-.456.304-.76.684-.988.646-.342 1.292-.646 1.938-1.026 2.888-1.824 4.94-4.484 6.194-7.638-4.294.19-8.74.342-12.958 1.14-.076 0-.152.038-.228.038-.608 0-1.14-.494-1.14-1.102 0-.57.38-.95.912-1.102.722-.228 1.634-.266 2.394-.38 1.748-.19 3.534-.342 5.282-.456-.19-2.812-.266-5.662-.266-8.512 0-.798-.038-1.862 1.102-1.862.532 0 .95.38 1.026.912 1.748-.494 3.61-.684 5.396-.798-.076-.608-.19-1.254-.19-1.862 0-.608.494-1.102 1.102-1.102 1.292 0 1.178 1.938 1.292 2.85.912-.038 1.862-.038 2.774-.038 1.254 0 3.306-.038 4.522.19.608.114.988.532.988 1.14 0 .988-.076 1.976-.152 2.964-.114 1.824-.19 3.686-.494 5.51 1.33 0 4.028-.038 5.282.152.646.114 1.026.494 1.026 1.178Zm-7.904-8.854c-.988-.076-2.014-.076-3.002-.076s-1.938 0-2.926.038v.57a28.228 28.228 0 0 1-.798 7.144c2.052-.076 4.066-.152 6.118-.152.418-2.432.456-5.054.608-7.524Zm-8.17.608v-.532c-1.672.114-3.382.304-5.016.76-.114.038-.266.038-.38.038.038 2.356.114 4.75.228 7.106l4.294-.228c.608-2.318.912-4.75.874-7.144Zm55.366 5.396c0 .646-.494 1.102-1.14 1.102a1.06 1.06 0 0 1-.684-.228c-.722-.532-1.406-1.254-2.052-1.9l-3.762-3.762c-3.382-3.42-6.726-6.84-9.88-10.412-1.824 2.85-3.876 5.548-5.966 8.208-2.242 2.812-4.56 5.586-6.992 8.208-.798.836-1.862 2.128-2.85 2.736a1.12 1.12 0 0 1-1.748-.95c0-.456.19-.684.494-.95 2.318-2.014 4.332-4.446 6.308-6.764 3.154-3.762 6.308-7.638 8.93-11.818.57-.836.988-1.748 1.482-2.622.228-.38.532-.646 1.026-.646.57 0 1.102.494 1.102 1.102 0 .494-.38 1.026-.57 1.444 1.596 1.976 3.42 3.8 5.168 5.662 2.66 2.774 5.358 5.548 8.094 8.246.874.836 1.786 1.634 2.622 2.47.266.266.418.494.418.874Zm-15.01-2.812c0 .684-.494 1.14-1.14 1.14-.456 0-.836-.266-1.026-.684-.57-1.178-1.824-2.128-2.888-2.812-.342-.228-.532-.57-.532-.95 0-.608.494-1.102 1.102-1.102 1.178 0 4.484 3.192 4.484 4.408Zm8.474 14.896c0 .608-.532 1.102-1.14 1.102-.418 0-.684-.19-.95-.532-.494-.646-.912-1.482-1.368-2.166-3.914.988-8.056 1.368-12.084 1.786-.646.076-1.33.19-1.976.19-.646 0-1.14-.456-1.14-1.102 0-.304.114-.532.304-.76.874-1.064 1.634-2.242 2.432-3.42 1.026-1.52 2.09-3.116 3.078-4.674-2.014.114-4.142.152-6.08.684a1.052 1.052 0 0 1-.342.038c-.646 0-1.102-.532-1.102-1.14 0-.532.304-.912.798-1.064 2.242-.76 10.564-.95 13.186-.95 1.178 0 2.394-.038 3.534.114.57.076 1.064.494 1.064 1.102 0 .646-.532 1.14-1.14 1.14-1.216 0-2.394-.076-3.61-.076-1.178 0-2.394 0-3.572.038a200.845 200.845 0 0 1-4.978 7.6c3.496-.38 6.992-.76 10.412-1.52-.342-.532-1.786-2.698-1.786-3.23 0-.608.494-1.14 1.064-1.14.456 0 .76.19.988.532.304.418.57.912.874 1.368l1.71 2.812c.532.874 1.14 1.748 1.634 2.66.114.19.19.342.19.608Zm42.864-25.726c0 .57-.494 1.064-1.064 1.064-1.71 0-8.778.722-10.146 1.254-.152.076-.228.076-.418.076-.608 0-1.026-.494-1.026-1.064 0-.456.228-.798.646-.988 1.292-.608 9.158-1.406 10.944-1.406.57 0 1.064.494 1.064 1.064Zm1.596 8.094c0 1.406-1.862 1.064-2.774 1.064-1.33 0-2.698 0-4.028.076-.114 1.938-.152 3.838-.304 5.776a88.285 88.285 0 0 1 4.484-.114c.608 0 1.064.456 1.064 1.064 0 2.204-.152 4.522-.608 6.688.798 0 1.862-.076 1.862 1.064 0 .608-.494 1.026-1.064 1.026-1.596 0-3.192.114-4.75.19-1.9.114-3.8.228-5.7.456v.114c.038.57-.456 1.102-1.064 1.102-.456 0-.722-.228-.95-.608-.266-.494-.228-3.686-.228-4.256 0-1.862.076-3.762.076-5.624 0-.608.456-1.064 1.064-1.064.38 0 .76.228.912.57.912-.266 1.862-.342 2.774-.456l.304-5.852c-1.672.114-4.294.266-5.928.684-.076.038-.152.038-.228.038-.57 0-1.064-.494-1.064-1.064 0-.532.38-.912.874-1.064 1.672-.456 4.636-.608 6.422-.722.038-1.482 0-2.812.114-4.218.038-.608.494-1.026 1.102-1.026.57 0 1.026.494 1.026 1.064 0 1.52-.076 2.584-.114 4.104 1.33-.076 2.698-.076 4.028-.076.912 0 2.698-.304 2.698 1.064Zm-20.482-8.018c0 .57-.456 1.026-1.064 1.026-.418 0-.684-.19-.912-.494-.836-1.064-3.762-2.432-5.016-2.85-.456-.152-.76-.532-.76-1.026 0-.57.494-1.026 1.064-1.026 1.254 0 5.814 2.66 6.498 3.762.114.19.19.38.19.608Zm5.32 4.902c0 .608-.532.988-1.102.988-.874 0-1.748-.038-2.622-.038-2.508 0-11.286.266-13.338 1.368a.872.872 0 0 1-.532.152c-.57 0-1.064-.494-1.064-1.064 0-.418.19-.684.532-.912 2.052-1.368 11.856-1.634 14.554-1.634.836 0 1.71-.038 2.546.038.608.076 1.026.456 1.026 1.102Zm-4.028 4.522c0 .608-.456 1.064-1.064 1.064-1.026 0-5.434.114-6.232.494-.152.076-.228.114-.418.114-.57 0-1.064-.456-1.064-1.026 0-.418.228-.798.608-.988 1.178-.57 5.586-.722 7.106-.722.57 0 1.064.494 1.064 1.064Zm.19 4.826v.114c-.038 1.14-1.102.912-1.9.912-1.634 0-4.142.114-5.7.57a1.35 1.35 0 0 1-.38.076c-.608 0-1.064-.494-1.064-1.102 0-.418.266-.798.646-.95 1.178-.494 5.244-.722 6.65-.722.76 0 1.786.076 1.748 1.102Zm.19 10.792c0 1.14-1.064 1.064-1.862 1.064l-.076.038-.076-.038c-1.482.076-4.408.228-5.776.646-.114.038-.19.038-.304.038-.38 0-1.14-.418-1.026-.798l-.038-.038c-.342-1.9-.304-3.952-.304-5.89 0-.95-.266-2.736 1.14-2.736.57 0 1.026.456 1.026 1.026.912-.608 4.522-.646 5.738-.646.684 0 1.406.228 1.406 1.064 0 1.748-.266 3.572-.532 5.32.38.152.684.532.684.95Zm15.124-8.094c-1.596.038-6.574.152-7.904.684-.114.038-.152.076-.304.076 0 1.824-.038 3.686-.038 5.51 2.508-.342 5.054-.456 7.6-.57.494-1.748.57-3.876.646-5.7Zm-17.48 2.888c-1.33 0-2.698.038-3.99.342-.076.038-.19.038-.266.038-.266 0-.494-.114-.684-.266 0 1.52 0 3.04.114 4.56 1.444-.228 2.888-.342 4.332-.418.228-1.406.418-2.85.494-4.256Zm50.578 1.976c0 .38-.114.608-.38.874-1.482 1.482-4.978 2.812-7.068 2.812-3.42 0-7.6-1.14-7.6-5.282 0-3.344 2.546-6.118 5.13-7.904-1.254-2.622-1.71-6.346-1.71-9.234 0-1.634.114-4.028.646-5.548.19-.494.57-.836 1.102-.836.646 0 1.14.494 1.14 1.14 0 .114 0 .19-.038.304-.418 1.672-.57 3.344-.57 5.016 0 2.508.342 5.662 1.368 7.942 1.368-.76 3.914-1.9 5.472-1.9.608 0 1.178.456 1.178 1.102 0 .684-.418 1.064-1.064 1.178-.608.114-1.14.19-1.71.38-3.306 1.064-8.664 4.484-8.664 8.36 0 2.66 3.306 3.04 5.32 3.04 1.976 0 4.028-1.102 5.548-2.28.228-.19.456-.304.76-.304.608 0 1.14.532 1.14 1.14Zm45.828-5.738c0 .608-.532 1.102-1.14 1.102-.076 0-.19 0-.266-.038a41.39 41.39 0 0 0-4.332-.798c-.722 2.166-2.584 5.548-5.244 5.548-2.584 0-5.244-1.558-5.244-4.408 0-3.192 4.446-3.686 6.764-3.686.646 0 1.254.038 1.9.076.076-.798.076-1.634.076-2.432 0-2.394-.114-4.788-.304-7.144-2.014.076-4.37.228-5.966 1.558-.228.19-.494.304-.798.304-.608 0-1.14-.532-1.14-1.14 0-.304.114-.57.342-.798 1.672-1.71 5.13-2.09 7.372-2.166-.038-.494-.152-1.026-.152-1.52 0-.608.494-1.14 1.14-1.14 1.292 0 1.178 1.748 1.254 2.66.836.038 1.672.076 2.508.19.57.076 1.026.494 1.026 1.102 0 .646-.494 1.14-1.102 1.14-.722 0-1.52-.114-2.242-.152.19 2.394.304 4.788.304 7.182 0 .874 0 1.748-.076 2.622 1.444.152 3.002.418 4.408.798.532.152.912.57.912 1.14Zm-23.598 6.27c0 .418-.228.798-.608 1.026-.228.152-.494.228-.722.38-.722.418-1.52.988-2.394.988-2.736 0-2.888-5.282-2.888-6.992 0-3.914 1.026-11.932 2.508-15.352.19-.418.57-.722 1.064-.722.608 0 1.102.57 1.102 1.14 0 .152-.038.304-.076.418-1.444 3.876-2.318 10.222-2.318 14.402 0 1.102.076 3.876.76 4.788.646-.266 1.9-1.178 2.47-1.178.608 0 1.102.494 1.102 1.102Zm15.542-6.232c-.456-.038-.95-.076-1.406-.076-1.064 0-3.344.152-4.18.912-.152.152-.342.304-.342.532 0 1.558 1.71 2.166 3.002 2.166 1.254 0 2.584-2.546 2.926-3.534Zm36.062-14.858v.342c-.228 3.572-2.014 5.32-4.598 7.486-2.014 1.71-3.116 2.698-4.104 5.206-.19.456-.532.798-1.064.798-.608 0-1.14-.57-1.14-1.178 0-.114 0-.228.038-.342 1.862-5.928 8.588-6.954 8.588-12.35 0-1.938-1.406-3.344-3.344-3.344-1.52 0-3.724 1.102-3.952 2.736-.076.608-.456 1.064-1.14 1.064-.646 0-1.14-.532-1.14-1.14v-.076c.114-2.926 3.572-4.902 6.27-4.902 3.23 0 5.586 2.546 5.586 5.7Zm-7.258 19.038c0 .19-.038.38-.114.532-.342.76-.494 1.976-.494 2.812 0 .76.304.912.304 1.368 0 .608-.532 1.14-1.14 1.14-1.216 0-1.444-1.634-1.444-2.584 0-1.482.342-4.37 1.786-4.37a1.08 1.08 0 0 1 1.102 1.102Z" fill="#fff"/></svg>