<svg width="751" height="245" fill="none" xmlns="http://www.w3.org/2000/svg"><path fill="#fff" d="M0 61.106 698.446 0l8.454 96.63L8.454 157.738z"/><path fill="#fff" d="M26.835 147.522 741.7 84.979l8.454 96.631L35.29 244.153z"/><path d="M67.39 89.102c.088 1.004-.911 3.356-1.561 4.184-.258.36-.624.585-1.054.622-.765.067-1.398-.552-1.46-1.27-.055-.62.504-1.392.793-1.948-1.921.072-3.834.24-5.795.41l-2.677.235c-.087 1.212-.344 3.788-.777 4.886-.198.5-.599.872-1.172.922a1.393 1.393 0 0 1-1.509-1.265c-.02-.24.01-.435.09-.635.382-1.141.464-2.401.55-3.613-3.199.328-6.398.656-9.586 1.127.257 1.279.565 2.601 1.057 3.81.064.188.124.327.141.519.071.813-.504 1.393-1.27 1.46-.573.05-1.085-.29-1.366-.748-.566-.962-1.13-3.563-1.322-4.654-3.14.467-8.327 1.21-11.195 2.569-.187.065-.326.125-.518.142a1.393 1.393 0 0 1-1.508-1.266 1.415 1.415 0 0 1 .7-1.362c2.343-1.313 9.282-2.402 12.039-2.836a53.88 53.88 0 0 1-.487-3.908c-.067-.766.4-1.48 1.214-1.552.765-.067 1.44.5 1.556 1.261.204 1.235.27 2.53.473 3.765 3.43-.444 6.817-.837 10.256-1.186.11-1.503.028-2.99.037-4.533-.023-.817.505-1.393 1.318-1.464.765-.067 1.401.6 1.464 1.317.126 1.435.068 2.982.002 4.433l2.583-.226c1.72-.15 3.442-.301 5.216-.408.77-.02 1.626-.142 2.403-.066.678.037 1.302.56 1.365 1.278Zm1.527 22.416c.063.718-.556 1.35-1.23 1.361l-.143.012c-2.017.08-4.034.16-6.09.34-3.3.289-6.638.677-9.93 1.062 3.316 2.649 11.913 8.932 16.264 8.551a1.393 1.393 0 0 1 .243 2.773c-5.547.485-14.464-6.155-18.707-9.494-1.735 5.501-5.32 10.247-10.474 13.011-.183.112-.374.129-.565.146a1.394 1.394 0 0 1-1.508-1.266c-.05-.574.299-.99.752-1.318.775-.502 1.554-.955 2.325-1.505 3.434-2.613 5.723-6.186 6.954-10.293-5.383.712-10.96 1.393-16.18 2.861-.096.009-.188.065-.283.073-.765.067-1.49-.496-1.556-1.261-.063-.717.374-1.237 1.026-1.487.884-.367 2.027-.515 2.97-.742a157.36 157.36 0 0 1 6.597-1.155 159.843 159.843 0 0 1-1.271-10.682c-.088-1.004-.253-2.339 1.181-2.464.67-.059 1.237.373 1.392 1.034 2.145-.814 4.467-1.258 6.702-1.598-.163-.757-.377-1.557-.444-2.322a1.393 1.393 0 0 1 1.265-1.508c1.626-.142 1.696 2.309 1.94 3.444a84.984 84.984 0 0 1 3.486-.353c1.578-.138 4.156-.412 5.711-.259.778.076 1.302.56 1.37 1.326.108 1.243.121 2.495.134 3.746.058 2.308.167 4.659-.015 6.988 1.674-.146 5.065-.491 6.663-.39.826.072 1.346.509 1.421 1.369Zm-10.92-10.271c-1.252.013-2.543.126-3.786.235-1.244.109-2.44.213-3.678.37l.063.717a35.659 35.659 0 0 1-.218 9.078c2.574-.322 5.1-.639 7.682-.865.258-3.107.017-6.41-.064-9.535Zm-10.214 1.665-.059-.67c-2.091.328-4.222.755-6.228 1.509-.14.06-.33.077-.474.089.307 2.961.666 5.965 1.07 8.917l5.377-.76a33.69 33.69 0 0 0 .314-9.085Zm71.448-1.192c.138 1.578-2.143 1.392-3.147 1.48-2.965.259-5.965.666-8.921 1.021-4.335.572-8.64 1.479-12.992 1.86l-.095.008c-.717.063-1.393-.505-1.456-1.222-.063-.717.469-1.245 1.13-1.4.757-.162 1.57-.233 2.33-.348 1.805-.303 3.614-.557 5.422-.812a83.865 83.865 0 0 1 .151-5.988c-1.522.23-3.095.416-4.553.832-.095.009-.187.065-.234.069-.766.067-1.442-.5-1.504-1.218-.059-.669.377-1.189.987-1.387 1.261-.447 4.03-.738 5.409-.955.049-1.642.142-3.337.238-4.984-1.382.17-2.796.534-4.182.655l-.24.021a1.342 1.342 0 0 1-1.456-1.221c-.054-.622.378-1.19.987-1.388 1.075-.383 2.944-.498 4.087-.646 2.809-.39 5.622-.733 8.443-.98 1.148-.1 2.988-.55 3.138 1.171.134 1.53-1.76 1.359-2.764 1.446-1.769.155-3.578.41-5.343.612l-.247 4.889c2.095-.28 4.191-.56 6.295-.744 1.1-.096 2.291-.249 2.421 1.234.184 2.104.148 4.998.045 7.127.909-.08 1.813-.207 2.722-.286 1.147-.101 3.178-.567 3.329 1.154ZM88.985 88.658c.059.67-.508 1.346-1.226 1.409-.526.046-.838-.216-1.158-.574-.424-.444-3.415-1.58-4.11-1.808a1.308 1.308 0 0 1-.917-1.125c-.063-.717.41-1.385 1.174-1.452 1.052-.092 5.621 2.014 6.1 3.08.06.14.12.279.137.47Zm26.095 19.593c.155 1.769.396 8.927-.2 10.376-.197.5-.507.816-1.081.866-.669.059-1.241-.421-1.391-1.035-2.865.299-5.826.606-8.67 1.144l.034.383c.11.713-.461 1.341-1.178 1.404-.718.063-1.29-.417-1.444-1.079-.223-.896-.263-1.904-.346-2.86a114.213 114.213 0 0 1-.355-5.703c-.079-.909-.167-1.913-.103-2.834.033-.725.517-1.25 1.282-1.317.478-.041.938.256 1.215.665 2.509-.509 5.13-.834 7.665-1.056 1.052-.092 2.339-.253 3.411-.106.635.089 1.103.482 1.161 1.152ZM94.861 93.589c.067.765-.513 1.297-1.226 1.408l-.19.017c-1.961.171-3.913.439-5.866.706-4.234.611-8.388 1.6-12.644 1.973l-.143.013a1.29 1.29 0 0 1-1.404-1.178c-.063-.718.373-1.238 1.03-1.44.657-.202 1.374-.264 2.087-.375 1.518-.277 3.04-.507 4.562-.736 4.043-.595 8.083-1.237 12.147-1.593.86-.075 1.568.296 1.647 1.205Zm-3.618 6.002c.063.717-.505 1.393-1.222 1.456-1.913.167-3.77.426-5.674.689-1.095.144-2.29.249-3.37.584-.095.009-.139.061-.234.069-.718.063-1.394-.505-1.456-1.222-.055-.621.33-1.185.939-1.383 1.074-.383 2.365-.496 3.509-.644 2-.272 4.048-.547 6.056-.723.717-.063 1.385.409 1.452 1.174Zm.42 5.36c.067.765-.408 1.385-1.17 1.5-2.852.442-5.773.649-8.612 1.235-.092.056-.14.06-.235.069-.718.062-1.346-.509-1.409-1.226-.058-.67.33-1.186.94-1.383 1.078-.336 2.417-.453 3.56-.601 1.81-.255 3.614-.557 5.431-.716.67-.059 1.428.357 1.495 1.122Zm.528 7.133c.193 2.2.194 4.416.19 6.584-.011.965.025 1.926-.04 2.847-.076.777-.516 1.25-1.33 1.321-.382.033-.846-.312-1.062-.582a49.23 49.23 0 0 0-4.57.641l.009.095c.11.714-.513 1.298-1.183 1.357-.478.041-.933-.208-1.206-.569-.765-1.042-1.344-7.11-1.47-8.545-.121-1.386-.367-3.1-.245-4.459.036-.678.469-1.246 1.186-1.309.765-.067 1.345.509 1.408 1.226 1.657-.337 3.366-.632 5.087-.782 1.052-.092 2.813-.343 3.082 1.079.081.379.11.713.144 1.096Zm18.371-16.93c-2.1.232-4.2.464-6.291.792a249.64 249.64 0 0 0-.151 5.988c2.152-.189 4.243-.516 6.387-.8.215-1.946.083-4.007.055-5.98Zm1.945 14.526-.813.071c-2.825.199-5.829.559-8.617 1.188.08 2.017.212 4.077.388 6.085 2.983-.598 6.083-.966 9.143-1.233a65.14 65.14 0 0 0-.101-6.111Zm-22.977 2.83c-1.817.159-3.725.374-5.513.867l.104 1.196c.124 1.964.387 3.869.698 5.769 1.609-.334 3.278-.528 4.904-.67.034-2.364.016-4.772-.193-7.162Zm61.94-25.608c.067.765-.496 1.489-1.261 1.555-.765.068-1.539.039-2.304.106-1.626.142-3.243.38-4.86.618-.71 2.905-1.615 5.778-2.62 8.613a17.78 17.78 0 0 1 4.196.596c.742-.884 3.098-3.692 4.246-3.792.813-.071 1.532.444 1.603 1.257.051.574-.199 1.03-.652 1.358-.858.653-1.608 1.442-2.354 2.278 1.058.534 3.396 1.919 3.509 3.21.075.861-.496 1.489-1.309 1.56a1.447 1.447 0 0 1-1.302-.561c-.753-.897-1.72-1.487-2.77-1.925-1.423 1.907-4.188 6.1-3.971 8.586.117 1.339 1.66 1.349 2.712 1.257 1.865-.163 4.453-.872 6.124-1.596.279-.121.605-.246.94-.275.813-.071 1.445.548 1.512 1.313.054.622-.322 1.281-.931 1.479-2.392.739-4.716 1.714-7.251 1.935-2.773.243-5.69-.61-5.975-3.862-.272-3.108 2.211-7.228 3.922-9.69-1.52-.301-2.819-.284-4.301-.154-.813.071-1.537-.492-1.604-1.257-.033-.383.085-.682.251-.986 1.036-1.921 2.313-6.61 2.894-8.781-1.279.256-2.557.513-3.78.86l-1.405.46c-.096.009-.283.074-.378.082-.765.067-1.493-.544-1.56-1.31-.059-.669.373-1.236.978-1.482 2.098-.81 4.711-1.231 6.889-1.663.243-1.081.438-2.158.437-3.266.025-.822.553-1.398 1.366-1.469.86-.075 1.453.644 1.52 1.409.08.908-.119 1.938-.283 2.82a56.545 56.545 0 0 1 4.004-.496c1.243-.108 3.613-.557 3.768 1.213Zm58.606-8.645c.062.717-.505 1.393-1.222 1.456-2.152.188-10.967 1.875-12.629 2.695-.183.112-.279.12-.518.142-.765.067-1.345-.51-1.408-1.226-.05-.574.199-1.03.704-1.315 1.559-.907 11.369-2.777 13.617-2.974.717-.063 1.393.505 1.456 1.222Zm2.899 10.01c.155 1.769-2.226 1.543-3.374 1.644-1.673.146-3.395.297-5.06.539.07 2.451.231 4.846.253 7.301a112.44 112.44 0 0 1 5.63-.637 1.312 1.312 0 0 1 1.456 1.222c.243 2.773.307 5.707-.028 8.483 1.004-.088 2.334-.301 2.46 1.134.067.765-.509 1.345-1.226 1.408-2.008.176-4.004.495-5.956.762-2.379.353-4.757.705-7.123 1.201l.013.144c.11.713-.453 1.437-1.218 1.504-.574.05-.933-.208-1.262-.661-.389-.592-.693-4.613-.756-5.33-.205-2.343-.318-4.743-.523-7.086a1.313 1.313 0 0 1 1.222-1.456c.478-.041.981.204 1.21.617 1.118-.435 2.305-.635 3.44-.879l-.261-7.397c-2.092.327-5.374.807-7.384 1.513-.092.056-.188.064-.283.073-.717.063-1.393-.505-1.456-1.222-.059-.67.378-1.19.982-1.435 2.054-.758 5.767-1.275 8.002-1.615-.115-1.87-.309-3.539-.321-5.32-.019-.77.509-1.346 1.274-1.413.717-.063 1.345.508 1.408 1.226.167 1.912.189 3.26.308 5.177 1.666-.242 3.387-.393 5.061-.54 1.147-.1 3.361-.68 3.512 1.042Zm-26.656-7.835c.062.717-.461 1.341-1.226 1.408-.526.046-.882-.164-1.202-.521-1.169-1.247-5.002-2.646-6.626-3.034-.59-.141-1.015-.586-1.069-1.208-.063-.717.508-1.345 1.226-1.408 1.578-.138 7.609 2.707 8.591 4.019.164.226.281.457.306.744Zm7.234 5.582c.067.766-.561 1.302-1.278 1.365-1.1.096-2.204.145-3.304.241-3.156.276-14.172 1.577-16.633 3.19-.227.164-.366.224-.653.25-.717.062-1.393-.505-1.456-1.222-.046-.526.164-.882.569-1.206 2.432-1.948 14.739-3.362 18.134-3.659 1.052-.092 2.148-.236 3.208-.232.774.028 1.342.46 1.413 1.273Zm-4.571 6.134a1.313 1.313 0 0 1-1.222 1.456c-1.291.113-6.825.742-7.787 1.308-.183.112-.275.169-.514.19-.717.062-1.389-.457-1.452-1.175a1.383 1.383 0 0 1 .657-1.31c1.419-.847 6.949-1.523 8.862-1.69.717-.063 1.393.504 1.456 1.221Zm.77 6.052.013.144c.078 1.438-1.286 1.269-2.291 1.356-2.056.18-5.199.6-7.109 1.345-.14.061-.327.125-.47.138-.765.067-1.393-.505-1.46-1.27a1.307 1.307 0 0 1 .708-1.266c1.428-.752 6.519-1.486 8.288-1.641.957-.084 2.256-.101 2.321 1.194Zm1.428 13.559c.125 1.435-1.222 1.456-2.226 1.544l-.092.056-.1-.039c-1.856.259-5.521.772-7.197 1.449-.139.06-.235.068-.378.081-.478.042-1.481-.4-1.379-.891l-.052-.044c-.64-2.353-.818-4.939-1.031-7.378-.105-1.195-.636-3.414 1.133-3.568a1.289 1.289 0 0 1 1.404 1.178c1.081-.866 5.619-1.311 7.15-1.445.86-.075 1.794.132 1.886 1.184.192 2.2.059 4.524-.084 6.753.495.15.92.594.966 1.12Zm18.14-11.85c-2.004.224-8.256.915-9.871 1.731-.139.06-.183.112-.374.129.201 2.295.358 4.643.559 6.938 3.118-.707 6.309-1.13 9.5-1.554.43-2.254.291-4.94.186-7.244Zm-21.678 5.559c-1.674.146-3.391.345-4.983.869-.092.057-.235.069-.331.077-.335.03-.634-.089-.89-.259.167 1.913.335 3.825.645 5.726 1.792-.446 3.597-.749 5.406-1.003.132-1.795.212-3.633.153-5.41Zm73.511-22.766c.071.813-.4 1.48-1.209 1.6-1.187.2-2.478.313-3.669.465-2.431.31-4.813.614-7.248.875-.036 1.786-.188 5.558-1.114 7.084-.254.408-.663.685-1.141.727-.766.066-1.494-.544-1.56-1.31-.026-.286.053-.486.172-.785.643-1.454.725-3.822.783-5.37-1.148.101-2.243.245-3.387.394-2.626.277-5.199.599-7.821.925.466 3.67 2.082 12.779 6.733 13.625.686.132 1.254.565 1.317 1.282.092 1.052-.688 1.505-1.596 1.585-.478.042-1.772-.423-2.179-.677-4.798-2.519-6.518-10.608-7.136-15.469-2.095.28-4.239.564-6.326.94-1.326.26-5.74 1.031-6.648 2.22-.301.41-.571.627-1.097.673-.765.067-1.497-.591-1.564-1.357-.323-3.681 13.241-5.06 15.336-5.34-.163-1.865-.295-3.926-.219-5.811.033-.726.557-1.35 1.274-1.413.813-.071 1.584.488 1.608 1.305l.012.143c.064 1.826.027 3.612.186 5.429 3.813-.478 7.622-1.004 11.447-1.339a25.537 25.537 0 0 0-.12-1.917c-.071-.813-.242-1.665-.313-2.478-.067-.765.544-1.493 1.309-1.56 1.817-.159 1.748 2.353 1.853 3.548.058.67.121 1.387.132 2.06 2.339-.252 4.721-.557 7.056-.858 1.143-.148 2.33-.348 3.526-.453.813-.071 1.528.397 1.603 1.257Zm35.571 11.15a1.501 1.501 0 0 1-.882 1.475c-1.054 4.477-4.868 7.701-9.41 8.099-3.156.276-6.035-1.785-6.319-5.037-.406-4.638 4.94-6.31 8.622-6.632 1.483-.13 2.978-.116 4.446.14-.495-2.895-5.312-7.292-8.113-7.914-.69-.18-1.206-.57-1.269-1.287-.063-.717.243-1.08.791-1.418 1.32-.886 5.502-7.612 6.033-9.249-1.04-.873-3.333-1.202-4.61-1.476-.686-.132-1.162-.62-1.225-1.338a1.393 1.393 0 0 1 1.265-1.508c.144-.013.287-.025.387.014 2.098.299 6.857 1.28 7.092 3.957.184 2.104-4.262 8.564-5.746 10.332 3.392 1.872 7.933 5.86 8.293 9.971.025.287.002.579.027.865.356.21.585.624.618 1.006Zm-3.727.905c-1.324-.27-2.724-.292-4.063-.175-1.817.16-6.222 1.026-6 3.56.146 1.674 1.673 2.601 3.251 2.463 3.347-.293 5.988-2.596 6.812-5.848Zm54.142-.738c.042.478-.077.778-.382 1.142-1.702 2.028-5.955 4.086-8.585 4.316-4.303.377-9.689-.598-10.145-5.81-.368-4.207 2.531-7.978 5.586-10.51-1.867-3.162-2.851-7.798-3.169-11.432-.18-2.056-.3-5.08.202-7.052.185-.643.626-1.115 1.295-1.174a1.414 1.414 0 0 1 1.56 1.31c.013.143.021.239-.014.386-.342 2.15-.349 4.271-.165 6.375.276 3.156 1.053 7.087 2.595 9.843 1.638-1.107 4.716-2.822 6.677-2.993.765-.067 1.533.444 1.604 1.257.075.86-.409 1.385-1.21 1.6-.752.21-1.413.364-2.109.666-4.043 1.703-10.409 6.596-9.982 11.473.292 3.348 4.494 3.462 7.029 3.24 2.486-.217 4.947-1.83 6.73-3.48.266-.264.54-.433.923-.466.765-.067 1.493.544 1.56 1.31Zm57.048-24.794c.067.765-.548 1.445-1.313 1.512-2.487.217-5.013.535-7.495.8a7.135 7.135 0 0 0-.008 1.013c.037 2.068.029 4.19.018 6.262-.012.965.091 2.69-.021 3.615-.081.73-.189.595-.577 1.111l-.418.181-.044.052c-1.548.473-3.266.671-4.883.91-1.952.266-3.9.581-5.861.753-.765.067-1.484-.448-1.556-1.261-.087-1.005.592-1.498 1.501-1.577-.281-3.204-.461-6.368-.646-9.58-2.717.334-5.386.664-8.099 1.046.56 6.407 1.169 12.81 1.825 19.21 1.056-.044 2.06-.132 3.112-.224 5.595-.49 12.516-1.24 17.935-2.63l.239-.02c.813-.072 1.441.5 1.513 1.313.062.717-.37 1.285-1.027 1.487-1.592.525-4.544.927-6.253 1.222-3.996.59-8 1.085-12.017 1.436-1.243.109-3.577.41-4.794.275-.777-.076-1.146-.43-1.356-1.182-.154-.661-.178-1.478-.232-2.1-.173-1.43-.342-2.813-.468-4.247-.462-4.73-.924-9.46-1.338-14.194-3.331.484-6.721.83-9.987 1.5-.044.052-.14.06-.187.065-.765.067-1.446-.548-1.513-1.313-.071-.813.366-1.333 1.118-1.543.983-.327 2.231-.388 3.274-.576a350.93 350.93 0 0 1 7.044-1.002c-.155-1.769-.31-3.538-.417-5.312-.058-.67-.173-1.43-.136-2.108.025-.821.552-1.397 1.365-1.468.813-.072 1.45.596 1.517 1.36.209 2.392.322 4.79.532 7.182 2.713-.382 5.478-.72 8.195-1.055-.126-2.542-.304-5.129-.383-7.676-.083-.956-.238-2.725-.126-3.65.081-.73.56-1.302 1.326-1.37.765-.066 1.536.493 1.555 1.262l.013.143c.127 3.651.205 7.306.428 10.949l6.964-.802-.042-5.441c.029-.774-.051-1.682.026-2.46.08-.73.513-1.297 1.325-1.369.766-.066 1.537.492 1.561 1.31l.012.143c.074 2.499-.047 4.967-.021 7.47 2.291-.248 4.578-.545 6.873-.746.957-.083 1.847.176 1.947 1.324Zm-11.669 2.659c-2.243.244-4.534.493-6.773.785.18 3.164.365 6.377.641 9.532 2.048-.275 4.096-.55 6.131-.97-.012-2.89-.072-5.775-.036-8.67-.021-.239.01-.434.037-.677Zm62.408 6.73c.067.765-.552 1.398-1.317 1.465-1.578.138-4.333.041-5.861-.355-3.795-.969-9.365-5.155-12.473-7.63-.827-.65-1.751-1.292-2.492-2.046-.264-.267-.432-.54-.466-.923-.042-.479.199-1.03.613-1.259-1.195.105-2.387.257-3.582.362-4.832 7.554-11.195 14.133-18.28 19.62-.226.164-.457.28-.744.306a1.342 1.342 0 0 1-1.456-1.222c-.046-.526.16-.93.517-1.25 1.839-1.558 3.687-3.02 5.474-4.622 4.054-3.776 7.741-7.905 10.911-12.423-1.952.267-3.883.774-5.844.945l-.191.017c-.718.063-1.281-.322-1.487-1.026-.336-1.08-.444-2.322-.588-3.418a136.255 136.255 0 0 1-.909-7.63c-.134-1.53-.416-4.204-.211-5.715.085-.682.521-1.202 1.239-1.265.765-.067 1.393.505 1.46 1.27l.017.19c-.097 1.648.097 3.317.239 4.943l.222 2.534c2.792-.581 5.657-.88 8.47-1.223-.082-1.486-.256-2.917-.242-4.412-2.1.232-3.921.343-5.935 1.002-.096.008-.187.064-.331.077-.717.063-1.441-.5-1.508-1.266-.058-.67.33-1.185.935-1.43 1.811-.785 10.418-1.538 12.809-1.748l4.59-.401c.626-.007 1.339-.117 2.013-.128.725.033 1.432.405 1.503 1.217.176 2.009.213 4.078.297 6.142.061 2.356.079 4.763-.003 7.131.499.198.828.65.874 1.177.071.813-.508 1.345-1.269 1.46-1.192.152-2.443.165-3.591.266-1.387.121-2.721.286-4.06.403.1.04.247.075.351.162 3.32 2.697 9.72 8.112 13.758 9.108 1.676.431 3.394.233 5.084.278.821.024 1.393.504 1.464 1.317Zm-17.402.463c.348 3.969.556 7.998.325 11.969-.06.969-.072 1.933-.231 2.863-.164.882-.717 1.17-1.53 1.242-.622.054-1.215-.665-1.265-1.239-.008-.095.031-.195.023-.29.608-6.27.066-11.908-.477-18.124-.067-.765.448-1.485 1.213-1.552.813-.07 1.433.405 1.552 1.214.208 1.282.278 2.626.39 3.917Zm-9.769-2.615c.436 4.973.181 11.982-2.076 16.468-.249.455-.607.776-1.133.822-.813.07-1.437-.453-1.512-1.314-.017-.19.01-.434.089-.634 1.981-4.895 2.363-9.891 1.907-15.103a1.393 1.393 0 0 1 1.265-1.508c.765-.067 1.393.504 1.46 1.27ZM439.369 52.8c-1.099.096-2.203.145-3.255.236l-2.009.176c-1.147.1-2.291.249-3.438.35.077 1.438.159 2.924.285 4.359 2.864-.299 5.677-.641 8.555-.797-.03-1.443-.06-2.886-.138-4.324Zm.233 7.062-1.291.113c-2.391.21-4.73.462-7.117.72.134 1.53.312 3.008.446 4.538 2.625-.278 5.303-.512 7.933-.742.057-1.547.067-3.09.029-4.629Zm-10.684 5.657c-.182-1.526-.359-3.004-.493-4.534-2.765.338-5.63.637-8.374 1.214.178 1.479.403 2.952.628 4.426 2.701-.525 5.47-.815 8.239-1.106Zm70.892 7.867c.066.766-.549 1.446-1.314 1.513-.095.008-.239.02-.339-.019a52.247 52.247 0 0 0-5.539-.527c-.67 2.805-2.64 7.266-5.988 7.559-3.251.284-6.77-1.384-7.084-4.97-.351-4.017 5.189-5.128 8.106-5.383.813-.071 1.582-.09 2.399-.113.008-1.013-.084-2.065-.172-3.07-.263-3.012-.67-6.012-1.169-8.955-2.526.317-5.474.768-7.336 2.617a1.549 1.549 0 0 1-.97.47c-.765.067-1.493-.544-1.56-1.309-.034-.382.08-.73.342-1.041 1.916-2.336 6.225-3.195 9.038-3.538-.102-.617-.304-1.274-.358-1.896a1.444 1.444 0 0 1 1.309-1.56c1.625-.142 1.674 2.07 1.87 3.21 1.057-.045 2.113-.089 3.177-.038.726.033 1.346.51 1.413 1.274.071.813-.496 1.49-1.262 1.556-.908.08-1.925.024-2.837.056.502 2.991.909 5.991 1.173 9.004.096 1.1.192 2.2.193 3.308 1.834.032 3.823.195 5.634.518.687.133 1.211.617 1.274 1.334Zm-29.005 10.488c.046.526-.199 1.03-.652 1.358-.27.217-.596.341-.867.558-.862.605-1.803 1.41-2.903 1.507-3.443.3-4.216-6.329-4.404-8.48-.431-4.926-.023-15.128 1.466-19.595.193-.547.637-.971 1.259-1.026.765-.067 1.45.596 1.512 1.314a1.73 1.73 0 0 1-.049.534c-1.391 5.036-1.792 13.118-1.332 18.378.122 1.386.523 4.869 1.484 5.941.783-.406 2.261-1.691 2.978-1.754.765-.067 1.441.5 1.508 1.265Zm18.871-9.553c-.578.003-1.203.01-1.777.06-1.339.117-4.191.559-5.16 1.607-.174.208-.397.42-.371.707.171 1.96 2.39 2.538 4.016 2.395 1.578-.138 2.971-3.488 3.292-4.769Zm55.136-13.063c.067.765-.505 1.393-1.27 1.46-.478.042-.777-.076-1.098-.434-.853-.937-4.239-3.29-5.393-3.816-.503-.245-.824-.603-.874-1.176-.067-.766.453-1.437 1.266-1.509 1.243-.108 6.097 3.61 7.007 4.64.212.222.332.5.362.835Zm-17.476-12.492c.067.765-.504 1.393-1.269 1.46-.67.058-1.181-.282-1.427-.887-.435-1.118-2.187-3.519-3.079-4.356-.264-.266-.433-.54-.466-.923a1.393 1.393 0 0 1 1.265-1.508c.335-.03.734.128.994.346.936.786 3.878 4.672 3.982 5.868Zm16.755 2.051c.063.717-.452 1.437-1.218 1.504l-.191.017c-2.516-.117-5.094.156-7.628.378-1.53.134-3.06.268-4.586.45.184 2.103.877 10.571.389 12.156-.189.594-.586 1.015-1.208 1.07a1.393 1.393 0 0 1-1.508-1.266 1.735 1.735 0 0 1 .054-.487c.344-1.572-.22-8.027-.383-9.892l-.113-1.291c-1.196.104-2.435.261-3.63.366.046.526.048 1.104.046 1.634.07 2.451.092 4.906.306 7.345.058.67.121 1.387.327 2.092.009.095.065.187.073.282.063.718-.548 1.446-1.265 1.508-1.77.155-1.761-2.496-1.861-3.643-.217-2.487-.248-5.038-.322-7.537l-.022-1.347c-3.243.38-6.478.856-9.66 1.375-1.235.204-2.41.548-3.653.657l-.191.017a1.393 1.393 0 0 1-1.508-1.266c-.063-.717.417-1.29 1.078-1.443.896-.223 1.896-.359 2.844-.538 2.135-.38 4.326-.668 6.517-.956a365.615 365.615 0 0 1 17.655-1.978c1.865-.163 6.638-.677 8.393-.445.682.085 1.202.52 1.265 1.238Zm1.481 32.346c.146 1.674-2.675 1.92-3.823 2.021-1.386.121-2.838.056-4.179-.405-1.241-.422-2.504-1.082-3.666-1.703a396.868 396.868 0 0 1-6.204-3.167c-2.643 2.833-5.831 6.05-9.231 7.938a1.28 1.28 0 0 1-.561.194 1.393 1.393 0 0 1-1.508-1.266 1.384 1.384 0 0 1 .656-1.31c3.101-2.006 5.655-4.205 8.119-6.877-.707-.372-4.733-2.333-5.097-2.638-.559.771-1.217 1.504-1.828 2.231a1.43 1.43 0 0 1-.923.467c-.813.07-1.437-.453-1.508-1.266-.034-.382.085-.682.299-.99l1.654-2.023c1.439-1.716 2.832-3.428 4.319-5.148.833-.94 1.706-1.98 2.648-2.786.27-.216.5-.333.835-.362.67-.058 1.242.422 1.439 1.03 1.439-.077 7.098-.38 8.209.198.503.245.776.607.822 1.133.029.334-.046.582-.216.838-.463.763-1.022 1.534-1.537 2.254-1.498 2.155-3.1 4.222-4.754 6.246l5.548 2.84c1.059.533 2.222 1.154 3.363 1.536.99.3 2.055.35 3.059.263.765-.067 1.522-.23 2.226-.436.092-.056.235-.069.331-.077.765-.067 1.441.5 1.508 1.265ZM518.013 58.4c.02.239-.011.434-.09.634-.232.647-.608 1.306-.893 1.91-1.609 3.08-4.007 6.517-7.029 8.323-.183.113-.37.177-.609.198-.765.067-1.397-.552-1.46-1.27a1.334 1.334 0 0 1 .656-1.31c3.232-2.161 5.208-5.466 6.784-8.929.197-.499.607-.775 1.18-.826.765-.067 1.394.505 1.461 1.27Zm14.193 11.334c-2.025-.016-4.046.017-6.054.192-.335.03-.665.107-1.004.088-1.147 1.209-2.19 2.505-3.281 3.805 1.753.762 3.475 1.72 5.193 2.63a99.55 99.55 0 0 0 5.146-6.715Zm61.382-8.31c.418 4.782-3.299 10.215-6.538 13.39-.624.584-1.287 1.268-2.014 1.766-.226.164-.509.237-.796.262-.813.071-1.489-.496-1.556-1.261-.05-.574.16-.93.561-1.302.798-.793 1.704-1.45 2.45-2.286 2.342-2.422 5.333-6.779 5.024-10.317-.272-3.108-1.641-4.434-4.797-4.158-5.403.473-12.747 4.102-17.527 6.737.016 2.938.132 5.915.387 8.832.155 1.77.453 3.526.703 5.287l.013.143c.119.809-.552 1.398-1.318 1.465-.765.067-1.289-.418-1.495-1.122-.425-1.553-.591-3.996-.733-5.622a127.113 127.113 0 0 1-.405-7.385c-2.43 1.417-4.999 2.895-7.204 4.678-.27.216-.496.38-.879.414a1.444 1.444 0 0 1-1.56-1.309c-.042-.478.124-.782.43-1.146.868-1.087 7.835-5.166 9.211-5.961-.07-3.56.19-18.76 1.713-20.628.305-.364.576-.58 1.054-.622.813-.071 1.445.548 1.512 1.313.033.383-.05.535-.212.886-.936 1.961-1.202 14.897-1.219 17.453 4.837-2.544 11.827-5.805 17.278-6.282 4.782-.419 7.494 1.946 7.917 6.776Zm-28.59-2.943c.063.717-.548 1.445-1.313 1.512-.382.034-.582-.045-.886-.211-1.67-.914-2.977-.992-4.872-1.164a1.432 1.432 0 0 1-1.268-1.286c-.067-.765.496-1.49 1.261-1.556l.239-.021c2.185.194 4.083.414 6.009 1.498.456.25.784.702.83 1.228Zm66.448 6.088a1.503 1.503 0 0 1-.883 1.475c-1.054 4.476-4.867 7.701-9.41 8.098-3.156.277-6.034-1.784-6.319-5.036-.406-4.638 4.941-6.31 8.623-6.633 1.482-.13 2.977-.116 4.445.142-.494-2.896-5.312-7.293-8.113-7.916-.69-.18-1.206-.569-1.269-1.286-.062-.717.243-1.081.792-1.418 1.32-.887 5.501-7.613 6.033-9.25-1.04-.872-3.334-1.201-4.611-1.475-.686-.133-1.162-.621-1.225-1.338a1.393 1.393 0 0 1 1.266-1.508c.143-.013.286-.026.386.014 2.098.298 6.858 1.28 7.092 3.957.184 2.104-4.262 8.564-5.745 10.332 3.392 1.871 7.933 5.859 8.292 9.971.025.287.003.578.028.865.355.21.584.624.618 1.006Zm-3.727.904c-1.325-.27-2.724-.291-4.063-.174-1.817.159-6.222 1.026-6.001 3.56.147 1.674 1.673 2.6 3.251 2.462 3.347-.292 5.989-2.595 6.813-5.848Zm38.007-1.205c.239 2.726-1.608 6.405-4.62 6.668-.431.038-.83-.12-1.146-.43-.283.073-.57.099-.857.124-2.247.196-5.046-.956-5.268-3.49-.255-2.917 2.034-7.599 5.237-7.879 2.726-.238 6.403 2.138 6.654 5.007Zm-2.869.251c-.096-1.1-2.338-2.493-3.534-2.389-1.482.13-2.732 3.467-2.619 4.759.067.764 1.718.91 2.244.863.717-.063 1.258-.495 1.831-.546.383-.033.73.081 1.042.343.567-.676 1.116-2.121 1.036-3.03ZM78.427 209.751c.063.718-.5 1.441-1.265 1.508a1.324 1.324 0 0 1-.435-.01c-3.379-.62-9.587.02-13.03.321-2.438.213-4.829.422-7.26.731-4.53.541-9.103 1.134-13.608 1.962-1.327.261-2.9.446-4.154.99a1.34 1.34 0 0 1-.835.362c-.765.067-1.49-.496-1.556-1.261-.034-.383.089-.634.255-.938.66-1.262 5.421-1.92 6.608-2.12 6.64-1.207 13.462-1.997 20.156-2.583.99-2.447.354-10.824.132-13.358-2.224-.094-4.476.054-6.676.247-1.769.155-7.694.721-9.045 1.803-.314.268-.54.433-.97.47-.766.067-1.494-.543-1.56-1.309-.268-3.06 9.603-3.683 11.133-3.816 1.721-.151 7.086-.524 8.657-.18.739.177 1.159.574 1.226 1.339.385 4.399.943 10.228.163 14.537 2.252-.149 8.959-.591 10.939.006.642.185 1.062.582 1.125 1.299Zm43.73-12.354a1.444 1.444 0 0 1-1.309 1.56l-.192.017c-2.742.047-5.488.046-8.214.285-6.551.573-12.91 2.237-19.413 2.806l-.096.009c-1.913.167-4.969.483-6.288-1.377-.16-.179-.229-.414-.25-.653-.07-.813.54-1.541 1.305-1.608 1.339-.117.778 1.185 3.695.929a8.292 8.292 0 0 0 1.096-.144c6.744-1.12 13.488-2.24 20.326-2.838 2.152-.188 5.881-.514 7.971-.312.73.081 1.302.561 1.369 1.326Zm45.497-4.27c.062.718-.37 1.285-1.027 1.487-1.031.332-3.661.562-4.756.706-3.622.461-7.3.831-10.925 1.245.001 2.216-.137 4.493.055 6.692.301 3.443 2.321 3.941 5.429 3.669 2.773-.242 5.496-1.059 8.124-1.867.095-.008.187-.065.283-.073.812-.071 1.54.54 1.612 1.353.058.669-.326 1.233-.979 1.483-2.284.874-6.203 1.795-8.69 2.013-4.733.414-8.196-1.162-8.648-6.327-.192-2.199-.054-4.476-.051-6.645a870.29 870.29 0 0 1-11.277 1.083c-1.004.088-1.715-.331-1.807-1.383-.071-.813.648-1.406 1.413-1.473l1.53-.134c3.395-.297 6.738-.638 10.129-.982l-.013-1.252c-.024-1.925 0-3.855.024-5.784.003-1.061.051-2.173-.041-3.225-2.909.351-6.013.671-8.763 1.73-.139.061-.331.078-.474.09a1.444 1.444 0 0 1-1.56-1.309c-.054-.622.286-1.133.839-1.422 2.586-1.287 11.181-2.183 14.432-2.468 2.152-.188 11.385-.948 12.672 0 .412.301.633.619.679 1.145.067.765-.496 1.489-1.262 1.556-.382.033-.725-.033-.985-.251-1.268-.178-2.703-.053-4.002-.035-2.447.117-4.843.279-7.281.492l-1.435.125.004.048c.092 1.052.089 2.113.081 3.125l-.038 6.171-.012.965 9.49-1.12c1.765-.202 3.682-.322 5.431-.716l.239-.021a1.444 1.444 0 0 1 1.56 1.309Zm48.625-18.082c.297 3.395-5.406 12.567-8.288 14.312a1.46 1.46 0 0 1-.609.198 1.444 1.444 0 0 1-1.56-1.309c-.055-.621.203-.981.652-1.358 2.57-2.007 5.769-7.298 6.701-10.415l-.86.075c-3.352.245-6.722.829-10.048 1.361-6.035.961-11.929 2.441-17.924 3.303l-.192.016c-.808.119-1.441-.5-1.512-1.313-.067-.765.417-1.289 1.122-1.495.705-.207 1.466-.321 2.179-.432l5.066-1.021c4.644-.889 9.341-1.733 14.049-2.434 2.235-.34 4.518-.684 6.813-.885 1.243-.109 4.235-.612 4.411 1.397Zm-13.871 9.983c.188 2.151-.045 4.436-.244 6.574-.293 3.254-.687 6.468-1.076 9.731-.103 1.021-.155 2.085-.354 3.114-.159.93-.76 1.223-1.621 1.299-.621.054-1.219-.713-1.265-1.239-.083-.956.261-2.528.369-3.501.437-3.267.822-6.577 1.111-9.879.171-1.894.378-3.936.211-5.848a1.414 1.414 0 0 1 1.309-1.56c.765-.067 1.493.543 1.56 1.309Zm53.064-10.859c.067.765-.497 1.489-1.262 1.556-.765.067-1.538.038-2.303.105-1.626.143-3.243.381-4.861.618-.709 2.905-1.614 5.779-2.619 8.613 1.399.023 2.815.236 4.196.597.742-.884 3.098-3.692 4.245-3.792.813-.072 1.533.444 1.604 1.257.05.573-.199 1.029-.652 1.358-.858.653-1.608 1.441-2.354 2.277 1.058.534 3.396 1.92 3.509 3.211.075.861-.496 1.489-1.309 1.56a1.449 1.449 0 0 1-1.302-.561c-.753-.898-1.72-1.488-2.771-1.926-1.423 1.908-4.188 6.101-3.97 8.587.117 1.339 1.66 1.349 2.712 1.257 1.864-.164 4.453-.872 6.124-1.596.278-.121.605-.246.939-.275.813-.071 1.446.548 1.513 1.313.054.622-.322 1.281-.931 1.479-2.393.739-4.717 1.713-7.251 1.935-2.773.243-5.691-.61-5.975-3.862-.272-3.108 2.21-7.228 3.922-9.691-1.52-.3-2.819-.283-4.302-.153-.813.071-1.536-.492-1.603-1.257-.034-.383.085-.682.251-.986 1.036-1.922 2.312-6.611 2.893-8.782-1.278.257-2.557.513-3.779.861l-1.405.46c-.096.009-.283.073-.379.082-.765.067-1.493-.544-1.56-1.309-.058-.67.374-1.238.979-1.483 2.097-.81 4.71-1.232 6.889-1.663.243-1.081.438-2.158.437-3.267.025-.821.552-1.397 1.365-1.468.861-.075 1.454.644 1.521 1.409.079.908-.12 1.937-.284 2.819a56.413 56.413 0 0 1 4.005-.495c1.243-.109 3.613-.557 3.768 1.212Zm63.239 21.739c.054.622-.199 1.03-.704 1.315-1.968 1.184-8.433 3.291-10.824 3.501-4.925.43-17.651-5.684-22.17-8.324-1.518 3.024-3.18 6.06-5.158 8.787-.301.412-.594.919-.947 1.288-.31.316-.584.484-1.015.522-.765.067-1.449-.596-1.512-1.313-.033-.383.089-.634.303-.942.599-.872 1.253-1.652 1.804-2.519 1.703-2.558 3.155-5.239 4.459-7.955.941-1.913 1.782-3.866 2.619-5.867.315-.798.631-1.597.995-2.399.245-.504.602-.824 1.176-.874.765-.067 1.441.5 1.508 1.265.067.765-2.529 6.341-3.059 7.447 3.214 2.032 6.867 3.591 10.369 5.068a494.77 494.77 0 0 1-1.261-18.826c-1.952.267-3.857.53-5.8.893-.09.634-.574 1.158-1.243 1.217-.622.054-1.081-.243-1.371-.796-.509-.871-1.052-7.617-1.165-8.908l-.401-4.591c-.059-.669-.173-1.43-.136-2.108.024-.821.504-1.393 1.365-1.468.813-.071 1.401.6 1.468 1.365.03.335.015.721.045 1.056 4.11-.938 8.353-1.454 12.513-1.817.861-.076 3.73-.327 4.468-.15.686.132 1.11.577 1.173 1.294.243 2.774-.16 7.531-.595 10.267.551.241.879.694.93 1.268.071.813-.605 1.354-1.318 1.464-.761.115-1.582.091-2.347.158-1.578.138-3.2.328-4.773.514.074 2.499.239 4.941.409 7.432a101.3 101.3 0 0 1 6.582-.768c1.196-.105 3.649-.705 3.812 1.16.075.86-.548 1.445-1.361 1.516-.957.084-1.965.124-2.921.207-1.961.172-3.969.348-5.913.711.182 2.634.369 5.316.599 7.946l.188 2.151c1.845.706 5.577 2.066 7.538 1.895 2.678-.235 7.247-1.984 9.645-3.205.187-.065.327-.125.518-.142.765-.067 1.441.5 1.508 1.265Zm-15.261-32.345c-.865.028-1.726.103-2.587.179-4.207.368-8.503.84-12.608 1.825l.171 1.961c.193 2.2.389 4.447.681 6.686 4.505-.828 9.083-1.373 13.626-1.77.583-2.701.72-6.086.717-8.881Zm59.852-3.212a1.394 1.394 0 0 1-1.266 1.508l-.239.021c-4.61-.368-9.233-.349-13.884-.086l.121 1.386c.134 1.53.22 3.065.21 4.607 2.985 1.619 4.76 4.836 5.053 8.183.611 6.982-1.721 16.678-6.311 22.042a1.38 1.38 0 0 1-.967.518c-.765.067-1.493-.544-1.56-1.309a1.382 1.382 0 0 1 .343-1.041c.729-1.028 1.462-2.008 2.088-3.122 2.579-4.659 4.054-11.485 3.586-16.841-.164-1.865-1-3.719-2.365-4.997-.4 5.335-2.014 16.077-8.9 16.679-4.351.381-6.202-3.697-6.524-7.379-.485-5.547 3.357-13.4 9.477-13.935a11.737 11.737 0 0 1 3.194.154 85.064 85.064 0 0 0-.21-3.499l-.108-1.243-1.483.129c-7.32.593-15.407 1.782-22.369 4.27-.139.061-.187.065-.33.077-.765.067-1.493-.544-1.56-1.309-.059-.669.33-1.185.934-1.431 1.393-.603 2.998-.985 4.459-1.353 6.264-1.657 12.734-2.608 19.141-3.169l.765-.067c-.175-.9-.747-2.488-.806-3.157-.067-.765.544-1.493 1.357-1.565.717-.062 1.185.33 1.435.983.431 1.071.644 2.401.887 3.536 3.36-.149 6.728-.203 10.109-.113 1.447.018 3.038.023 4.454.237.682.084 1.206.569 1.269 1.286Zm-17.976 9.33c-.937-.255-1.954-.311-2.911-.227-4.494.393-7.202 6.894-6.859 10.815.171 1.96.87 4.983 3.404 4.761 5.069-.443 6.214-11.577 6.366-15.349Zm57.997 15.789c.042.478-.076.778-.382 1.142-1.702 2.028-5.954 4.086-8.584 4.317-4.304.376-9.689-.598-10.145-5.81-.368-4.208 2.53-7.979 5.585-10.511-1.867-3.161-2.85-7.797-3.168-11.431-.18-2.057-.3-5.082.202-7.053.184-.642.625-1.115 1.294-1.173a1.414 1.414 0 0 1 1.56 1.309c.013.143.021.239-.014.386-.342 2.15-.349 4.271-.165 6.375.276 3.156 1.054 7.087 2.596 9.843 1.638-1.107 4.716-2.821 6.676-2.993.765-.067 1.533.444 1.604 1.257.075.861-.409 1.385-1.209 1.6-.753.21-1.414.364-2.11.666-4.043 1.703-10.409 6.596-9.982 11.474.293 3.347 4.495 3.461 7.029 3.239 2.486-.217 4.947-1.83 6.73-3.479.266-.265.541-.433.923-.467.765-.067 1.493.544 1.56 1.309Zm56.608-3.94a1.444 1.444 0 0 1-1.309 1.56 2.074 2.074 0 0 1-.534-.05c-8.102-2.279-14.828-7.568-21.085-12.996l-1.512-1.313c-2.657 5.436-7.407 14.477-12.031 18.35a1.34 1.34 0 0 1-.835.363c-.766.067-1.498-.592-1.565-1.357-.041-.478.121-.83.474-1.198.794-.84 1.644-1.589 2.385-2.473 5.363-6.444 10.171-17.032 13.343-24.826.671-1.697 1.342-3.394 1.96-5.134.277-.699.496-1.489.82-2.192.241-.551.642-.923 1.264-.978.765-.067 1.493.544 1.564 1.357.096 1.1-5.396 13.771-6.123 15.376l2.136 1.837c4.485 3.896 9.1 7.636 14.485 10.249a34.831 34.831 0 0 0 3.901 1.634l1.636.531c.599.237.968.59 1.026 1.26Zm45.672-.623c.067.765-.601 1.401-1.322 1.416l-.143.013a109.21 109.21 0 0 0-5.608.346c-7.029.615-14.089 1.425-21.068 2.614l-3.557.648-.191.017a1.444 1.444 0 0 1-1.56-1.309c-.067-.765.417-1.289 1.122-1.495 1.457-.417 3.126-.611 4.648-.841 2.948-.45 5.948-.857 8.952-1.216.034-3.473-.172-6.924-.33-10.379-3.912.438-7.792 1.26-11.713 1.603l-.143.012a1.414 1.414 0 0 1-1.56-1.309c-.067-.765.413-1.337 1.118-1.543 1.222-.348 2.704-.478 3.943-.634 2.714-.382 5.435-.668 8.152-1.002-.159-2.926-.363-5.799-.57-8.72-4.256.372-8.522 1.179-12.777 1.552-.813.071-1.533-.445-1.608-1.305-.163-1.865 1.135-7.953 1.525-10.108.066-.343.076-.777.19-1.124.185-.643.626-1.115 1.295-1.174a1.444 1.444 0 0 1 1.56 1.309c.042.478-.147 1.073-.249 1.564-.495 2.597-.995 5.146-1.295 7.774 2.665-.377 5.339-.659 8.008-.989a69.59 69.59 0 0 1 3.148-.372c-.046-.526-.044-1.056-.09-1.582l-.438-6.659c-.097-1.1-.245-2.244-.245-3.352.024-.821.452-1.437 1.313-1.512.813-.071 1.445.548 1.516 1.361.331 3.778.474 7.62.804 11.397l8.435-1.075c1.239-.157 2.47-.409 3.713-.518.813-.071 1.532.445 1.608 1.305.071.813-.457 1.389-1.214 1.552-1.322.308-2.808.39-4.143.555-2.713.382-5.478.72-8.195 1.054.207 2.921.414 5.843.574 8.768 2.391-.209 4.825-.471 7.216-.68 1.196-.104 2.67-.33 3.83-.287.869.021 1.437.453 1.516 1.361.075.861-.6 1.402-1.361 1.517-1.239.156-2.586.178-3.829.287-2.391.209-4.778.466-7.169.675.158 3.455.364 6.907.374 10.327a216.94 216.94 0 0 1 7.877-.834c1.578-.138 5.064-.491 6.52-.378.825.073 1.349.557 1.421 1.37Zm49.865-43.006c.067.765-.544 1.493-1.309 1.56-.621.054-.981-.203-1.314-.704-.606-.863-1.88-.558-2.001-1.945-.067-.765.448-1.485 1.261-1.556 1.052-.092 3.263 1.497 3.363 2.645Zm-4.565 5.651c.067.765-.544 1.493-1.309 1.56-.573.051-2.556-1.125-3.019-1.47-.312-.262-.585-.623-.623-1.054-.062-.717.549-1.445 1.314-1.512.621-.054 2.208 1.011 2.863 1.339.452.202.733.659.774 1.137Zm1.188 20.182a1.394 1.394 0 0 1-1.266 1.508 1.447 1.447 0 0 1-1.301-.561 230.553 230.553 0 0 0-4.403-5.156c-1.277-1.382-2.594-2.664-3.871-4.046a1.512 1.512 0 0 1-.414-.879 1.444 1.444 0 0 1 1.309-1.56c.43-.038.83.12 1.146.43 1.94 1.805 3.711 3.867 5.477 5.881.961 1.072 2.291 2.497 3.069 3.682.164.227.233.462.254.701Zm-15.832-3.626c.267 3.06-1.003 7.267-2.55 9.956-.669 1.167-1.735 2.754-3.217 2.883-1.291.113-4.099-1.135-4.224-2.569a1.443 1.443 0 0 1 1.309-1.56c1.052-.092 1.587 1.065 2.62 1.312 1.769-1.263 3.481-7.58 3.288-9.78-.033-.382-.119-.808-.296-1.178-.776-1.715-4.575-1.624-6.157-1.534-2.329 6.42-6.427 15.21-10.942 20.327a1.548 1.548 0 0 1-.971.471c-.765.067-1.445-.548-1.512-1.313-.033-.383.085-.682.299-.99.781-.984 1.563-1.968 2.292-2.995 3.158-4.661 5.639-9.889 7.682-15.176-.956.084-1.952.268-2.908.351-.765.067-1.489-.496-1.556-1.261-.071-.813.409-1.385 1.213-1.552 1.327-.26 2.953-.402 4.339-.524.374-1.237.7-2.47 1.121-3.712.189-.594.586-1.015 1.255-1.073.765-.067 1.493.544 1.56 1.309.042.478-.726 2.714-.919 3.26 3.902-.004 7.868.709 8.274 5.348Zm64.737-7.399c.067.765-.504 1.394-1.27 1.461-.478.041-.777-.077-1.098-.434-.852-.938-4.238-3.292-5.393-3.817-.503-.245-.823-.602-.874-1.176-.066-.765.453-1.437 1.266-1.508 1.243-.109 6.098 3.61 7.007 4.639.212.222.333.501.362.835Zm-17.475-12.492c.067.765-.505 1.393-1.27 1.46-.669.059-1.181-.282-1.427-.887-.435-1.118-2.187-3.519-3.079-4.356-.264-.266-.433-.541-.466-.923a1.393 1.393 0 0 1 1.265-1.508c.335-.029.734.128.994.347.936.785 3.878 4.671 3.983 5.867Zm16.754 2.051c.063.718-.452 1.437-1.217 1.504l-.192.017c-2.515-.117-5.093.157-7.628.378-1.53.134-3.06.268-4.586.45.184 2.104.877 10.571.389 12.156-.189.595-.586 1.015-1.207 1.069a1.393 1.393 0 0 1-1.508-1.265 1.7 1.7 0 0 1 .053-.487c.345-1.572-.22-8.027-.383-9.892l-.113-1.291c-1.196.105-2.435.261-3.63.366.046.526.048 1.104.047 1.634.069 2.451.092 4.907.305 7.345.058.67.121 1.387.327 2.092.009.095.065.187.073.283.063.717-.548 1.445-1.265 1.508-1.769.154-1.76-2.497-1.861-3.644-.217-2.487-.248-5.038-.322-7.537l-.021-1.347c-3.243.38-6.478.856-9.661 1.375-1.235.205-2.41.548-3.653.657l-.191.017a1.393 1.393 0 0 1-1.508-1.266c-.063-.717.417-1.289 1.078-1.443.896-.223 1.896-.359 2.844-.538 2.135-.379 4.326-.668 6.518-.956a366.57 366.57 0 0 1 17.654-1.978c1.865-.163 6.639-.677 8.394-.445.682.085 1.202.521 1.264 1.238Zm1.481 32.346c.147 1.674-2.675 1.921-3.822 2.021-1.387.122-2.838.056-4.18-.405-1.241-.421-2.503-1.082-3.666-1.703-2.065-1.024-4.134-2.096-6.204-3.167-2.643 2.833-5.83 6.051-9.231 7.938-.183.113-.37.177-.561.194a1.393 1.393 0 0 1-1.508-1.265 1.383 1.383 0 0 1 .656-1.31c3.101-2.006 5.655-4.205 8.12-6.878-.707-.372-4.734-2.333-5.098-2.638-.559.772-1.217 1.504-1.828 2.232-.218.26-.588.437-.923.466-.813.071-1.437-.453-1.508-1.265-.033-.383.085-.682.299-.99l1.654-2.024c1.44-1.716 2.832-3.428 4.32-5.148.833-.94 1.705-1.98 2.647-2.785.27-.217.501-.333.835-.363.67-.058 1.242.422 1.44 1.031 1.438-.078 7.098-.38 8.208.197.503.245.776.607.822 1.133a1.21 1.21 0 0 1-.216.838c-.463.763-1.022 1.535-1.537 2.254-1.498 2.155-3.1 4.223-4.754 6.246l5.549 2.84c1.058.533 2.221 1.154 3.363 1.536.989.299 2.054.351 3.058.263a11.63 11.63 0 0 0 2.227-.436c.091-.056.234-.069.33-.077.765-.067 1.441.5 1.508 1.265Zm-27.559-24.764c.021.239-.01.435-.089.634-.233.647-.609 1.306-.893 1.909-1.61 3.08-4.007 6.518-7.029 8.325-.183.112-.37.177-.61.198-.765.066-1.397-.553-1.46-1.27a1.332 1.332 0 0 1 .657-1.31c3.231-2.162 5.207-5.467 6.783-8.929.197-.499.607-.776 1.181-.826.765-.067 1.393.504 1.46 1.269Zm14.194 11.334c-2.025-.015-4.046.017-6.055.193-.334.029-.665.106-1.004.087-1.147 1.209-2.19 2.505-3.281 3.805 1.753.762 3.475 1.72 5.193 2.629a99.792 99.792 0 0 0 5.147-6.714Zm61.381-8.309c.418 4.782-3.298 10.214-6.538 13.389-.623.584-1.286 1.269-2.014 1.766-.226.164-.509.237-.796.262-.813.071-1.489-.496-1.556-1.261-.05-.574.16-.929.561-1.302.798-.792 1.704-1.45 2.45-2.286 2.342-2.421 5.334-6.779 5.024-10.317-.272-3.108-1.641-4.434-4.797-4.158-5.403.473-12.747 4.103-17.527 6.737.016 2.938.132 5.915.387 8.832.155 1.769.453 3.526.704 5.287l.012.143c.119.809-.552 1.398-1.317 1.465-.765.067-1.29-.417-1.496-1.122-.425-1.553-.59-3.996-.732-5.622a126.185 126.185 0 0 1-.406-7.384c-2.429 1.417-4.998 2.894-7.203 4.677-.271.217-.497.381-.88.414a1.444 1.444 0 0 1-1.56-1.309c-.041-.478.125-.781.43-1.145.869-1.088 7.836-5.167 9.212-5.962-.071-3.559.189-18.76 1.712-20.628.306-.364.576-.58 1.054-.622.813-.071 1.445.548 1.512 1.313.034.383-.049.535-.211.886-.937 1.961-1.203 14.898-1.22 17.453 4.837-2.543 11.827-5.805 17.278-6.282 4.782-.418 7.495 1.946 7.917 6.776Zm-28.589-2.944c.062.718-.548 1.446-1.313 1.513-.383.033-.583-.046-.886-.212-1.67-.914-2.978-.992-4.872-1.164a1.434 1.434 0 0 1-1.269-1.286c-.067-.765.496-1.489 1.261-1.556l.239-.021c2.185.194 4.084.414 6.01 1.498.455.249.784.702.83 1.228Zm66.447 6.088a1.503 1.503 0 0 1-.883 1.475c-1.053 4.477-4.867 7.701-9.41 8.099-3.156.276-6.034-1.785-6.319-5.037-.405-4.638 4.941-6.31 8.623-6.632 1.482-.13 2.977-.116 4.445.141-.494-2.896-5.311-7.293-8.112-7.915-.691-.181-1.207-.569-1.269-1.287-.063-.717.242-1.081.791-1.418 1.32-.886 5.502-7.612 6.033-9.249-1.04-.873-3.334-1.202-4.61-1.476-.686-.133-1.163-.621-1.226-1.338a1.394 1.394 0 0 1 1.266-1.508c.143-.013.287-.025.387.014 2.098.298 6.857 1.279 7.091 3.957.185 2.104-4.261 8.564-5.745 10.332 3.392 1.872 7.933 5.859 8.293 9.971.025.287.002.578.027.865.356.21.585.624.618 1.006Zm-3.727.905c-1.325-.27-2.724-.292-4.063-.175-1.817.159-6.222 1.026-6 3.56.146 1.674 1.673 2.601 3.251 2.463 3.347-.293 5.988-2.596 6.812-5.848Z" fill="#B31937"/></svg>