<svg width="552" height="400" fill="none" xmlns="http://www.w3.org/2000/svg"><path fill="#fff" d="M.339 34.95 395.292.396l8.454 96.631L8.793 131.581zm10.328 199 419.965-36.742 8.454 96.63L19.12 330.582z"/><path fill="#fff" d="m169.737 105.479 362.609-31.724 8.454 96.63-362.609 31.725zm10.328 197 362.609-31.724 8.454 96.63-362.609 31.725z"/><path d="M80.79 60.687c.087 1.004-.912 3.356-1.562 4.184-.258.36-.623.584-1.054.622-.765.067-1.397-.553-1.46-1.27-.054-.621.505-1.393.793-1.948-1.92.071-3.834.239-5.794.41l-2.678.234c-.087 1.213-.343 3.789-.777 4.887-.197.499-.598.871-1.172.921a1.393 1.393 0 0 1-1.508-1.265c-.021-.239.01-.434.089-.634.382-1.142.465-2.402.551-3.614-3.2.328-6.399.656-9.586 1.128.256 1.278.565 2.6 1.056 3.81.065.187.125.327.142.518.07.813-.505 1.393-1.27 1.46-.574.05-1.085-.29-1.366-.748-.566-.962-1.131-3.563-1.323-4.654-3.14.467-8.326 1.21-11.195 2.57-.187.064-.326.124-.517.141a1.393 1.393 0 0 1-1.508-1.265 1.415 1.415 0 0 1 .7-1.363c2.342-1.313 9.282-2.402 12.038-2.836a53.88 53.88 0 0 1-.486-3.908c-.067-.765.4-1.48 1.213-1.552.765-.067 1.441.5 1.556 1.262.205 1.234.27 2.53.474 3.765a368.61 368.61 0 0 1 10.256-1.187c.11-1.503.027-2.99.037-4.532-.023-.817.504-1.394 1.317-1.465.765-.067 1.402.6 1.465 1.318.125 1.434.068 2.981.002 4.432l2.582-.225c1.721-.151 3.443-.302 5.216-.409.77-.019 1.626-.142 2.404-.065.678.037 1.302.56 1.364 1.278Zm1.527 22.416c.063.717-.557 1.35-1.23 1.36l-.144.013c-2.016.08-4.033.16-6.09.34-3.299.288-6.637.677-9.929 1.061 3.316 2.65 11.912 8.932 16.264 8.551a1.393 1.393 0 0 1 .242 2.774c-5.547.485-14.463-6.155-18.706-9.494-1.736 5.5-5.32 10.246-10.474 13.01-.183.113-.374.129-.566.146a1.393 1.393 0 0 1-1.508-1.265c-.05-.574.3-.99.752-1.319.775-.501 1.555-.955 2.326-1.504 3.433-2.614 5.723-6.187 6.953-10.293-5.382.711-10.96 1.392-16.18 2.86-.096.009-.187.065-.283.073-.765.068-1.489-.496-1.556-1.26-.062-.718.374-1.238 1.027-1.488.883-.366 2.027-.514 2.97-.742 2.18-.431 4.41-.819 6.597-1.155-.549-3.517-.958-7.095-1.272-10.682-.088-1.004-.253-2.338 1.182-2.464.67-.059 1.237.374 1.391 1.035 2.145-.814 4.468-1.258 6.702-1.599-.162-.756-.377-1.557-.444-2.322a1.393 1.393 0 0 1 1.266-1.508c1.626-.142 1.695 2.31 1.94 3.444 1.143-.148 2.338-.252 3.486-.353 1.578-.138 4.156-.412 5.71-.259.779.077 1.303.561 1.37 1.326.109 1.243.122 2.495.135 3.747.057 2.307.166 4.659-.015 6.988 1.673-.147 5.064-.492 6.663-.39.826.072 1.346.508 1.42 1.369ZM71.397 72.83c-1.253.013-2.544.126-3.787.235a94.729 94.729 0 0 0-3.678.37l.063.717a35.659 35.659 0 0 1-.217 9.078c2.573-.322 5.1-.639 7.681-.865.259-3.106.018-6.41-.063-9.535Zm-10.215 1.665-.058-.67c-2.092.328-4.223.755-6.229 1.51-.139.06-.33.076-.474.089.308 2.96.667 5.964 1.07 8.916l5.378-.76c.51-2.983.625-6.077.313-9.085Zm71.448-1.192c.138 1.578-2.143 1.392-3.147 1.48-2.964.26-5.964.667-8.921 1.022-4.334.572-8.64 1.478-12.991 1.859l-.096.008c-.717.063-1.393-.504-1.456-1.221-.062-.718.47-1.246 1.131-1.4.756-.163 1.569-.234 2.33-.349 1.805-.302 3.613-.557 5.422-.811a83.288 83.288 0 0 1 .151-5.988c-1.522.23-3.096.415-4.553.832-.096.008-.187.064-.235.068-.765.067-1.441-.5-1.504-1.217-.058-.67.378-1.19.987-1.387 1.262-.448 4.031-.739 5.409-.956.049-1.642.142-3.337.239-4.983-1.383.169-2.796.533-4.183.655l-.239.02a1.342 1.342 0 0 1-1.456-1.221c-.054-.622.378-1.19.987-1.387 1.074-.384 2.944-.499 4.087-.647 2.809-.39 5.622-.733 8.443-.98 1.147-.1 2.987-.55 3.138 1.171.134 1.53-1.761 1.359-2.765 1.447-1.769.155-3.578.41-5.343.612l-.247 4.888c2.096-.28 4.192-.56 6.296-.743 1.099-.097 2.291-.25 2.42 1.233.184 2.104.148 4.998.046 7.127.908-.08 1.812-.206 2.721-.286 1.148-.1 3.179-.567 3.329 1.154Zm-30.245-13.061c.058.67-.509 1.345-1.226 1.408-.526.046-.838-.216-1.158-.573-.425-.445-3.415-1.58-4.11-1.81a1.308 1.308 0 0 1-.917-1.123c-.063-.718.409-1.385 1.174-1.452 1.052-.092 5.621 2.014 6.099 3.08.061.14.121.278.138.47Zm26.095 19.592c.154 1.77.395 8.927-.201 10.377-.197.499-.507.815-1.08.865-.67.059-1.242-.421-1.392-1.034-2.865.298-5.825.606-8.669 1.144l.033.382c.111.713-.461 1.341-1.178 1.404-.717.063-1.289-.417-1.443-1.078-.223-.896-.263-1.904-.347-2.86a114.205 114.205 0 0 1-.354-5.704c-.08-.908-.168-1.912-.104-2.833.033-.726.517-1.25 1.282-1.317.479-.042.938.255 1.215.665 2.509-.51 5.131-.835 7.665-1.057 1.052-.092 2.339-.252 3.412-.105.634.089 1.102.481 1.161 1.15Zm-20.219-14.662c.067.765-.513 1.298-1.226 1.409l-.191.016c-1.961.172-3.913.439-5.865.706-4.235.611-8.388 1.601-12.644 1.974l-.144.012a1.29 1.29 0 0 1-1.404-1.178c-.062-.717.374-1.237 1.03-1.44.658-.201 1.375-.264 2.088-.375 1.518-.277 3.04-.506 4.561-.736 4.044-.595 8.083-1.237 12.148-1.593.86-.075 1.567.297 1.647 1.205Zm-3.619 6.002c.063.718-.504 1.394-1.221 1.457-1.913.167-3.77.426-5.674.689-1.096.144-2.291.248-3.37.584-.096.008-.14.06-.235.068-.717.063-1.393-.504-1.456-1.221-.054-.622.33-1.186.94-1.383 1.074-.384 2.365-.497 3.508-.645 2-.271 4.048-.547 6.056-.722.718-.063 1.385.408 1.452 1.174Zm.421 5.36c.067.765-.409 1.385-1.17 1.5-2.852.442-5.773.65-8.613 1.235-.091.056-.14.06-.235.069-.717.063-1.345-.509-1.408-1.226-.058-.67.33-1.185.939-1.383 1.079-.335 2.418-.453 3.561-.6 1.809-.255 3.613-.558 5.431-.717.669-.058 1.428.357 1.495 1.122Zm.528 7.133c.192 2.2.193 4.416.19 6.585-.012.965.024 1.925-.04 2.846-.076.778-.517 1.25-1.33 1.321-.382.034-.846-.311-1.062-.582a49.385 49.385 0 0 0-4.57.641l.008.096c.11.713-.513 1.297-1.182 1.356-.478.042-.934-.207-1.206-.569-.766-1.041-1.345-7.11-1.47-8.544-.122-1.387-.368-3.1-.246-4.46.037-.678.47-1.246 1.186-1.308.766-.067 1.346.508 1.409 1.226 1.656-.338 3.365-.632 5.087-.783 1.052-.092 2.813-.342 3.082 1.08.081.378.11.713.144 1.095Zm18.37-16.93c-2.1.233-4.199.465-6.291.792-.067 1.982-.131 4.01-.151 5.988 2.152-.188 4.244-.516 6.387-.8.215-1.946.083-4.006.055-5.98Zm1.945 14.527-.812.07c-2.826.2-5.83.559-8.618 1.188.08 2.017.212 4.077.388 6.086 2.983-.599 6.083-.966 9.143-1.234.064-2.03.027-4.098-.101-6.11Zm-22.976 2.829c-1.817.159-3.726.374-5.514.868l.105 1.195c.124 1.965.387 3.87.697 5.77 1.61-.334 3.279-.528 4.905-.67.034-2.365.016-4.772-.193-7.163Zm61.939-25.608c.067.765-.496 1.489-1.261 1.556-.765.067-1.538.038-2.303.105-1.626.142-3.244.38-4.861.618-.709 2.905-1.614 5.779-2.619 8.613a17.78 17.78 0 0 1 4.196.597c.741-.884 3.098-3.692 4.245-3.793.813-.07 1.533.444 1.604 1.257.05.574-.199 1.03-.652 1.358-.858.654-1.609 1.442-2.355 2.278 1.059.534 3.397 1.92 3.51 3.21.075.861-.497 1.49-1.309 1.56a1.448 1.448 0 0 1-1.302-.56c-.753-.898-1.72-1.488-2.771-1.926-1.423 1.907-4.188 6.1-3.97 8.587.117 1.339 1.659 1.348 2.711 1.256 1.865-.163 4.453-.871 6.125-1.596.278-.12.605-.245.939-.275.813-.07 1.446.548 1.513 1.314.054.621-.322 1.28-.931 1.478-2.393.74-4.717 1.714-7.251 1.936-2.773.242-5.691-.61-5.975-3.862-.272-3.108 2.21-7.228 3.922-9.691-1.52-.3-2.82-.283-4.302-.154-.813.072-1.537-.492-1.603-1.257-.034-.382.084-.682.251-.985 1.036-1.922 2.312-6.611 2.893-8.782-1.278.256-2.557.513-3.779.86l-1.405.461c-.096.008-.283.073-.379.081-.765.067-1.493-.544-1.56-1.309-.058-.67.374-1.237.979-1.483 2.097-.81 4.71-1.23 6.889-1.662.243-1.082.438-2.159.437-3.267.024-.821.552-1.397 1.365-1.468.861-.076 1.454.643 1.521 1.408.079.909-.12 1.938-.284 2.82a56.69 56.69 0 0 1 4.004-.495c1.244-.109 3.614-.557 3.768 1.212Zm58.606-8.645c.063.718-.504 1.394-1.222 1.456-2.151.189-10.966 1.875-12.629 2.695-.183.113-.278.121-.517.142-.766.067-1.346-.509-1.409-1.226-.05-.574.199-1.03.704-1.314 1.559-.908 11.37-2.778 13.617-2.974.717-.063 1.393.504 1.456 1.221Zm2.899 10.01c.155 1.769-2.225 1.544-3.373 1.644-1.674.147-3.395.297-5.06.54.07 2.45.231 4.845.253 7.3a111.61 111.61 0 0 1 5.63-.636 1.312 1.312 0 0 1 1.456 1.222c.243 2.773.306 5.706-.029 8.482 1.004-.088 2.335-.3 2.46 1.134.067.765-.508 1.346-1.226 1.408-2.008.176-4.004.495-5.956.762-2.378.353-4.756.706-7.122 1.202l.012.143c.111.713-.452 1.437-1.217 1.504-.574.05-.934-.207-1.263-.66-.389-.593-.692-4.614-.755-5.33-.205-2.344-.319-4.743-.524-7.086a1.313 1.313 0 0 1 1.222-1.456c.478-.042.982.203 1.211.617 1.118-.436 2.305-.636 3.44-.88l-.262-7.397c-2.091.328-5.374.808-7.384 1.513-.091.057-.187.065-.283.073-.717.063-1.393-.504-1.456-1.222-.058-.669.378-1.189.983-1.435 2.054-.758 5.767-1.275 8.002-1.615-.116-1.87-.31-3.539-.321-5.32-.019-.77.508-1.346 1.273-1.413.718-.063 1.346.509 1.409 1.226.167 1.913.188 3.26.308 5.177 1.665-.242 3.387-.393 5.06-.54 1.148-.1 3.362-.679 3.512 1.043Zm-26.656-7.835c.063.718-.461 1.342-1.226 1.408-.526.046-.881-.163-1.202-.52-1.169-1.248-5.001-2.647-6.625-3.035-.591-.141-1.015-.586-1.07-1.207-.062-.718.509-1.346 1.226-1.408 1.578-.139 7.609 2.707 8.591 4.018.165.227.281.457.306.744Zm7.234 5.583c.067.765-.56 1.302-1.278 1.365-1.099.096-2.203.144-3.303.24-3.156.276-14.173 1.578-16.634 3.19-.226.165-.365.225-.652.25-.717.063-1.393-.505-1.456-1.222-.046-.526.164-.881.569-1.206 2.431-1.947 14.739-3.361 18.134-3.658 1.052-.092 2.148-.236 3.208-.233.773.029 1.341.461 1.412 1.274Zm-4.571 6.134a1.312 1.312 0 0 1-1.221 1.456c-1.291.113-6.826.741-7.788 1.307-.183.113-.274.169-.513.19-.718.063-1.389-.457-1.452-1.174a1.384 1.384 0 0 1 .656-1.31c1.42-.847 6.95-1.524 8.862-1.691.718-.063 1.394.504 1.456 1.222Zm.771 6.051.012.144c.078 1.439-1.286 1.269-2.29 1.357-2.056.18-5.2.6-7.11 1.345-.139.06-.326.124-.47.137-.765.067-1.393-.504-1.46-1.27a1.309 1.309 0 0 1 .708-1.266c1.428-.751 6.52-1.486 8.289-1.64.956-.084 2.256-.102 2.321 1.194Zm1.427 13.56c.126 1.434-1.222 1.456-2.226 1.544l-.091.056-.1-.04c-1.857.26-5.522.773-7.197 1.45a1.05 1.05 0 0 1-.379.08c-.478.042-1.48-.4-1.379-.89l-.052-.044c-.639-2.354-.817-4.94-1.03-7.379-.105-1.195-.636-3.413 1.133-3.568a1.29 1.29 0 0 1 1.404 1.178c1.081-.865 5.619-1.31 7.149-1.444.861-.076 1.794.132 1.887 1.184.192 2.2.058 4.524-.084 6.753.495.15.919.594.965 1.12Zm18.14-11.85c-2.004.223-8.255.915-9.87 1.73-.14.06-.183.113-.375.13.201 2.295.358 4.642.559 6.937 3.118-.706 6.31-1.13 9.501-1.554.429-2.254.29-4.94.185-7.243Zm-21.678 5.558c-1.673.147-3.391.345-4.983.87-.091.056-.235.069-.33.077-.335.03-.635-.09-.89-.26.167 1.913.334 3.826.645 5.726 1.792-.446 3.596-.748 5.405-1.003.132-1.794.212-3.632.153-5.41Zm73.512-22.765c.071.813-.401 1.48-1.209 1.599-1.187.2-2.478.313-3.67.466-2.43.309-4.813.613-7.247.875-.037 1.786-.188 5.557-1.115 7.084a1.5 1.5 0 0 1-1.141.726c-.765.067-1.493-.544-1.56-1.31-.025-.286.054-.486.172-.785.644-1.454.726-3.822.783-5.369-1.147.1-2.243.245-3.386.393-2.626.278-5.2.6-7.822.925.466 3.67 2.082 12.78 6.734 13.625.686.133 1.254.565 1.316 1.282.092 1.052-.687 1.506-1.596 1.585-.478.042-1.771-.423-2.179-.676-4.798-2.52-6.517-10.609-7.135-15.47-2.096.28-4.239.564-6.326.94-1.327.26-5.74 1.032-6.648 2.22-.302.411-.572.628-1.098.674-.765.067-1.497-.592-1.564-1.357-.322-3.682 13.241-5.061 15.337-5.341-.163-1.865-.295-3.925-.219-5.811.033-.726.556-1.35 1.273-1.412.813-.072 1.585.487 1.608 1.304l.013.144c.063 1.825.027 3.611.186 5.428 3.812-.478 7.621-1.004 11.447-1.339-.007-.625-.066-1.295-.12-1.916-.071-.813-.242-1.666-.313-2.479-.067-.765.544-1.493 1.309-1.56 1.817-.158 1.748 2.353 1.852 3.549.059.669.121 1.386.132 2.06a356.36 356.36 0 0 0 7.056-.858c1.144-.149 2.331-.349 3.526-.453.813-.072 1.529.396 1.604 1.257Zm35.571 11.15a1.503 1.503 0 0 1-.883 1.474c-1.054 4.477-4.867 7.702-9.41 8.1-3.156.275-6.034-1.786-6.319-5.037-.406-4.638 4.941-6.31 8.623-6.633 1.482-.13 2.977-.116 4.445.141-.494-2.896-5.312-7.293-8.113-7.915-.69-.18-1.206-.569-1.268-1.286-.063-.717.242-1.081.791-1.419 1.32-.886 5.501-7.612 6.033-9.248-1.04-.873-3.334-1.203-4.61-1.476-.687-.133-1.163-.621-1.226-1.339a1.394 1.394 0 0 1 1.266-1.508c.143-.012.287-.025.386.015 2.098.298 6.858 1.279 7.092 3.957.184 2.104-4.262 8.564-5.745 10.332 3.392 1.871 7.933 5.859 8.292 9.97.026.288.003.579.028.866.356.21.585.623.618 1.006Zm-3.727.904c-1.325-.27-2.724-.292-4.063-.174-1.817.159-6.222 1.026-6.001 3.56.147 1.674 1.673 2.6 3.251 2.462 3.348-.293 5.989-2.596 6.813-5.848Zm54.141-.737c.042.478-.076.777-.382 1.141-1.701 2.028-5.954 4.087-8.584 4.317-4.304.376-9.689-.598-10.145-5.81-.368-4.208 2.53-7.98 5.585-10.511-1.866-3.161-2.85-7.797-3.168-11.431-.18-2.056-.3-5.082.202-7.053.185-.642.625-1.114 1.295-1.173a1.415 1.415 0 0 1 1.56 1.309c.012.143.021.239-.015.387-.342 2.15-.349 4.27-.165 6.374.276 3.156 1.054 7.087 2.596 9.843 1.638-1.106 4.716-2.821 6.677-2.993.765-.067 1.532.444 1.603 1.257.075.861-.409 1.385-1.209 1.6-.753.21-1.414.364-2.11.666-4.043 1.703-10.409 6.596-9.982 11.474.293 3.347 4.495 3.461 7.029 3.24 2.487-.218 4.947-1.83 6.73-3.48.266-.264.541-.433.923-.466.765-.067 1.493.543 1.56 1.308Zm-125.854 87.574c.067.765-.548 1.445-1.313 1.512-2.487.217-5.013.535-7.495.8-.018.339-.037.678-.008 1.013.037 2.068.03 4.189.018 6.262-.012.965.091 2.69-.021 3.616-.08.729-.189.594-.577 1.11l-.418.181-.044.052c-1.548.473-3.266.671-4.883.909-1.952.267-3.9.582-5.861.754-.765.067-1.484-.448-1.555-1.261-.088-1.004.591-1.498 1.5-1.577-.28-3.204-.461-6.368-.646-9.58-2.717.334-5.386.664-8.099 1.046.56 6.407 1.169 12.811 1.825 19.21a68.807 68.807 0 0 0 3.112-.224c5.595-.49 12.516-1.24 17.935-2.63l.239-.021c.813-.071 1.442.501 1.513 1.314.062.717-.37 1.285-1.027 1.487-1.592.525-4.544.927-6.253 1.221-3.996.591-8 1.086-12.016 1.437-1.244.109-3.578.41-4.795.275-.777-.076-1.146-.43-1.356-1.182-.154-.661-.177-1.478-.232-2.1-.173-1.43-.342-2.813-.468-4.247-.462-4.73-.924-9.46-1.338-14.194-3.33.484-6.721.829-9.987 1.5-.044.052-.139.061-.187.065-.765.067-1.446-.548-1.512-1.313-.072-.813.365-1.333 1.117-1.543.984-.327 2.231-.388 3.275-.576 2.33-.348 4.708-.701 7.043-1.002-.155-1.769-.31-3.538-.416-5.312-.059-.669-.174-1.43-.137-2.108.025-.821.553-1.397 1.365-1.468.813-.071 1.45.596 1.517 1.361.209 2.391.323 4.79.532 7.181 2.713-.382 5.478-.721 8.195-1.055-.126-2.542-.304-5.129-.382-7.676-.084-.956-.239-2.725-.127-3.65.081-.73.561-1.302 1.326-1.369.765-.067 1.536.492 1.555 1.261l.013.143c.127 3.651.206 7.306.428 10.949l6.964-.802-.042-5.441c.029-.774-.051-1.682.026-2.46.081-.73.513-1.297 1.326-1.369.765-.066 1.536.492 1.56 1.309l.012.144c.074 2.499-.047 4.967-.021 7.47 2.291-.248 4.578-.545 6.873-.746.957-.083 1.847.176 1.947 1.324Zm-11.669 2.659c-2.243.244-4.534.493-6.773.785.181 3.164.365 6.377.641 9.532 2.048-.275 4.096-.551 6.131-.97-.012-2.89-.072-5.775-.036-8.669-.021-.24.011-.435.037-.678Zm62.408 6.73c.067.765-.552 1.398-1.317 1.465-1.578.138-4.333.041-5.861-.355-3.795-.969-9.365-5.155-12.473-7.63-.827-.65-1.751-1.292-2.491-2.047-.265-.266-.433-.54-.467-.922-.041-.479.199-1.03.613-1.259-1.195.105-2.387.257-3.582.362-4.832 7.554-11.195 14.133-18.28 19.62-.226.164-.457.281-.744.306a1.342 1.342 0 0 1-1.456-1.222c-.046-.526.16-.929.517-1.25 1.839-1.558 3.687-3.021 5.474-4.622 4.054-3.776 7.741-7.905 10.911-12.423-1.952.268-3.883.774-5.844.945l-.191.017c-.717.063-1.281-.322-1.487-1.026-.336-1.079-.444-2.322-.588-3.418a136.315 136.315 0 0 1-.909-7.63c-.134-1.53-.416-4.204-.211-5.715.085-.682.521-1.202 1.239-1.265.765-.067 1.393.504 1.46 1.27l.017.191c-.097 1.647.097 3.316.239 4.942l.222 2.534c2.792-.581 5.657-.88 8.47-1.223-.082-1.486-.256-2.917-.242-4.412-2.1.232-3.921.344-5.935 1.002-.096.008-.187.064-.331.077-.717.062-1.441-.501-1.508-1.266-.058-.669.33-1.185.935-1.431 1.811-.784 10.418-1.537 12.809-1.747l4.59-.401c.626-.007 1.339-.117 2.013-.128.725.033 1.432.405 1.503 1.217.176 2.009.213 4.077.297 6.142.061 2.356.079 4.763-.003 7.131.5.198.828.651.874 1.177.071.813-.508 1.345-1.269 1.46-1.192.152-2.443.165-3.591.266-1.386.121-2.721.286-4.06.403.1.04.247.075.351.162 3.32 2.697 9.72 8.112 13.759 9.108 1.676.431 3.393.233 5.083.278.821.024 1.393.504 1.464 1.317Zm-17.401.463c.347 3.968.555 7.998.324 11.969-.06.969-.072 1.933-.231 2.863-.164.882-.717 1.171-1.53 1.242-.622.054-1.214-.665-1.265-1.239-.008-.095.031-.195.023-.291.608-6.268.067-11.907-.477-18.123-.067-.765.448-1.485 1.213-1.552.813-.071 1.433.405 1.552 1.214.208 1.282.278 2.626.391 3.917Zm-9.769-2.615c.435 4.973.18 11.982-2.077 16.468-.249.455-.607.776-1.133.822-.813.071-1.437-.453-1.512-1.314-.017-.191.01-.434.089-.634 1.981-4.895 2.363-9.891 1.907-15.103a1.392 1.392 0 0 1 1.265-1.508c.765-.067 1.394.504 1.461 1.269Zm11.613-23.662c-1.099.096-2.203.144-3.255.236l-2.009.176c-1.147.101-2.291.249-3.438.349.077 1.439.159 2.925.285 4.36 2.865-.299 5.677-.641 8.555-.797-.03-1.443-.06-2.885-.138-4.324Zm.233 7.062-1.291.113c-2.391.21-4.73.462-7.117.719.134 1.531.312 3.009.446 4.539 2.625-.278 5.303-.512 7.933-.742.057-1.547.067-3.09.029-4.629Zm-10.684 5.657c-.181-1.526-.359-3.004-.493-4.534-2.765.338-5.63.637-8.374 1.214.178 1.478.403 2.952.628 4.426 2.701-.525 5.47-.815 8.239-1.106Zm70.892 7.867c.067.766-.548 1.446-1.314 1.513-.095.008-.239.021-.338-.019a52.429 52.429 0 0 0-5.539-.527c-.671 2.805-2.641 7.266-5.988 7.559-3.252.284-6.771-1.384-7.085-4.97-.351-4.017 5.189-5.128 8.106-5.383.813-.071 1.582-.09 2.399-.113.008-1.013-.084-2.065-.172-3.069-.263-3.013-.67-6.013-1.169-8.956-2.526.317-5.474.768-7.336 2.617a1.547 1.547 0 0 1-.97.47c-.765.067-1.493-.544-1.56-1.309-.034-.382.08-.729.342-1.041 1.916-2.336 6.225-3.195 9.038-3.538-.102-.617-.304-1.274-.358-1.896a1.444 1.444 0 0 1 1.309-1.56c1.626-.142 1.674 2.07 1.871 3.21 1.056-.045 2.112-.089 3.176-.037.726.032 1.346.508 1.413 1.273.071.813-.496 1.489-1.261 1.556-.909.08-1.926.024-2.838.056.502 2.991.909 5.991 1.173 9.004.096 1.099.192 2.199.193 3.307 1.834.033 3.823.196 5.635.519.686.133 1.21.617 1.273 1.334Zm-29.005 10.488c.046.526-.199 1.03-.652 1.358-.27.217-.596.342-.866.558-.863.605-1.804 1.41-2.904 1.507-3.443.301-4.216-6.329-4.404-8.481-.431-4.925-.023-15.127 1.466-19.594.193-.547.638-.971 1.259-1.026.765-.067 1.45.596 1.512 1.313a1.73 1.73 0 0 1-.049.535c-1.391 5.036-1.792 13.118-1.332 18.378.122 1.387.523 4.869 1.484 5.941.783-.406 2.261-1.691 2.978-1.754.765-.067 1.441.5 1.508 1.265Zm18.872-9.553c-.578.003-1.204.009-1.778.059-1.339.117-4.191.56-5.16 1.608-.174.208-.396.42-.371.707.171 1.961 2.39 2.538 4.016 2.395 1.578-.138 2.971-3.488 3.293-4.769Zm55.135-13.063c.067.765-.505 1.393-1.27 1.46-.478.042-.777-.076-1.098-.434-.853-.937-4.239-3.291-5.393-3.816-.503-.245-.824-.603-.874-1.176-.067-.766.453-1.437 1.266-1.508 1.243-.109 6.098 3.61 7.007 4.638.212.223.333.501.362.836Zm-17.475-12.492c.066.765-.505 1.393-1.27 1.46-.669.058-1.181-.282-1.427-.887-.435-1.119-2.187-3.519-3.079-4.356-.264-.266-.433-.541-.466-.923a1.393 1.393 0 0 1 1.265-1.508c.335-.03.734.128.994.346.936.786 3.878 4.672 3.983 5.868Zm16.754 2.051c.063.717-.452 1.437-1.217 1.504l-.192.017c-2.516-.117-5.093.156-7.628.378-1.53.134-3.06.268-4.586.449.184 2.104.877 10.572.389 12.157-.189.595-.586 1.015-1.207 1.069a1.393 1.393 0 0 1-1.509-1.265 1.738 1.738 0 0 1 .054-.487c.345-1.572-.22-8.027-.383-9.892l-.113-1.291c-1.196.104-2.435.261-3.63.366.046.526.048 1.104.046 1.634.07 2.451.092 4.906.306 7.345.058.67.121 1.387.327 2.092.009.095.065.187.073.282.063.718-.548 1.446-1.265 1.508-1.769.155-1.76-2.496-1.861-3.643-.217-2.487-.248-5.038-.322-7.537l-.021-1.347c-3.244.38-6.479.856-9.661 1.375-1.235.204-2.41.548-3.653.657l-.191.017a1.394 1.394 0 0 1-1.508-1.266c-.063-.717.417-1.289 1.078-1.443.896-.223 1.896-.359 2.844-.538 2.135-.38 4.326-.668 6.517-.956a365.488 365.488 0 0 1 17.655-1.978c1.865-.163 6.638-.677 8.393-.445.682.085 1.202.521 1.265 1.238Zm1.481 32.346c.146 1.674-2.675 1.921-3.823 2.021-1.386.121-2.837.056-4.179-.405-1.241-.422-2.504-1.082-3.666-1.703a395.199 395.199 0 0 1-6.204-3.168c-2.643 2.834-5.831 6.052-9.231 7.939-.183.113-.37.177-.561.194a1.393 1.393 0 0 1-1.508-1.266 1.384 1.384 0 0 1 .656-1.31c3.101-2.006 5.655-4.205 8.119-6.878-.707-.371-4.733-2.332-5.097-2.637-.559.771-1.217 1.504-1.828 2.232a1.43 1.43 0 0 1-.923.466c-.813.071-1.437-.453-1.508-1.266-.034-.382.085-.682.299-.989l1.654-2.024c1.44-1.716 2.832-3.428 4.319-5.148.834-.941 1.706-1.981 2.648-2.786.27-.216.501-.333.835-.362.67-.058 1.242.421 1.44 1.031 1.438-.078 7.097-.381 8.208.197.503.245.776.607.822 1.133.029.334-.046.582-.216.838-.463.763-1.022 1.534-1.537 2.254-1.498 2.155-3.1 4.222-4.754 6.246l5.549 2.839c1.058.534 2.221 1.155 3.362 1.537.99.299 2.055.35 3.059.263.765-.067 1.522-.23 2.226-.436.092-.056.235-.069.331-.077.765-.067 1.441.5 1.508 1.265Zm-27.559-24.764c.021.239-.011.434-.089.634-.233.647-.609 1.306-.893 1.909-1.61 3.08-4.008 6.518-7.03 8.324-.183.113-.37.177-.609.198-.765.067-1.397-.552-1.46-1.269a1.333 1.333 0 0 1 .656-1.31c3.232-2.162 5.208-5.467 6.784-8.93.197-.499.607-.775 1.18-.826.766-.067 1.394.505 1.461 1.27Zm14.194 11.334c-2.026-.016-4.046.017-6.055.192-.334.03-.665.107-1.004.088-1.147 1.209-2.19 2.505-3.281 3.805 1.753.762 3.475 1.719 5.193 2.629a99.792 99.792 0 0 0 5.147-6.714Zm61.381-8.309c.418 4.781-3.298 10.214-6.538 13.388-.624.585-1.286 1.269-2.014 1.767-.226.164-.509.237-.796.262-.813.071-1.489-.496-1.556-1.261-.05-.574.16-.93.561-1.302.798-.793 1.704-1.45 2.45-2.286 2.342-2.422 5.333-6.779 5.024-10.317-.272-3.109-1.641-4.434-4.797-4.158-5.403.473-12.747 4.102-17.527 6.737.016 2.938.132 5.915.387 8.832.155 1.769.453 3.526.703 5.287l.013.143c.119.809-.552 1.398-1.317 1.465-.766.067-1.29-.418-1.496-1.122-.425-1.553-.59-3.996-.733-5.622a127.096 127.096 0 0 1-.405-7.385c-2.43 1.418-4.999 2.895-7.204 4.678-.27.216-.496.381-.879.414a1.444 1.444 0 0 1-1.56-1.309c-.042-.478.124-.782.43-1.146.868-1.087 7.835-5.166 9.211-5.961-.07-3.56.19-18.76 1.713-20.628.306-.364.576-.58 1.054-.622.813-.071 1.445.548 1.512 1.313.034.383-.05.534-.212.886-.936 1.961-1.202 14.897-1.219 17.453 4.837-2.544 11.827-5.805 17.278-6.282 4.782-.419 7.494 1.946 7.917 6.776Zm-28.589-2.944c.062.717-.549 1.445-1.314 1.512-.382.034-.582-.045-.885-.211-1.67-.914-2.978-.993-4.872-1.164a1.434 1.434 0 0 1-1.269-1.286c-.067-.765.496-1.489 1.261-1.556l.239-.021c2.185.194 4.083.414 6.009 1.498.456.249.785.702.831 1.228Zm66.447 6.088a1.504 1.504 0 0 1-.883 1.475c-1.054 4.476-4.867 7.701-9.41 8.099-3.156.276-6.034-1.785-6.319-5.037-.406-4.638 4.941-6.311 8.623-6.633 1.482-.129 2.977-.116 4.445.141-.494-2.895-5.312-7.292-8.113-7.915-.69-.18-1.206-.569-1.269-1.286-.062-.717.243-1.081.792-1.418 1.32-.887 5.501-7.613 6.033-9.249-1.04-.873-3.334-1.202-4.61-1.476-.687-.133-1.163-.621-1.226-1.338a1.394 1.394 0 0 1 1.266-1.508c.143-.013.287-.026.386.014 2.098.298 6.858 1.279 7.092 3.957.184 2.104-4.262 8.564-5.745 10.332 3.392 1.871 7.933 5.859 8.292 9.971.026.287.003.578.028.865.356.21.585.623.618 1.006Zm-3.727.904c-1.325-.269-2.724-.291-4.063-.174-1.817.159-6.222 1.026-6.001 3.56.147 1.674 1.673 2.6 3.251 2.462 3.348-.293 5.989-2.596 6.813-5.848Zm38.007-1.205c.239 2.726-1.608 6.405-4.62 6.668-.431.038-.83-.12-1.146-.43-.283.073-.57.098-.857.124-2.247.196-5.046-.956-5.268-3.491-.255-2.916 2.034-7.598 5.237-7.878 2.726-.238 6.403 2.138 6.654 5.007Zm-2.869.251c-.096-1.1-2.338-2.494-3.534-2.389-1.482.13-2.732 3.467-2.619 4.758.067.766 1.718.91 2.244.864.717-.063 1.258-.495 1.831-.546.383-.033.73.081 1.042.343.568-.676 1.116-2.121 1.036-3.03ZM76.284 279.062c.064.717-.5 1.441-1.265 1.508a1.324 1.324 0 0 1-.434-.01c-3.379-.62-9.587.02-13.03.321-2.438.213-4.83.422-7.26.731-4.53.541-9.103 1.134-13.608 1.962-1.327.26-2.9.446-4.154.99a1.34 1.34 0 0 1-.836.362c-.765.067-1.488-.496-1.555-1.261-.034-.383.089-.635.255-.938.66-1.263 5.421-1.92 6.608-2.12 6.64-1.208 13.461-1.997 20.156-2.583.99-2.447.354-10.824.132-13.358-2.225-.095-4.476.054-6.676.247-1.769.154-7.694.721-9.045 1.803-.314.268-.54.433-.97.47-.766.067-1.494-.544-1.56-1.309-.269-3.06 9.603-3.683 11.133-3.817 1.721-.15 7.085-.523 8.657-.179.738.177 1.159.573 1.226 1.338.384 4.4.943 10.229.163 14.538 2.252-.149 8.959-.591 10.938.006.643.185 1.063.582 1.126 1.299Zm43.731-12.354a1.444 1.444 0 0 1-1.31 1.56l-.191.017c-2.742.047-5.489.046-8.214.285-6.551.573-12.91 2.237-19.413 2.806l-.096.009c-1.913.167-4.969.482-6.288-1.378-.16-.178-.229-.413-.25-.652-.071-.813.54-1.541 1.305-1.608 1.339-.117.778 1.185 3.695.929a8.292 8.292 0 0 0 1.096-.144c6.744-1.12 13.488-2.24 20.326-2.838 2.151-.188 5.881-.515 7.971-.312.73.081 1.302.561 1.369 1.326Zm45.497-4.27c.062.717-.37 1.285-1.027 1.487-1.031.331-3.661.562-4.756.706-3.622.461-7.3.831-10.925 1.244.001 2.217-.137 4.494.055 6.693.301 3.443 2.32 3.941 5.428 3.669 2.774-.243 5.497-1.059 8.125-1.867.095-.009.187-.065.282-.073a1.496 1.496 0 0 1 1.612 1.353c.059.669-.325 1.233-.978 1.482-2.285.875-6.203 1.796-8.69 2.013-4.734.415-8.196-1.162-8.648-6.326-.192-2.199-.054-4.476-.051-6.645a870.29 870.29 0 0 1-11.277 1.083c-1.004.088-1.715-.331-1.807-1.383-.071-.813.648-1.406 1.413-1.473l1.53-.134c3.395-.297 6.738-.638 10.129-.983l-.013-1.251a232.4 232.4 0 0 1 .024-5.784c.003-1.061.05-2.173-.042-3.225-2.908.351-6.012.671-8.762 1.73-.139.061-.331.077-.474.09a1.444 1.444 0 0 1-1.56-1.309c-.055-.622.286-1.133.839-1.423 2.586-1.286 11.18-2.182 14.432-2.467 2.152-.188 11.385-.948 12.672 0 .412.301.632.619.678 1.145.067.765-.496 1.489-1.261 1.556-.382.033-.725-.033-.985-.251-1.269-.178-2.703-.053-4.003-.036-2.447.118-4.842.279-7.28.493l-1.435.125.004.048c.092 1.052.089 2.112.081 3.125l-.038 6.171-.012.965 9.49-1.12c1.765-.202 3.682-.322 5.43-.716l.239-.021a1.445 1.445 0 0 1 1.561 1.309Zm48.625-18.083c.297 3.395-5.406 12.567-8.289 14.313a1.465 1.465 0 0 1-.609.198 1.444 1.444 0 0 1-1.56-1.309c-.054-.622.204-.981.652-1.358 2.571-2.008 5.77-7.299 6.702-10.416l-.861.076c-3.351.245-6.721.829-10.047 1.361-6.035.961-11.929 2.44-17.925 3.302l-.191.017c-.808.119-1.441-.5-1.512-1.313-.067-.765.417-1.289 1.122-1.496.705-.206 1.466-.321 2.179-.431l5.066-1.022c4.644-.888 9.34-1.732 14.049-2.433 2.235-.34 4.518-.685 6.813-.885 1.243-.109 4.235-.612 4.411 1.396Zm-13.871 9.983c.188 2.152-.046 4.437-.244 6.575-.294 3.254-.687 6.468-1.076 9.73-.104 1.021-.155 2.086-.354 3.115-.16.93-.76 1.223-1.621 1.298-.622.055-1.219-.712-1.265-1.238-.083-.956.261-2.528.368-3.502.437-3.266.822-6.576 1.112-9.878.171-1.894.378-3.936.211-5.849a1.414 1.414 0 0 1 1.309-1.56c.765-.067 1.493.544 1.56 1.309Zm53.063-10.858c.067.765-.496 1.489-1.261 1.556-.765.067-1.538.038-2.303.105-1.626.142-3.244.38-4.861.618-.71 2.905-1.615 5.779-2.619 8.613a17.77 17.77 0 0 1 4.196.597c.741-.884 3.098-3.692 4.245-3.793.813-.071 1.533.445 1.604 1.257.05.574-.199 1.03-.652 1.358-.859.654-1.609 1.442-2.355 2.278 1.059.534 3.397 1.92 3.51 3.211.075.86-.497 1.489-1.31 1.56a1.448 1.448 0 0 1-1.301-.561c-.753-.898-1.721-1.488-2.771-1.926-1.423 1.907-4.188 6.1-3.97 8.587.117 1.339 1.659 1.348 2.711 1.256 1.865-.163 4.453-.871 6.125-1.596.278-.12.604-.245.939-.274.813-.072 1.445.548 1.512 1.313.055.621-.321 1.281-.93 1.478-2.393.74-4.717 1.714-7.251 1.936-2.774.242-5.691-.611-5.975-3.862-.272-3.108 2.21-7.228 3.922-9.691-1.52-.3-2.82-.283-4.302-.153-.813.071-1.537-.492-1.604-1.258-.033-.382.085-.681.251-.985 1.037-1.922 2.313-6.611 2.894-8.782-1.278.257-2.557.513-3.779.861l-1.405.46c-.096.009-.283.073-.379.081-.765.067-1.493-.544-1.56-1.309-.058-.669.374-1.237.979-1.483 2.097-.809 4.71-1.231 6.889-1.662.243-1.082.437-2.159.437-3.267.024-.821.552-1.397 1.365-1.468.861-.076 1.454.643 1.521 1.408.079.909-.12 1.938-.284 2.82a56.457 56.457 0 0 1 4.004-.495c1.244-.109 3.614-.557 3.768 1.212Zm63.24 21.739c.054.622-.199 1.03-.704 1.315-1.969 1.184-8.434 3.291-10.824 3.5-4.926.431-17.651-5.683-22.17-8.323-1.519 3.024-3.18 6.06-5.158 8.787-.301.412-.594.919-.947 1.287-.31.317-.584.485-1.015.523-.765.067-1.449-.596-1.512-1.313-.033-.383.089-.635.303-.942.598-.872 1.253-1.652 1.803-2.519 1.704-2.558 3.156-5.239 4.46-7.955.941-1.913 1.782-3.866 2.619-5.867.315-.798.631-1.597.994-2.4.245-.503.603-.823 1.177-.873.765-.067 1.441.5 1.508 1.265.067.765-2.529 6.341-3.059 7.447 3.213 2.032 6.867 3.591 10.369 5.067a494.718 494.718 0 0 1-1.261-18.825c-1.953.267-3.857.53-5.801.893-.089.634-.573 1.158-1.242 1.217-.622.054-1.082-.243-1.371-.796-.51-.871-1.052-7.617-1.165-8.908l-.401-4.591c-.059-.669-.174-1.43-.137-2.108.025-.821.505-1.393 1.366-1.468.813-.072 1.401.6 1.468 1.365.029.334.015.721.044 1.056 4.11-.938 8.354-1.454 12.514-1.818.86-.075 3.729-.326 4.468-.15.686.133 1.11.578 1.173 1.295.243 2.773-.16 7.531-.596 10.267.552.241.88.694.93 1.268.072.813-.604 1.354-1.317 1.464-.761.115-1.582.09-2.347.157-1.578.138-3.2.328-4.774.514.075 2.499.24 4.942.41 7.433 2.187-.336 4.382-.576 6.582-.769 1.195-.104 3.648-.704 3.812 1.161.075.86-.549 1.445-1.362 1.516-.956.084-1.964.124-2.921.207-1.96.172-3.968.348-5.912.71.182 2.634.369 5.316.599 7.946l.188 2.152c1.844.706 5.577 2.066 7.538 1.894 2.677-.234 7.246-1.983 9.645-3.204.187-.065.326-.125.518-.142.765-.067 1.441.5 1.508 1.265Zm-15.261-32.345c-.865.028-1.726.103-2.587.178-4.208.369-8.503.841-12.609 1.826l.172 1.961c.192 2.199.389 4.447.681 6.686 4.505-.828 9.083-1.373 13.626-1.77.583-2.702.72-6.086.717-8.881Zm59.851-3.212c.067.765-.5 1.441-1.265 1.508l-.239.021c-4.61-.368-9.234-.349-13.884-.087l.121 1.387c.134 1.53.22 3.065.21 4.607 2.985 1.618 4.76 4.836 5.053 8.183.61 6.981-1.721 16.678-6.311 22.042a1.38 1.38 0 0 1-.967.518c-.765.067-1.493-.544-1.56-1.309-.033-.382.081-.73.343-1.042.729-1.027 1.462-2.007 2.087-3.121 2.58-4.659 4.055-11.486 3.586-16.841-.163-1.865-1-3.719-2.364-4.997-.401 5.335-2.015 16.077-8.9 16.679-4.352.381-6.202-3.697-6.524-7.379-.486-5.547 3.357-13.4 9.477-13.935a11.737 11.737 0 0 1 3.194.154 86.754 86.754 0 0 0-.21-3.499l-.109-1.243-1.482.129c-7.32.593-15.407 1.782-22.369 4.27a.813.813 0 0 1-.331.077c-.765.067-1.493-.544-1.56-1.309-.058-.669.33-1.185.935-1.431 1.393-.603 2.998-.985 4.459-1.354 6.264-1.656 12.733-2.607 19.141-3.168l.765-.067c-.175-.9-.748-2.488-.806-3.157-.067-.766.544-1.494 1.357-1.565.717-.062 1.185.33 1.435.983.431 1.07.643 2.401.887 3.536 3.36-.149 6.728-.203 10.109-.113 1.447.018 3.037.023 4.453.236.682.085 1.207.569 1.269 1.287Zm-17.975 9.33c-.938-.255-1.954-.311-2.911-.227-4.495.393-7.202 6.894-6.859 10.815.171 1.96.869 4.983 3.404 4.761 5.068-.443 6.214-11.578 6.366-15.349Zm57.997 15.789c.042.478-.077.778-.382 1.142-1.702 2.028-5.955 4.086-8.584 4.316-4.304.377-9.689-.597-10.145-5.81-.369-4.207 2.53-7.978 5.585-10.51-1.867-3.162-2.851-7.798-3.169-11.432-.18-2.056-.3-5.081.202-7.052.185-.643.626-1.115 1.295-1.173a1.413 1.413 0 0 1 1.56 1.309c.013.143.021.239-.014.386-.342 2.15-.349 4.271-.165 6.375.276 3.156 1.053 7.087 2.596 9.843 1.637-1.107 4.716-2.822 6.676-2.993.765-.067 1.533.444 1.604 1.257.075.861-.409 1.385-1.209 1.599-.753.211-1.414.365-2.11.667-4.043 1.703-10.409 6.596-9.982 11.473.292 3.348 4.494 3.462 7.029 3.24 2.486-.217 4.947-1.83 6.73-3.48.266-.264.54-.432.923-.466.765-.067 1.493.544 1.56 1.309ZM274.886 363.209a1.444 1.444 0 0 1-1.309 1.56 1.993 1.993 0 0 1-.534-.05c-8.101-2.278-14.828-7.568-21.085-12.995l-1.512-1.314c-2.656 5.437-7.406 14.477-12.03 18.351a1.341 1.341 0 0 1-.836.362c-.765.067-1.497-.592-1.564-1.357-.042-.478.12-.829.473-1.198.794-.84 1.644-1.589 2.386-2.473 5.362-6.444 10.17-17.031 13.343-24.825.67-1.697 1.341-3.394 1.96-5.135.276-.698.496-1.489.82-2.192.241-.551.642-.923 1.263-.977.765-.067 1.493.544 1.565 1.356.096 1.1-5.397 13.771-6.124 15.377l2.137 1.836c4.484 3.896 9.1 7.636 14.484 10.249a34.645 34.645 0 0 0 3.901 1.634l1.637.532c.599.236.967.59 1.025 1.259Zm45.672-.623c.067.765-.6 1.402-1.322 1.417l-.143.012c-1.873.068-3.742.183-5.607.346-7.029.615-14.09 1.426-21.069 2.614l-3.557.649-.191.017a1.444 1.444 0 0 1-1.56-1.309c-.067-.765.417-1.29 1.122-1.496 1.457-.416 3.127-.611 4.649-.84 2.947-.451 5.947-.858 8.952-1.217.033-3.472-.173-6.923-.33-10.379-3.913.439-7.792 1.26-11.713 1.603l-.144.013a1.414 1.414 0 0 1-1.56-1.309c-.067-.765.413-1.337 1.118-1.544 1.222-.347 2.705-.477 3.944-.634 2.713-.382 5.434-.668 8.152-1.002-.16-2.925-.363-5.798-.571-8.719-4.255.372-8.521 1.179-12.777 1.551-.813.071-1.533-.444-1.608-1.305-.163-1.865 1.135-7.953 1.525-10.107.066-.343.077-.778.191-1.125.184-.643.625-1.115 1.294-1.173a1.444 1.444 0 0 1 1.56 1.309c.042.478-.147 1.073-.248 1.563-.496 2.597-.996 5.147-1.296 7.775 2.666-.378 5.339-.66 8.009-.99 1.047-.14 2.095-.28 3.147-.372-.046-.526-.044-1.056-.09-1.582l-.438-6.659c-.096-1.1-.245-2.243-.245-3.351.024-.822.452-1.437 1.313-1.513.813-.071 1.445.548 1.516 1.361.331 3.778.474 7.62.805 11.398l8.434-1.076c1.239-.156 2.47-.408 3.713-.517.813-.071 1.533.444 1.608 1.305.071.813-.457 1.389-1.213 1.551-1.322.309-2.809.391-4.144.556-2.713.381-5.478.72-8.195 1.054.207 2.921.415 5.842.574 8.767 2.391-.209 4.826-.47 7.217-.679 1.195-.105 2.669-.33 3.829-.287.869.02 1.437.452 1.517 1.361.075.861-.601 1.401-1.361 1.516-1.24.157-2.587.178-3.83.287-2.391.209-4.778.466-7.168.675.157 3.456.363 6.907.373 10.327 2.622-.326 5.247-.603 7.877-.834 1.578-.138 5.065-.491 6.52-.377.826.072 1.35.556 1.421 1.369Zm49.866-43.006c.066.765-.544 1.493-1.309 1.56-.622.055-.982-.203-1.315-.704-.605-.862-1.88-.558-2.001-1.945-.067-.765.448-1.484 1.261-1.556 1.052-.092 3.263 1.498 3.364 2.645Zm-4.565 5.652c.067.765-.544 1.493-1.309 1.56-.574.05-2.556-1.126-3.02-1.471-.312-.261-.585-.623-.622-1.053-.063-.718.548-1.446 1.313-1.513.622-.054 2.209 1.012 2.864 1.34.451.201.732.659.774 1.137Zm1.187 20.181c.067.765-.5 1.441-1.265 1.508a1.446 1.446 0 0 1-1.302-.561 227.906 227.906 0 0 0-4.402-5.156c-1.277-1.381-2.594-2.664-3.872-4.046a1.518 1.518 0 0 1-.414-.879 1.444 1.444 0 0 1 1.309-1.56c.431-.037.83.12 1.146.43 1.941 1.806 3.711 3.867 5.477 5.881.962 1.072 2.291 2.498 3.069 3.683.164.226.233.461.254.7Zm-15.832-3.626c.268 3.06-1.003 7.267-2.55 9.956-.669 1.167-1.735 2.754-3.217 2.884-1.291.113-4.099-1.136-4.224-2.57a1.444 1.444 0 0 1 1.309-1.56c1.052-.092 1.587 1.066 2.62 1.313 1.769-1.263 3.481-7.581 3.288-9.78-.033-.383-.118-.809-.295-1.179-.777-1.715-4.575-1.623-6.157-1.533-2.33 6.419-6.427 15.21-10.942 20.327a1.55 1.55 0 0 1-.971.47c-.765.067-1.445-.548-1.512-1.313-.034-.382.085-.682.299-.99.781-.984 1.562-1.967 2.291-2.995 3.158-4.661 5.64-9.889 7.683-15.175-.957.083-1.952.267-2.909.351-.765.067-1.489-.497-1.556-1.262-.071-.812.409-1.384 1.214-1.551 1.326-.261 2.952-.403 4.339-.524.373-1.238.699-2.471 1.12-3.712.189-.595.586-1.015 1.256-1.074.765-.067 1.493.544 1.56 1.309.042.479-.727 2.714-.92 3.261 3.903-.004 7.868.709 8.274 5.347Zm64.737-7.398c.067.765-.504 1.393-1.269 1.46-.478.042-.778-.077-1.098-.434-.853-.937-4.239-3.291-5.393-3.816-.504-.246-.824-.603-.874-1.177-.067-.765.452-1.437 1.265-1.508 1.243-.109 6.098 3.61 7.007 4.639.212.222.333.501.362.836Zm-17.475-12.493c.067.765-.504 1.394-1.269 1.46-.67.059-1.182-.282-1.427-.887-.435-1.118-2.187-3.518-3.08-4.356-.264-.266-.432-.54-.466-.923a1.394 1.394 0 0 1 1.266-1.508c.334-.029.734.129.994.347.936.785 3.878 4.672 3.982 5.867Zm16.755 2.052c.062.717-.453 1.437-1.218 1.504l-.191.016c-2.516-.117-5.094.157-7.628.379-1.53.134-3.061.267-4.586.449.184 2.104.876 10.572.388 12.156-.188.595-.585 1.015-1.207 1.07a1.394 1.394 0 0 1-1.508-1.266 1.73 1.73 0 0 1 .054-.486c.344-1.572-.221-8.028-.384-9.892l-.113-1.291c-1.195.104-2.434.261-3.63.365.046.526.049 1.104.047 1.634.07 2.452.092 4.907.305 7.346.059.669.122 1.387.328 2.091.008.096.064.187.073.283.062.717-.548 1.445-1.266 1.508-1.769.155-1.76-2.496-1.86-3.644-.218-2.486-.248-5.037-.322-7.536l-.022-1.348c-3.243.381-6.478.856-9.661 1.376-1.235.204-2.409.548-3.652.656l-.192.017a1.393 1.393 0 0 1-1.508-1.265c-.062-.717.418-1.289 1.079-1.444.896-.223 1.896-.358 2.844-.538 2.135-.379 4.326-.667 6.517-.955a363.95 363.95 0 0 1 17.655-1.978c1.865-.164 6.638-.678 8.393-.446.682.085 1.202.522 1.265 1.239Zm1.48 32.346c.147 1.673-2.674 1.92-3.822 2.021-1.387.121-2.838.055-4.179-.406-1.242-.421-2.504-1.082-3.667-1.703a386.619 386.619 0 0 1-6.203-3.167c-2.643 2.833-5.831 6.051-9.231 7.939-.183.112-.37.177-.562.193a1.393 1.393 0 0 1-1.508-1.265 1.383 1.383 0 0 1 .657-1.31c3.101-2.006 5.655-4.205 8.119-6.878-.707-.372-4.733-2.332-5.097-2.638-.559.772-1.218 1.504-1.829 2.232-.218.26-.588.437-.923.466-.812.071-1.436-.452-1.508-1.265-.033-.383.085-.682.299-.99l1.654-2.024c1.44-1.716 2.832-3.428 4.32-5.148.833-.94 1.706-1.98 2.647-2.785.27-.216.501-.333.836-.362.669-.059 1.241.421 1.439 1.03 1.439-.077 7.098-.38 8.209.198.503.245.775.606.821 1.132.03.335-.045.582-.215.838-.464.763-1.022 1.535-1.538 2.255-1.498 2.155-3.1 4.222-4.753 6.246l5.548 2.839c1.059.534 2.221 1.155 3.363 1.537.99.299 2.054.35 3.058.262a11.629 11.629 0 0 0 2.227-.435c.091-.057.235-.069.33-.078a1.393 1.393 0 0 1 1.508 1.266Zm-27.559-24.764c.021.239-.01.434-.089.634-.232.646-.608 1.306-.893 1.909-1.61 3.08-4.007 6.518-7.029 8.324-.183.113-.37.177-.609.198-.765.067-1.398-.552-1.46-1.27a1.332 1.332 0 0 1 .656-1.31c3.232-2.162 5.207-5.466 6.784-8.929.197-.499.606-.776 1.18-.826.765-.067 1.393.504 1.46 1.27Zm14.194 11.334c-2.025-.016-4.046.016-6.054.192-.335.029-.665.106-1.004.088-1.147 1.208-2.19 2.504-3.281 3.804 1.753.762 3.475 1.72 5.193 2.63a100.365 100.365 0 0 0 5.146-6.714Zm61.381-8.31c.419 4.782-3.298 10.215-6.538 13.389-.623.585-1.286 1.269-2.013 1.766-.227.165-.51.238-.796.263-.813.071-1.489-.496-1.556-1.262-.05-.573.159-.929.56-1.301.798-.793 1.705-1.45 2.45-2.287 2.342-2.421 5.334-6.778 5.024-10.317-.272-3.108-1.64-4.434-4.796-4.158-5.404.473-12.747 4.103-17.528 6.738.016 2.938.132 5.915.387 8.832.155 1.769.454 3.526.704 5.286l.012.144c.119.809-.552 1.397-1.317 1.464-.765.067-1.289-.417-1.495-1.122-.425-1.553-.591-3.995-.733-5.621a127.145 127.145 0 0 1-.405-7.385c-2.43 1.417-4.999 2.895-7.204 4.678-.27.216-.497.38-.879.414a1.444 1.444 0 0 1-1.56-1.309c-.042-.478.124-.782.43-1.146.868-1.088 7.835-5.167 9.211-5.961-.071-3.56.19-18.76 1.713-20.628.305-.364.575-.581 1.053-.622.813-.072 1.446.548 1.513 1.313.033.382-.05.534-.212.886-.937 1.961-1.202 14.897-1.219 17.452 4.836-2.543 11.827-5.805 17.278-6.282 4.782-.418 7.494 1.947 7.916 6.776Zm-28.589-2.943c.063.717-.548 1.445-1.313 1.512-.383.033-.582-.045-.886-.212-1.67-.914-2.978-.992-4.872-1.163a1.435 1.435 0 0 1-1.269-1.287c-.067-.765.496-1.489 1.261-1.556l.239-.02c2.186.194 4.084.413 6.01 1.497.455.25.784.703.83 1.229Zm66.448 6.088a1.503 1.503 0 0 1-.883 1.474c-1.054 4.477-4.868 7.702-9.41 8.099-3.156.276-6.035-1.785-6.319-5.036-.406-4.639 4.941-6.311 8.623-6.633 1.482-.13 2.977-.116 4.445.141-.495-2.896-5.312-7.293-8.113-7.915-.69-.18-1.206-.569-1.269-1.286-.063-.718.243-1.082.791-1.419 1.32-.886 5.502-7.612 6.033-9.249-1.04-.872-3.333-1.202-4.61-1.475-.686-.133-1.162-.621-1.225-1.339a1.393 1.393 0 0 1 1.265-1.508c.144-.012.287-.025.387.015 2.098.298 6.858 1.279 7.092 3.957.184 2.104-4.262 8.564-5.746 10.332 3.392 1.871 7.933 5.859 8.293 9.971.025.287.002.578.028.865.355.209.584.623.618 1.006Zm-3.728.904c-1.324-.27-2.724-.292-4.062-.175-1.818.159-6.223 1.027-6.001 3.561.146 1.674 1.673 2.6 3.251 2.462 3.347-.293 5.988-2.596 6.812-5.848Z" fill="#B31937"/></svg>