<svg width="133" height="69" fill="none" xmlns="http://www.w3.org/2000/svg"><path d="m0 0 133 3.417c-16.752 21.522-16.752 21.522-26.6 27.34-6.585.107-6.585.107-13.923-1.709l-8.638-2.109C61.326 20.585 38.98 13.764 16.625 6.835l73.15 34.175v6.835c-5.819 5.153-5.819 5.153-13.3 10.68-2.469 1.84-4.938 3.682-7.481 5.58l-5.819 4.245c-13.207-9.873-23.243-21.146-33.756-33.828C21.462 25.22 12.94 16.619 4.273 8.023 0 3.417 0 3.417 0 0Z" fill="#fff"/><path d="M10 3.107c20.839 4.196 41.124 9.72 61.5 15.75l7.874 2.322c18.877 5.643 18.877 5.643 26.626 9.544v24.164l-9.656-5.771C79.522 39.438 62.022 31.252 44.5 22.956l-10.078-4.8A12948.87 12948.87 0 0 0 10 6.559V3.107Z" fill="#F9F144"/></svg>