<svg width="196" height="138" fill="none" xmlns="http://www.w3.org/2000/svg"><path d="M36 0h68v85.334h32L70 138 0 85.334h36V0Z" fill="url(#a)"/><path d="M158.012 39.416c-1.28 0-2.784.704-3.872 2.496.448 4.32 2.048 5.984 4.032 5.984 1.76 0 3.232-1.472 3.232-4.384 0-2.784-1.344-4.096-3.392-4.096Zm.256 12.032c-4.512 0-8.512-3.616-8.512-11.968 0-8.832 4.384-12.608 9.152-12.608 2.912 0 4.992 1.216 6.432 2.688l-2.496 2.816c-.832-.96-2.272-1.728-3.648-1.728-2.72 0-4.96 2.048-5.152 8 1.28-1.6 3.328-2.56 4.864-2.56 3.968 0 6.784 2.368 6.784 7.424 0 4.864-3.392 7.936-7.424 7.936Zm18.172 0c-4.832 0-8.032-4.224-8.032-12.384 0-8.192 3.2-12.192 8.032-12.192s8 4.032 8 12.192-3.168 12.384-8 12.384Zm0-3.68c2.048 0 3.552-2.048 3.552-8.704 0-6.624-1.504-8.544-3.552-8.544s-3.584 1.92-3.584 8.544c0 6.656 1.536 8.704 3.584 8.704Zm-18.428 32.648c-1.28 0-2.784.704-3.872 2.496.448 4.32 2.048 5.984 4.032 5.984 1.76 0 3.232-1.472 3.232-4.384 0-2.784-1.344-4.096-3.392-4.096Zm.256 12.032c-4.512 0-8.512-3.616-8.512-11.968 0-8.832 4.384-12.608 9.152-12.608 2.912 0 4.992 1.216 6.432 2.688l-2.496 2.816c-.832-.96-2.272-1.728-3.648-1.728-2.72 0-4.96 2.048-5.152 8 1.28-1.6 3.328-2.56 4.864-2.56 3.968 0 6.784 2.368 6.784 7.424 0 4.864-3.392 7.936-7.424 7.936Zm18.172 0c-4.832 0-8.032-4.224-8.032-12.384 0-8.192 3.2-12.192 8.032-12.192s8 4.032 8 12.192-3.168 12.384-8 12.384Zm0-3.68c2.048 0 3.552-2.048 3.552-8.704 0-6.624-1.504-8.544-3.552-8.544s-3.584 1.92-3.584 8.544c0 6.656 1.536 8.704 3.584 8.704Z" fill="#B31937"/><path stroke="#B31937" stroke-width="2" d="M139 59h57"/><defs><linearGradient id="a" x1="68" y1="0" x2="68" y2="138" gradientUnits="userSpaceOnUse"><stop stop-color="#B31937" stop-opacity="0"/><stop offset="1" stop-color="#B31937"/></linearGradient></defs></svg>