<svg width="352" height="211" fill="none" xmlns="http://www.w3.org/2000/svg"><path d="M0 155.147v-105.5h279.926V0L352 102.397 279.926 211v-55.853H0Z" fill="url(#a)"/><path fill="#fff" d="M74.5 58h172v87h-172z"/><path d="M100.198 80.04c.5.74 1.2 2 1.58 2.74l-1.6.7c-.42-.82-1.02-2.02-1.56-2.78l1.58-.66Zm2.36-.9c.52.76 1.26 2.02 1.62 2.72l-1.6.68c-.4-.82-1.06-2-1.6-2.74l1.58-.66Zm-14.12 10.64c.9-2.24 1.66-5.06 1.9-7.6l2.92.6c-.18.58-.4 1.56-.48 2-.28 1.4-1 4.16-1.7 6.02-.72 1.94-1.9 4.22-2.96 5.72l-2.8-1.18c1.26-1.64 2.44-3.8 3.12-5.56Zm9.88-.42c-.76-2.1-2.06-5.06-2.9-6.58l2.66-.86c.82 1.54 2.2 4.62 2.96 6.56.7 1.8 1.76 5 2.32 6.98l-2.96.96c-.56-2.38-1.28-4.9-2.08-7.06Zm25.38-6.9c-.22.26-.6.74-.78 1.04-.94 1.56-2.84 4.08-4.8 5.48l-2.08-1.66c1.6-.98 3.16-2.74 3.68-3.72h-10.42c-.84 0-1.5.06-2.44.14v-2.78c.76.12 1.6.2 2.44.2h10.78c.56 0 1.66-.06 2.04-.18l1.58 1.48Zm-8.16 2.7c0 4.96-.1 9.04-5.54 11.96l-2.34-1.9c.64-.22 1.36-.56 2.1-1.1 2.54-1.76 3.02-3.88 3.02-7.16 0-.62-.04-1.16-.14-1.8h2.9Zm18.924 10.4c.08-.38.16-.94.16-1.48V82.42c0-.9-.14-1.66-.16-1.72h2.98c-.02.06-.14.84-.14 1.74V92.9c1.62-.7 3.6-2.28 4.94-4.22l1.54 2.2c-1.66 2.16-4.54 4.32-6.78 5.46-.44.24-.68.44-.86.6l-1.68-1.38Zm-9.26-.3c1.76-1.24 2.84-3.08 3.4-4.78.56-1.72.58-5.5.58-7.92 0-.8-.06-1.34-.18-1.84h2.94c-.02.1-.14.98-.14 1.82 0 2.36-.06 6.58-.6 8.6-.6 2.26-1.86 4.22-3.56 5.74l-2.44-1.62Zm26.42-5.9v4.4c1.22-.22 2.5-.46 3.72-.7l.18 2.12c-3.28.72-6.8 1.44-9.38 2l-.66-2.4c1.02-.16 2.34-.36 3.78-.6v-4.82h-3.02v-2.3h8.58v2.3h-3.2Zm11.74-4.58h-5.42c.42 5.84 1.64 10.46 3.1 10.46.42 0 .66-1.06.76-3.6.54.56 1.42 1.14 2.08 1.4-.36 3.78-1.16 4.7-3.06 4.7-3.42 0-4.92-5.92-5.4-12.96h-9.94v-2.32h9.82c-.04-1.08-.06-2.2-.06-3.3h2.56c-.02 1.1-.02 2.22.02 3.3h3.16c-.54-.68-1.54-1.5-2.34-2.1l1.58-1.3c.9.62 2.08 1.56 2.62 2.22l-1.36 1.18h1.88v2.32ZM89.62 113.52v-1.78h-3.9v-2.14h3.9v-1.52h2.36v1.52h4.94v-1.52h2.38v1.52h3.94v2.14H99.3v1.78h-2.38v-1.78h-4.94v1.78h-2.36Zm.12 5.6h3.4c.04-.24.04-.48.04-.72v-1.8h-3.44v2.52Zm9.52-2.52h-3.58v1.84c0 .22 0 .46-.02.68h3.6v-2.52Zm4.2 4.74H96.5c1.5 1.82 3.98 2.88 7.48 3.24-.52.54-1.18 1.54-1.48 2.2-3.72-.6-6.18-1.98-7.86-4.38-1.18 1.86-3.56 3.4-8.08 4.38-.26-.52-.94-1.48-1.48-2.02 4.28-.78 6.38-2 7.32-3.42h-6.88v-2.22h1.92v-4.58h5.74v-2h2.5v2h6v4.58h1.78v2.22Zm7.36-7.28h7.5c-1.54-1.16-2.92-2.46-3.84-3.7-.86 1.22-2.14 2.52-3.66 3.7Zm-.98 2.18v-1.46c-1.06.76-2.22 1.44-3.38 2-.28-.58-.9-1.48-1.4-2 3.4-1.5 6.58-4.34 8.08-6.7h2.48c2.12 2.94 5.3 5.22 8.46 6.34-.6.62-1.12 1.48-1.54 2.18-1.1-.52-2.26-1.18-3.36-1.94v1.58h-9.34Zm-3.54 3.86v-2.2h16.54v2.2h-8.96c-.58 1.18-1.24 2.42-1.84 3.54 1.92-.06 3.98-.14 6.02-.22-.62-.72-1.3-1.44-1.96-2.04l2.1-1.1c1.78 1.56 3.64 3.64 4.58 5.14l-2.22 1.34c-.2-.38-.48-.8-.8-1.24-4.7.26-9.64.46-13.04.62l-.32-2.32 3.02-.1c.54-1.12 1.1-2.44 1.52-3.62h-4.64Zm25.82-11.42v1.8h-5.9v-1.8h5.9Zm-1.94 13.1h-2.14v2.28h2.14v-2.28Zm2.02-1.88v6.04h-4.16v.78h-2v-6.82h6.16Zm-6.1-1.02v-1.8h6v1.8h-6Zm6-4.58v1.78h-6v-1.78h6Zm-6.94-.98v-1.88h7.6v1.88h-7.6Zm15.58 10.32v-2.8h-4.54v2.8h4.54Zm3.18-7.58h-4.3v2.64h3.5v7.96h-2.38v-.88h-4.54v.96h-2.26v-8.04h3.26v-2.64h-4.3v-2.22h4.3v-2.44c-1.12.14-2.26.24-3.32.32-.08-.58-.38-1.48-.64-2 3-.26 6.36-.78 8.48-1.46l1.68 1.98c-1.14.34-2.42.6-3.78.82v2.78h4.3v2.22Zm7.48-5.9-1.4 1.94c-.78-.7-2.42-1.66-3.74-2.2l1.32-1.78c1.28.5 2.96 1.36 3.82 2.04Zm-1.18 5.22-1.32 2c-.8-.68-2.46-1.56-3.76-2.06l1.22-1.8c1.28.44 3 1.2 3.86 1.86Zm-1 3.28 1.78 1.52c-.98 2.08-2.14 4.36-3.26 6.28l-2.06-1.52c1-1.5 2.42-3.98 3.54-6.28Zm14.86 6.86-2.26 1.22c-.16-.46-.38-1.02-.68-1.58-3.62.32-7.4.58-10.1.78l-.32-2.4 1.5-.06c.72-1.52 1.42-3.5 1.9-5.18h-3.42v-2.28h5.14v-2.82h-4.14v-2.28h4.14v-2.84h2.48v2.84h4.34v2.28h-4.34v2.82h5.28v2.28h-6.72l.08.02c-.64 1.68-1.44 3.52-2.16 5.02 1.6-.08 3.38-.18 5.14-.28-.5-.8-1.06-1.58-1.6-2.28l2.04-1.08c1.48 1.76 3.08 4.14 3.7 5.82Zm30.432-45.104c-1.28 0-2.784.704-3.872 2.496.448 4.32 2.048 5.984 4.032 5.984 1.76 0 3.232-1.472 3.232-4.384 0-2.784-1.344-4.096-3.392-4.096Zm.256 12.032c-4.512 0-8.512-3.616-8.512-11.968 0-8.832 4.384-12.608 9.152-12.608 2.912 0 4.992 1.216 6.432 2.688l-2.496 2.816c-.832-.96-2.272-1.728-3.648-1.728-2.72 0-4.96 2.048-5.152 8 1.28-1.6 3.328-2.56 4.864-2.56 3.968 0 6.784 2.368 6.784 7.424 0 4.864-3.392 7.936-7.424 7.936Zm18.172 0c-4.832 0-8.032-4.224-8.032-12.384 0-8.192 3.2-12.192 8.032-12.192s8 4.032 8 12.192-3.168 12.384-8 12.384Zm0-3.68c2.048 0 3.552-2.048 3.552-8.704 0-6.624-1.504-8.544-3.552-8.544s-3.584 1.92-3.584 8.544c0 6.656 1.536 8.704 3.584 8.704Z" fill="#B31937"/><path d="M178.358 133v-3.808h5.088v-14.976h-4.288v-2.912c2.368-.448 4-1.056 5.504-2.016h3.488v19.904h4.448V133h-14.24Zm25.66.448c-4.832 0-8.032-4.224-8.032-12.384 0-8.192 3.2-12.192 8.032-12.192s8 4.032 8 12.192-3.168 12.384-8 12.384Zm0-3.68c2.048 0 3.552-2.048 3.552-8.704 0-6.624-1.504-8.544-3.552-8.544s-3.584 1.92-3.584 8.544c0 6.656 1.536 8.704 3.584 8.704Zm18.844 3.68c-4.832 0-8.032-4.224-8.032-12.384 0-8.192 3.2-12.192 8.032-12.192s8 4.032 8 12.192-3.168 12.384-8 12.384Zm0-3.68c2.048 0 3.552-2.048 3.552-8.704 0-6.624-1.504-8.544-3.552-8.544s-3.584 1.92-3.584 8.544c0 6.656 1.536 8.704 3.584 8.704Z" fill="#999"/><path stroke="#999" stroke-width="2" d="M175.5 101h57"/><defs><linearGradient id="a" x1="13" y1="105.965" x2="361.313" y2="105.965" gradientUnits="userSpaceOnUse"><stop stop-color="#fff"/><stop offset=".394" stop-color="#B31937"/></linearGradient></defs></svg>