<svg width="204" height="448" fill="none" xmlns="http://www.w3.org/2000/svg"><path d="M36 0h68v394.834h32L70 447.5 0 394.834h36V0Z" fill="url(#a)"/><path d="M175.518 351.948c-4.832 0-8.032-4.224-8.032-12.384 0-8.192 3.2-12.192 8.032-12.192s8 4.032 8 12.192-3.168 12.384-8 12.384Zm0-3.68c2.048 0 3.552-2.048 3.552-8.704 0-6.624-1.504-8.544-3.552-8.544s-3.584 1.92-3.584 8.544c0 6.656 1.536 8.704 3.584 8.704Zm-25.66 44.232v-3.808h5.088v-14.976h-4.288v-2.912c2.368-.448 4-1.056 5.504-2.016h3.488v19.904h4.448v3.808h-14.24Zm25.66.448c-4.832 0-8.032-4.224-8.032-12.384 0-8.192 3.2-12.192 8.032-12.192s8 4.032 8 12.192-3.168 12.384-8 12.384Zm0-3.68c2.048 0 3.552-2.048 3.552-8.704 0-6.624-1.504-8.544-3.552-8.544s-3.584 1.92-3.584 8.544c0 6.656 1.536 8.704 3.584 8.704Zm18.844 3.68c-4.832 0-8.032-4.224-8.032-12.384 0-8.192 3.2-12.192 8.032-12.192s8 4.032 8 12.192-3.168 12.384-8 12.384Zm0-3.68c2.048 0 3.552-2.048 3.552-8.704 0-6.624-1.504-8.544-3.552-8.544s-3.584 1.92-3.584 8.544c0 6.656 1.536 8.704 3.584 8.704Z" fill="#CCC"/><path stroke="#CCC" stroke-width="2" d="M147 359.5h57"/><defs><linearGradient id="a" x1="68" y1="0" x2="68" y2="447.5" gradientUnits="userSpaceOnUse"><stop stop-color="#999" stop-opacity="0"/><stop offset="1" stop-color="#CCC"/></linearGradient></defs></svg>