<svg width="100" height="100" fill="none" xmlns="http://www.w3.org/2000/svg"><path d="M50.002 6.667c7.947 0 14.721 1.427 20.385 3.94l3.734-4.98c.122-.164.249-.318.38-.46C67.633 1.834 59.439 0 50 0c-9.432 0-17.62 1.837-24.49 5.167.134.145.261.298.384.46l3.733 4.977c5.657-2.51 12.431-3.937 20.376-3.937ZM6.667 50.002c0-5.208.667-10.155 1.984-14.715l-5.674-3.15-.287-.167C.89 37.604 0 43.69 0 49.998c0 13.538 4.087 26.07 12.545 35.257C21.045 94.486 33.653 100 50.002 100c16.348 0 28.956-5.514 37.453-14.745 8.458-9.184 12.548-21.719 12.548-35.257 0-6.307-.886-12.394-2.69-18.028l-.28.167-5.677 3.15c1.313 4.56 1.98 9.504 1.98 14.711 0 12.235-3.687 23.036-10.784 30.74-7.054 7.66-17.779 12.595-32.55 12.595-14.772 0-25.496-4.934-32.55-12.595C10.35 73.041 6.667 62.24 6.667 50.005" fill="#B31937" fill-opacity=".2"/><path d="m25.926 43.544-10.168 7.908a1.333 1.333 0 0 1-2.146-1.174l1-10.95a6.667 6.667 0 0 0-3.404-6.435l-6.61-3.667a2.5 2.5 0 0 1 .286-4.51l8.434-3.374a6.667 6.667 0 0 0 4.057-4.88l1.574-7.864a2.4 2.4 0 0 1 4.273-.967l4.548 6.057a6.667 6.667 0 0 0 5.937 2.64l11.644-1.06a1.333 1.333 0 0 1 1.187 2.13l-5.954 7.938a6.668 6.668 0 0 0-.857 6.48l4.708 11.762a.834.834 0 0 1-.94 1.127L31.327 42.27a6.667 6.667 0 0 0-5.4 1.273Zm-5.924 9.795s0 30.003 30.003 30.003 30.003-30.003 30.003-30.003H20.002Zm54.082-9.795 10.168 7.908a1.333 1.333 0 0 0 2.147-1.174l-1-10.95a6.667 6.667 0 0 1 3.403-6.435l6.611-3.667a2.5 2.5 0 0 0-.287-4.51l-8.434-3.374a6.667 6.667 0 0 1-4.057-4.88l-1.573-7.864a2.4 2.4 0 0 0-4.274-.967l-4.547 6.057a6.667 6.667 0 0 1-5.938 2.64l-11.644-1.06a1.333 1.333 0 0 0-1.187 2.13l5.954 7.934a6.667 6.667 0 0 1 .857 6.481l-4.707 11.761a.833.833 0 0 0 .94 1.127l12.168-2.433a6.667 6.667 0 0 1 5.4 1.273" fill="#B31937" fill-opacity=".2"/></svg>