<svg width="42" height="42" fill="none" xmlns="http://www.w3.org/2000/svg"><g clip-path="url(#a)"><path opacity=".35" d="M20.76 41.52c11.465 0 20.76-9.295 20.76-20.76C41.52 9.295 32.225 0 20.76 0 9.295 0 0 9.295 0 20.76c0 11.465 9.295 20.76 20.76 20.76Z" fill="#fff"/><path d="M23.72 20.39c.01.06.02.12.04.17 0 .07.01.14.02.21v.17c0 .07-.01.14-.02.21-.11.11-.17.24-.06.39-.1.38-.17.78-.3 1.15-.23.62-.6 1.17-1.07 1.64-.23.22-.23.6-.01.82.2.2.6.19.81-.02.46-.44.8-.95 1.1-1.51.37-.7.55-1.45.64-2.22.07-.6.02-1.21-.12-1.81-.15-.65-.37-1.28-.72-1.85-.19-.31-.41-.6-.64-.87-.18-.22-.38-.43-.73-.41-.23.01-.36.11-.45.3-.09.21-.08.43.07.59.47.48.84 1.02 1.1 1.65.17.43.33.85.33 1.32l.03.09-.02-.02Zm4.79 1.15c.04-.07.11-.14.12-.22.01-.31.01-.61 0-.92 0-.07-.08-.15-.12-.22 0-.04-.01-.08-.02-.13-.02-.27-.02-.54-.08-.8-.21-1.02-.48-2.02-1-2.92-.32-.56-.68-1.1-1.07-1.62-.21-.29-.5-.53-.77-.78-.15-.13-.51-.08-.67.06-.03.04-.06.09-.08.13-.11.23-.11.45.08.65.23.25.44.52.66.78.51.59.87 1.27 1.17 1.99.19.44.37.89.44 1.37.05.38.13.75.2 1.13 0 .03.02.06.02.09v1.43c0 .03-.02.06-.02.09-.02.18-.03.37-.07.55-.09.4-.21.8-.31 1.21-.16.67-.47 1.27-.81 1.86-.33.56-.72 1.08-1.19 1.54-.22.22-.31.47-.16.77l.08.13.04.04c.04.03.09.05.13.08.28.12.57.02.81-.29.37-.47.75-.93 1.09-1.43.26-.38.48-.8.68-1.22.33-.73.59-1.48.72-2.28.05-.33.08-.67.11-1 0-.03.01-.06.02-.08v.01Zm3.64.25c.14-.08.18-.18.04-.3v-1.26c.14-.12.1-.22-.04-.3 0-.07-.01-.14-.02-.21-.02-.2-.04-.41-.07-.61-.07-.41-.11-.83-.22-1.24-.16-.59-.36-1.16-.54-1.74-.24-.75-.59-1.45-.99-2.11-.3-.49-.64-.96-1-1.42-.3-.4-.64-.77-.97-1.14a.595.595 0 0 0-.58-.19c-.54.14-.55.63-.28.95.34.41.73.79 1.06 1.21.49.62.9 1.3 1.24 2.02.3.65.6 1.29.78 1.99.1.41.24.81.31 1.22.09.56.12 1.13.18 1.7v1.02c-.03.3-.04.61-.09.91-.06.43-.13.86-.21 1.28-.08.38-.18.76-.3 1.13-.1.34-.23.67-.37.99-.14.32-.3.63-.47.93-.28.48-.54.97-.86 1.42-.39.53-.85 1.01-1.28 1.51-.2.23-.19.55.02.77.21.22.45.18.7.08l.58-.56c.54-.62 1.03-1.26 1.45-1.96.33-.55.66-1.11.88-1.73.21-.61.45-1.21.63-1.83.15-.49.24-1 .34-1.5.05-.26.05-.54.08-.8 0-.07.01-.14.02-.21l-.02-.02ZM9.5 16.81s-.09.05-.13.07l-.24.3h-.01s-.03.08-.04.12c0 .1-.02.2-.02.3v6.67c0 .12.02.24.03.36.02.04.05.09.07.13.03.03.05.06.08.09.04.04.09.08.13.12.11.04.23.08.34.12.08 0 .17.01.25.01h3.72v.04c.01.01.03.02.04.04.24.18.5.35.72.54.35.31.68.65 1.03.97.87.82 1.75 1.64 2.62 2.46.32.3.63.63.97.91.22.18.37.45.75.41.44-.04.72-.33.72-.75V11.74l-.07-.1c-.13-.36-.69-.49-.98-.23-.33.3-.65.6-.98.9-.73.68-1.45 1.36-2.17 2.04l-1.95 1.86c-.27.25-.53.55-.95.56-.07 0-.14-.02-.21-.02h-3.3c-.14 0-.29.05-.43.07l.01-.01Z" fill="#B31937"/><path d="M13.44 16.76c.42-.01.68-.31.95-.56.66-.61 1.3-1.24 1.95-1.86.72-.68 1.45-1.36 2.17-2.04.32-.3.65-.6.98-.9.29-.26.85-.14.98.23l.07.1v17.98c0 .42-.28.71-.72.75-.37.03-.53-.23-.75-.41-.34-.28-.64-.61-.97-.91-.87-.82-1.75-1.64-2.62-2.46-.34-.32-.67-.66-1.03-.97-.23-.2-.48-.36-.72-.54-.01-.01-.03-.02-.04-.04-.01-.01-.01-.02 0-.04.02-.03.03-.05.05-.09H9.88c-.06 0-.12.05-.17.07-.11-.04-.23-.08-.34-.12-.04-.04-.09-.08-.13-.12-.03-.03-.05-.06-.08-.09v-.13c.02-.06.04-.12.04-.18v-7.1c0-.06-.05-.11-.07-.17l.24-.3h4.16l-.09-.12v.02ZM32.13 22c-.02.27-.03.54-.08.8-.1.5-.19 1.01-.34 1.5-.18.62-.42 1.22-.63 1.83-.22.61-.55 1.17-.88 1.73-.42.7-.92 1.35-1.45 1.96l-.58.56c-.25.11-.48.14-.7-.08a.559.559 0 0 1-.02-.77c.43-.5.89-.98 1.28-1.51.33-.44.59-.94.86-1.42.17-.3.34-.61.47-.93.14-.32.26-.66.37-.99.12-.37.22-.75.3-1.13.09-.42.15-.85.21-1.28.04-.3.06-.61.09-.91.01-.15.04-.3.04-.46 0-.19-.03-.37-.04-.56-.06-.57-.09-1.14-.18-1.7-.07-.41-.21-.81-.31-1.22-.17-.7-.47-1.34-.78-1.99-.34-.72-.76-1.39-1.24-2.02-.33-.42-.71-.8-1.06-1.21-.27-.32-.25-.81.28-.95.2-.05.43.02.58.19.33.37.67.74.97 1.14.35.46.69.93 1 1.42.41.66.75 1.36.99 2.11.18.58.39 1.15.54 1.74.11.4.15.82.22 1.24.03.2.05.41.07.61-.02.05-.07.1-.07.15v1.98c0 .05.04.1.07.15l.02.02Z" fill="#B31937"/><path d="M27.39 21.57v-1.43c0-.03-.02-.06-.02-.09-.07-.38-.15-.75-.2-1.13-.06-.49-.25-.93-.44-1.37-.3-.71-.66-1.39-1.17-1.99-.22-.26-.43-.52-.66-.78-.18-.2-.18-.42-.08-.65.03-.04.06-.09.08-.13.15-.14.52-.2.67-.06.27.24.56.48.77.78.38.52.75 1.06 1.07 1.62.52.91.79 1.91 1 2.92.05.26.05.53.08.8-.02.04-.07.09-.07.13v1.3c0 .04.04.09.07.13-.04.33-.06.67-.11 1-.13.79-.39 1.55-.72 2.28-.19.42-.42.84-.68 1.22-.34.49-.72.96-1.09 1.43-.25.31-.53.41-.81.29-.04-.03-.09-.05-.13-.08l-.04-.04-.08-.13c-.15-.3-.06-.55.16-.77.47-.46.86-.98 1.19-1.54.34-.59.65-1.19.81-1.86.1-.4.21-.8.31-1.21.04-.18.05-.37.07-.55 0-.03.02-.06.02-.09Z" fill="#B31937"/><path d="M23.78 20.95v-.17c.03-.18.07-.36.1-.54h-.06v.08h-.12c0-.47-.16-.89-.33-1.32-.25-.63-.62-1.17-1.1-1.65-.15-.15-.16-.38-.07-.59.09-.19.22-.29.45-.3.35-.02.54.19.73.41.23.28.45.57.64.87.35.57.58 1.19.72 1.85.13.6.19 1.21.12 1.81-.09.77-.27 1.52-.64 2.22-.29.56-.64 1.07-1.1 1.51-.21.2-.62.21-.81.02-.22-.22-.21-.59.01-.82.47-.47.84-1.01 1.07-1.64.14-.37.2-.76.3-1.15.02-.06.04-.11.07-.17.02.04.05.08.09.15v-.34c0-.08-.05-.15-.07-.23ZM9.13 17.18c.03.06.07.11.07.17v7.1c0 .06-.03.12-.04.18h-.07c-.01-.12-.03-.24-.03-.36V17.6c0-.1.01-.2.02-.3.01-.04.03-.09.04-.13h.01v.01Zm4.31-.42s.05.07.09.12H9.5v-.07c.14-.02.29-.07.43-.07h3.3c.07 0 .14.01.21.02Zm-3.73 8.32c.06-.02.12-.07.17-.07h3.86c-.02.04-.04.06-.05.09H9.97c-.08 0-.17 0-.25-.01l-.01-.01ZM32.13 22c-.02-.05-.07-.1-.07-.15v-1.98c0-.05.04-.1.07-.15 0 .07.01.14.02.21.01.1.03.2.04.3v1.26c-.01.1-.03.2-.04.3 0 .07-.01.14-.02.21Zm-3.64-.38s-.07-.09-.07-.13v-1.3c0-.04.04-.09.07-.13 0 .04.01.08.02.13v1.35s-.01.06-.02.08Zm.02-.08v-1.35c.04.07.11.14.12.22.01.31.01.61 0 .92 0 .07-.08.15-.12.22v-.01Zm2.54-1.19c.01.19.04.37.04.56 0 .15-.03.3-.04.46v-1.02Z" fill="#B31937"/><path d="M23.78 20.95c.02.08.06.15.07.23.01.1 0 .21 0 .34-.04-.06-.06-.1-.09-.15v-.22c0-.07.01-.14.02-.21v.01Zm.03-.64v-.08h.06c-.03.18-.07.36-.1.54 0-.07-.01-.14-.02-.21v-.17c.01-.03.03-.06.04-.08h.02Zm-.05.84v.22c-.02.06-.04.11-.07.17-.11-.15-.06-.27.06-.39h.01Zm8.43-.92c-.01-.1-.03-.2-.04-.3.14.08.18.18.04.3Zm-.04 1.56c.01-.1.03-.2.04-.3.14.12.1.22-.04.3Z" fill="#B31937"/><path d="M23.76 20.4v.17a.847.847 0 0 0-.04-.17h.04ZM9.5 16.81v.07h-.13c.04-.02.09-.05.13-.07Zm-.26 8.03s.09.08.13.12c-.04-.04-.09-.08-.13-.12Zm-.12-7.66s-.03.09-.04.13c.01-.04.03-.09.04-.13Zm14.64 3.22h-.04l-.03-.09h.12c-.01.03-.03.06-.04.08l-.01.01Zm1.15-6.4s-.06.09-.08.13c.03-.04.06-.09.08-.13ZM9.09 24.62h.07v.13c-.02-.04-.05-.09-.07-.13Zm15.73 2.97.08.13s-.06-.09-.08-.13Zm.13.17s.09.05.13.08c-.04-.03-.09-.05-.13-.08Zm2.44-6.19s-.02.06-.02.09c0-.03.02-.06.02-.09Zm-6.85-9.84-.07-.1.07.1Zm6.83 8.33s.02.06.02.09c0-.03-.02-.06-.02-.09ZM13.7 25.13s.03.02.04.04c-.01-.01-.03-.02-.04-.04Z" fill="#B31937"/></g><defs><clipPath id="a"><path fill="#fff" d="M0 0h41.51v41.51H0z"/></clipPath></defs></svg>